<?xml version="1.0" encoding="UTF-8" standalone="no"?><!-- Generator: Gravit.io --><svg xmlns="http://www.w3.org/2000/svg" xmlns:xlink="http://www.w3.org/1999/xlink" style="isolation:isolate" viewBox="0 0 225.733 120.544" width="225.733pt" height="120.544pt"><defs><clipPath id="_clipPath_q1rSmjcwKez92OmplTsTtMo2usd14F8e"><rect width="225.733" height="120.544"/></clipPath></defs><g clip-path="url(#_clipPath_q1rSmjcwKez92OmplTsTtMo2usd14F8e)"><mask id="_mask_chWSv0lRdwycZLyW4U9YKoYijt8qvFEB"><path d=" M 225.733 6.51 L 225.733 45.567 C 225.733 47.824 224.335 49.877 222.202 50.619 C 218.001 52.079 214.986 56.075 214.986 60.773 L 6.002 60.773 C 6.002 57.31 3.313 54.504 0 54.504 L 0 50.355 C 3.313 50.355 6.002 47.551 6.002 44.088 C 6.002 40.626 3.313 37.82 0 37.82 L 0 33.67 C 3.313 33.67 6.002 30.864 6.002 27.402 C 6.002 23.939 3.313 21.137 0 21.137 L 0 16.99 C 3.313 16.99 6.002 14.18 6.002 10.721 C 6.002 7.263 3.313 4.451 0 4.451 L 0 0.041 C 0 0.017 0.019 0 0.041 0 L 15.326 0 C 17.165 0 18.829 1.173 19.367 2.934 C 20.621 7.047 24.447 10.041 28.972 10.041 C 33.497 10.041 37.327 7.047 38.584 2.934 C 39.119 1.173 40.783 0 42.625 0 L 219.219 0 C 222.818 0 225.733 2.914 225.733 6.51 L 225.733 6.51 Z " fill-rule="evenodd" fill="white" stroke="none"/></mask><path d=" M 225.733 6.51 L 225.733 45.567 C 225.733 47.824 224.335 49.877 222.202 50.619 C 218.001 52.079 214.986 56.075 214.986 60.773 L 6.002 60.773 C 6.002 57.31 3.313 54.504 0 54.504 L 0 50.355 C 3.313 50.355 6.002 47.551 6.002 44.088 C 6.002 40.626 3.313 37.82 0 37.82 L 0 33.67 C 3.313 33.67 6.002 30.864 6.002 27.402 C 6.002 23.939 3.313 21.137 0 21.137 L 0 16.99 C 3.313 16.99 6.002 14.18 6.002 10.721 C 6.002 7.263 3.313 4.451 0 4.451 L 0 0.041 C 0 0.017 0.019 0 0.041 0 L 15.326 0 C 17.165 0 18.829 1.173 19.367 2.934 C 20.621 7.047 24.447 10.041 28.972 10.041 C 33.497 10.041 37.327 7.047 38.584 2.934 C 39.119 1.173 40.783 0 42.625 0 L 219.219 0 C 222.818 0 225.733 2.914 225.733 6.51 L 225.733 6.51 Z " fill-rule="evenodd" fill="rgb(255,102,0)"/><path d=" M 225.733 6.51 L 225.733 45.567 C 225.733 47.824 224.335 49.877 222.202 50.619 C 218.001 52.079 214.986 56.075 214.986 60.773 L 6.002 60.773 C 6.002 57.31 3.313 54.504 0 54.504 L 0 50.355 C 3.313 50.355 6.002 47.551 6.002 44.088 C 6.002 40.626 3.313 37.82 0 37.82 L 0 33.67 C 3.313 33.67 6.002 30.864 6.002 27.402 C 6.002 23.939 3.313 21.137 0 21.137 L 0 16.99 C 3.313 16.99 6.002 14.18 6.002 10.721 C 6.002 7.263 3.313 4.451 0 4.451 L 0 0.041 C 0 0.017 0.019 0 0.041 0 L 15.326 0 C 17.165 0 18.829 1.173 19.367 2.934 C 20.621 7.047 24.447 10.041 28.972 10.041 C 33.497 10.041 37.327 7.047 38.584 2.934 C 39.119 1.173 40.783 0 42.625 0 L 219.219 0 C 222.818 0 225.733 2.914 225.733 6.51 L 225.733 6.51 Z " fill-rule="evenodd" fill="rgb(255,102,0)" mask="url(#_mask_chWSv0lRdwycZLyW4U9YKoYijt8qvFEB)" vector-effect="non-scaling-stroke" stroke-width="4" stroke="rgb(255,255,255)" stroke-linejoin="miter" stroke-linecap="square" stroke-miterlimit="3"/><path d=" M 39.776 32.729 C 39.776 36.565 42.896 39.685 46.732 39.685 L 57.536 39.685 L 57.536 43.534 L 46.732 43.534 C 40.764 43.534 35.927 38.697 35.927 32.729 C 35.927 26.762 40.766 21.925 46.732 21.925 L 57.536 21.925 L 57.536 25.774 L 46.732 25.774 C 42.896 25.774 39.776 28.891 39.776 32.729 L 39.776 32.729 L 39.776 32.729 L 39.776 32.729 L 39.776 32.729 L 39.776 32.729 L 39.776 32.729 L 39.776 32.729 Z  M 104.091 21.925 L 104.091 32.729 C 104.091 38.697 99.254 43.534 93.287 43.534 C 87.319 43.534 82.482 38.697 82.482 32.729 L 82.482 21.925 L 86.331 21.925 L 86.331 32.729 C 86.331 36.565 89.45 39.685 93.287 39.685 C 97.123 39.685 100.242 36.565 100.242 32.729 L 100.242 21.925 L 104.091 21.925 L 104.091 21.925 L 104.091 21.925 L 104.091 21.925 L 104.091 21.925 L 104.091 21.925 L 104.091 21.925 L 104.091 21.925 Z  M 173.178 21.925 L 173.178 43.536 L 169.317 40.557 L 155.431 29.855 L 155.431 43.536 L 151.57 43.536 L 151.57 22.001 L 155.431 24.978 L 169.317 35.68 L 169.317 21.925 L 173.178 21.925 L 173.178 21.925 L 173.178 21.925 L 173.178 21.925 L 173.178 21.925 L 173.178 21.925 Z  M 192.846 27.879 L 192.846 27.764 C 192.846 26.674 191.948 25.789 190.857 25.789 L 182.093 25.789 C 181.002 25.789 180.117 26.674 180.117 27.764 L 180.117 27.879 C 180.117 28.97 181.002 29.855 182.093 29.855 L 189.857 29.855 C 191.858 29.855 193.654 30.715 194.9 32.087 C 195.003 32.177 195.08 32.279 195.156 32.381 C 196.119 33.561 196.697 35.063 196.697 36.693 C 196.697 40.465 193.631 43.521 189.857 43.521 L 183.093 43.521 C 179.321 43.521 176.266 40.468 176.266 36.693 L 180.115 36.693 C 180.115 38.336 181.45 39.67 183.093 39.67 L 189.857 39.67 C 191.5 39.67 192.846 38.336 192.846 36.693 C 192.846 35.05 191.497 33.715 189.857 33.715 L 182.093 33.715 C 180.514 33.715 179.103 33.098 178.064 32.085 C 177.783 31.816 177.525 31.519 177.307 31.187 C 176.652 30.25 176.268 29.108 176.268 27.875 L 176.268 27.76 C 176.268 24.538 178.873 21.92 182.095 21.92 L 190.859 21.92 C 194.081 21.92 196.699 24.538 196.699 27.76 L 196.699 27.875 L 192.85 27.875 L 192.846 27.879 L 192.846 27.879 L 192.846 27.879 L 192.846 27.879 L 192.846 27.879 Z  M 76.276 32.729 C 76.276 28.895 73.156 25.778 69.324 25.778 C 65.492 25.778 62.375 28.895 62.375 32.729 C 62.375 36.563 65.492 39.68 69.324 39.68 C 73.156 39.68 76.276 36.563 76.276 32.729 L 76.276 32.729 L 76.276 32.729 L 76.276 32.729 L 76.276 32.729 Z  M 122.785 27.751 C 122.785 27.045 122.412 26.559 122.194 26.326 C 121.938 26.083 121.488 25.761 120.808 25.761 L 111.029 25.761 L 111.029 29.74 L 120.808 29.74 C 121.089 29.74 121.358 29.689 121.616 29.561 C 122.335 29.241 122.783 28.535 122.783 27.751 L 122.785 27.751 L 122.785 27.751 L 122.785 27.751 L 122.785 27.751 Z  M 80.124 32.729 C 80.124 38.695 75.29 43.529 69.324 43.529 C 63.359 43.529 58.526 38.695 58.526 32.729 C 58.526 26.764 63.361 21.929 69.324 21.929 C 75.288 21.929 80.124 26.764 80.124 32.729 L 80.124 32.729 L 80.124 32.729 L 80.124 32.729 L 80.124 32.729 Z  M 126.634 27.751 C 126.634 30.113 125.235 32.153 123.221 33.064 C 122.694 33.307 122.13 33.474 121.539 33.54 C 121.488 33.553 121.424 33.553 121.373 33.553 L 121.373 33.591 L 111.027 33.591 L 111.027 43.529 L 107.178 43.529 L 107.178 21.918 L 107.18 21.918 L 107.18 21.912 L 120.81 21.912 C 122.427 21.912 123.876 22.567 124.93 23.619 C 125.982 24.683 126.637 26.147 126.637 27.751 L 126.634 27.751 L 126.634 27.751 L 126.634 27.751 L 126.634 27.751 Z  M 145.363 32.729 C 145.363 28.895 142.244 25.778 138.412 25.778 C 134.58 25.778 131.463 28.895 131.463 32.729 C 131.463 36.563 134.58 39.68 138.412 39.68 C 142.244 39.68 145.363 36.563 145.363 32.729 L 145.363 32.729 L 145.363 32.729 Z  M 149.212 32.729 C 149.212 38.695 144.377 43.529 138.412 43.529 C 132.446 43.529 127.614 38.695 127.614 32.729 C 127.614 26.764 132.448 21.929 138.412 21.929 C 144.375 21.929 149.212 26.764 149.212 32.729 L 149.212 32.729 L 149.212 32.729 Z " fill-rule="evenodd" fill="rgb(255,255,255)"/><mask id="_mask_IFE4JkGwbr1e66nCqTCOuFCedEqGMMso"><path d=" M 225.733 74.977 L 225.733 114.03 C 225.733 117.627 222.816 120.544 219.219 120.544 L 42.625 120.544 C 40.783 120.544 39.119 119.37 38.584 117.61 C 37.327 113.494 33.501 110.499 28.972 110.499 C 24.442 110.499 20.621 113.494 19.367 117.61 C 18.829 119.37 17.165 120.544 15.326 120.544 L 1.747 120.544 C 0.783 120.544 0 119.761 0 118.796 L 0 116.091 C 3.313 116.091 6.002 113.281 6.002 109.822 C 6.002 106.364 3.313 103.556 0 103.556 L 0 99.406 C 3.313 99.406 6.002 96.601 6.002 93.138 C 6.002 89.675 3.313 86.869 0 86.869 L 0 82.72 C 3.313 82.72 6.002 79.916 6.002 76.458 C 6.002 72.999 3.313 70.189 0 70.189 L 0 66.039 C 3.313 66.039 6.002 63.229 6.002 59.771 L 214.986 59.771 C 214.986 64.469 218.001 68.465 222.202 69.924 C 224.335 70.665 225.733 72.717 225.733 74.977 L 225.733 74.977 Z " fill="white" stroke="none"/></mask><path d=" M 225.733 74.977 L 225.733 114.03 C 225.733 117.627 222.816 120.544 219.219 120.544 L 42.625 120.544 C 40.783 120.544 39.119 119.37 38.584 117.61 C 37.327 113.494 33.501 110.499 28.972 110.499 C 24.442 110.499 20.621 113.494 19.367 117.61 C 18.829 119.37 17.165 120.544 15.326 120.544 L 1.747 120.544 C 0.783 120.544 0 119.761 0 118.796 L 0 116.091 C 3.313 116.091 6.002 113.281 6.002 109.822 C 6.002 106.364 3.313 103.556 0 103.556 L 0 99.406 C 3.313 99.406 6.002 96.601 6.002 93.138 C 6.002 89.675 3.313 86.869 0 86.869 L 0 82.72 C 3.313 82.72 6.002 79.916 6.002 76.458 C 6.002 72.999 3.313 70.189 0 70.189 L 0 66.039 C 3.313 66.039 6.002 63.229 6.002 59.771 L 214.986 59.771 C 214.986 64.469 218.001 68.465 222.202 69.924 C 224.335 70.665 225.733 72.717 225.733 74.977 L 225.733 74.977 Z " fill="rgb(255,255,255)"/><path d=" M 225.733 74.977 L 225.733 114.03 C 225.733 117.627 222.816 120.544 219.219 120.544 L 42.625 120.544 C 40.783 120.544 39.119 119.37 38.584 117.61 C 37.327 113.494 33.501 110.499 28.972 110.499 C 24.442 110.499 20.621 113.494 19.367 117.61 C 18.829 119.37 17.165 120.544 15.326 120.544 L 1.747 120.544 C 0.783 120.544 0 119.761 0 118.796 L 0 116.091 C 3.313 116.091 6.002 113.281 6.002 109.822 C 6.002 106.364 3.313 103.556 0 103.556 L 0 99.406 C 3.313 99.406 6.002 96.601 6.002 93.138 C 6.002 89.675 3.313 86.869 0 86.869 L 0 82.72 C 3.313 82.72 6.002 79.916 6.002 76.458 C 6.002 72.999 3.313 70.189 0 70.189 L 0 66.039 C 3.313 66.039 6.002 63.229 6.002 59.771 L 214.986 59.771 C 214.986 64.469 218.001 68.465 222.202 69.924 C 224.335 70.665 225.733 72.717 225.733 74.977 L 225.733 74.977 Z " fill="rgb(255,255,255)" mask="url(#_mask_IFE4JkGwbr1e66nCqTCOuFCedEqGMMso)" vector-effect="non-scaling-stroke" stroke-width="4" stroke="rgb(255,255,255)" stroke-linejoin="miter" stroke-linecap="square" stroke-miterlimit="3"/></g></svg>