<?xml version="1.0" encoding="UTF-8" standalone="no"?><!-- Generator: Gravit.io --><svg xmlns="http://www.w3.org/2000/svg" xmlns:xlink="http://www.w3.org/1999/xlink" style="isolation:isolate" viewBox="0 0 500 181.362" width="500pt" height="181.362pt"><defs><clipPath id="_clipPath_AN8ryJnNVY41xhPAH1d58u24LrjYOqKb"><rect width="500" height="181.362"/></clipPath></defs><g clip-path="url(#_clipPath_AN8ryJnNVY41xhPAH1d58u24LrjYOqKb)"><path d=" M 342 0 L 0 0 L 0 3.923 C 3.773 4.052 6.796 7.156 6.796 10.96 C 6.796 14.764 3.773 17.868 0 17.997 L 0 21.679 C 3.773 21.809 6.796 24.912 6.796 28.717 C 6.796 32.521 3.773 35.625 0 35.754 L 0 39.436 C 3.773 39.565 6.796 42.669 6.796 46.473 C 6.796 50.277 3.773 53.381 0 53.51 L 0 57.193 C 3.773 57.322 6.796 60.425 6.796 64.23 C 6.796 68.034 3.773 71.138 0 71.267 L 0 74.949 C 3.773 75.078 6.796 78.182 6.796 81.986 C 6.796 85.791 3.773 88.894 0 89.023 L 0 92.583 C 3.773 92.712 6.796 95.816 6.796 99.62 C 6.796 103.425 3.773 106.528 0 106.658 L 0 110.34 C 3.773 110.469 6.796 113.573 6.796 117.377 C 6.796 121.181 3.773 124.285 0 124.414 L 0 128.096 C 3.773 128.226 6.796 131.329 6.796 135.133 C 6.796 138.938 3.773 142.041 0 142.171 L 0 145.73 C 3.773 145.86 6.796 148.963 6.796 152.768 C 6.796 156.572 3.773 159.676 0 159.805 L 0 163.487 C 3.773 163.616 6.796 166.72 6.796 170.524 C 6.796 174.328 3.773 177.432 0 177.561 L 0 181.362 L 342 181.362 C 342 171.151 350.29 162.862 360.5 162.862 C 370.71 162.862 379 171.151 379 181.362 L 500 181.362 L 500 177.563 C 496.199 177.466 493.142 174.349 493.142 170.524 L 493.142 170.524 L 493.142 170.524 L 493.142 170.524 L 493.142 170.524 L 493.142 170.524 L 493.142 170.524 L 493.142 170.524 L 493.142 170.524 L 493.142 170.524 C 493.142 166.699 496.199 163.583 500 163.485 L 500 159.807 C 496.199 159.709 493.142 156.592 493.142 152.768 L 493.142 152.768 L 493.142 152.768 L 493.142 152.768 L 493.142 152.768 L 493.142 152.768 L 493.142 152.768 C 493.142 148.943 496.199 145.826 500 145.729 L 500 142.173 C 496.199 142.075 493.142 138.958 493.142 135.133 L 493.142 135.133 L 493.142 135.133 L 493.142 135.133 L 493.142 135.133 L 493.142 135.133 L 493.142 135.133 L 493.142 135.133 L 493.142 135.133 L 493.142 135.133 C 493.142 131.309 496.199 128.192 500 128.094 L 500 124.416 C 496.199 124.318 493.142 121.202 493.142 117.377 L 493.142 117.377 L 493.142 117.377 L 493.142 117.377 L 493.142 117.377 L 493.142 117.377 L 493.142 117.377 L 493.142 117.377 C 493.142 113.552 496.199 110.435 500 110.338 L 500 106.659 C 496.199 106.562 493.142 103.445 493.142 99.62 L 493.142 99.62 L 493.142 99.62 L 493.142 99.62 C 493.142 95.796 496.199 92.679 500 92.581 L 500 89.025 C 496.199 88.928 493.142 85.811 493.142 81.986 L 493.142 81.986 L 493.142 81.986 L 493.142 81.986 L 493.142 81.986 L 493.142 81.986 L 493.142 81.986 L 493.142 81.986 L 493.142 81.986 C 493.142 78.161 496.199 75.045 500 74.947 L 500 71.269 C 496.199 71.171 493.142 68.055 493.142 64.23 L 493.142 64.23 L 493.142 64.23 L 493.142 64.23 L 493.142 64.23 L 493.142 64.23 C 493.142 60.405 496.199 57.288 500 57.191 L 500 53.512 C 496.199 53.415 493.142 50.298 493.142 46.473 L 493.142 46.473 L 493.142 46.473 C 493.142 42.648 496.199 39.532 500 39.434 L 500 35.756 C 496.199 35.658 493.142 32.541 493.142 28.717 L 493.142 28.717 L 493.142 28.717 L 493.142 28.717 L 493.142 28.717 C 493.142 24.892 496.199 21.775 500 21.678 L 500 17.999 C 496.199 17.902 493.142 14.785 493.142 10.96 L 493.142 10.96 C 493.142 7.135 496.199 4.019 500 3.921 L 500 0 L 379 0 L 379 0 C 379 10.21 370.71 18.5 360.5 18.5 C 350.29 18.5 342 10.21 342 0 L 342 0 L 342 0 Z " fill="rgb(255,102,0)"/><path d=" M 336.234 5 L 12 5 L 12 176 L 336.234 176 L 336.234 174 L 14 174 L 14 7 L 336.234 7 L 336.234 5 Z  M 391.25 174 L 392 174 L 488 174 L 488 7 L 392 7 L 391.25 7 L 385 7 Q 383.848 12.813 381 17 Q 378.152 21.187 370 26 L 370 38.125 L 370 41 L 370 155 Q 378.152 159.813 381 164 Q 383.848 168.187 385 174 L 391.25 174 L 391.25 174 Z  M 392 176 L 490 176 L 490 5 L 392 5 L 392 5 L 391.25 5 L 384 5 Q 381.842 13.354 379 17 Q 376.158 20.646 368 25 L 368 38.125 L 368 41 L 368 156 Q 376.158 160.354 379 164 Q 381.842 167.646 384 176 L 391.25 176 L 392 176 L 392 176 L 392 176 Z " fill-rule="evenodd" fill="rgb(255,255,255)"/><path d=" M 451.59 25.944 L 451.59 25.944 L 451.59 25.944 Q 451.59 30.655 456.301 32.466 L 456.301 32.466 L 454.596 36.983 L 454.596 36.983 Q 451.01 35.524 449.261 32.703 L 449.261 32.703 L 449.261 32.703 Q 447.512 29.882 447.512 25.944 L 447.512 25.944 L 447.512 25.944 Q 447.512 21.972 449.032 19.177 L 449.032 19.177 L 449.032 19.177 Q 450.553 16.382 453.436 14.914 L 453.436 14.914 L 453.436 14.914 Q 456.318 13.446 460.361 13.446 L 460.361 13.446 L 460.361 13.446 Q 464.439 13.446 467.252 14.853 L 467.252 14.853 L 467.252 14.853 Q 470.064 16.259 471.532 19.001 L 471.532 19.001 L 471.532 19.001 Q 473 21.743 473 25.716 L 473 25.716 L 473 25.716 Q 473 30.075 471.251 32.817 L 471.251 32.817 L 471.251 32.817 Q 469.502 35.56 466.109 36.667 L 466.109 36.667 L 464.861 32.097 L 464.861 32.097 Q 466.725 31.517 467.823 29.82 L 467.823 29.82 L 467.823 29.82 Q 468.922 28.124 468.922 25.821 L 468.922 25.821 L 468.922 25.821 Q 468.922 22.306 466.742 20.486 L 466.742 20.486 L 466.742 20.486 Q 464.563 18.667 460.361 18.667 L 460.361 18.667 L 460.361 18.667 Q 457.514 18.667 455.563 19.502 L 455.563 19.502 L 455.563 19.502 Q 453.611 20.337 452.601 21.963 L 452.601 21.963 L 452.601 21.963 Q 451.59 23.589 451.59 25.944 Z  M 460.361 64.458 L 460.361 64.458 L 460.361 64.458 Q 456.494 64.458 453.603 62.902 L 453.603 62.902 L 453.603 62.902 Q 450.711 61.347 449.111 58.525 L 449.111 58.525 L 449.111 58.525 Q 447.512 55.704 447.512 51.907 L 447.512 51.907 L 447.512 51.907 Q 447.512 48.022 449.067 45.228 L 449.067 45.228 L 449.067 45.228 Q 450.623 42.433 453.506 40.938 L 453.506 40.938 L 453.506 40.938 Q 456.389 39.444 460.361 39.444 L 460.361 39.444 L 460.361 39.444 Q 464.334 39.444 467.164 40.93 L 467.164 40.93 L 467.164 40.93 Q 469.994 42.415 471.497 45.219 L 471.497 45.219 L 471.497 45.219 Q 473 48.022 473 51.942 L 473 51.942 L 473 51.942 Q 473 55.88 471.479 58.675 L 471.479 58.675 L 471.479 58.675 Q 469.959 61.47 467.129 62.964 L 467.129 62.964 L 467.129 62.964 Q 464.299 64.458 460.361 64.458 Z  M 460.361 59.167 L 460.361 59.167 L 460.361 59.167 Q 464.369 59.167 466.646 57.269 L 466.646 57.269 L 466.646 57.269 Q 468.922 55.37 468.922 51.942 L 468.922 51.942 L 468.922 51.942 Q 468.922 48.462 466.663 46.563 L 466.663 46.563 L 466.663 46.563 Q 464.404 44.665 460.361 44.665 L 460.361 44.665 L 460.361 44.665 Q 457.654 44.665 455.686 45.544 L 455.686 45.544 L 455.686 45.544 Q 453.717 46.423 452.653 48.049 L 452.653 48.049 L 452.653 48.049 Q 451.59 49.675 451.59 51.907 L 451.59 51.907 L 451.59 51.907 Q 451.59 55.388 453.875 57.277 L 453.875 57.277 L 453.875 57.277 Q 456.16 59.167 460.361 59.167 Z  M 447.512 78.679 L 447.512 78.679 L 447.512 78.679 Q 447.512 75.269 448.628 72.913 L 448.628 72.913 L 448.628 72.913 Q 449.744 70.558 451.897 69.345 L 451.897 69.345 L 451.897 69.345 Q 454.051 68.132 457.145 68.132 L 457.145 68.132 L 472.631 68.132 L 472.631 73.317 L 457.549 73.317 L 457.549 73.317 Q 454.613 73.317 453.093 74.715 L 453.093 74.715 L 453.093 74.715 Q 451.572 76.112 451.572 78.819 L 451.572 78.819 L 451.572 78.819 Q 451.572 81.597 453.163 83.091 L 453.163 83.091 L 453.163 83.091 Q 454.754 84.585 457.725 84.585 L 457.725 84.585 L 472.631 84.585 L 472.631 89.771 L 457.408 89.771 L 457.408 89.771 Q 454.279 89.771 452.064 88.461 L 452.064 88.461 L 452.064 88.461 Q 449.85 87.151 448.681 84.673 L 448.681 84.673 L 448.681 84.673 Q 447.512 82.194 447.512 78.679 Z  M 464.791 114.749 L 464.791 114.749 L 464.791 114.749 Q 462.383 114.749 460.528 113.65 L 460.528 113.65 L 460.528 113.65 Q 458.674 112.552 457.628 110.53 L 457.628 110.53 L 457.628 110.53 Q 456.582 108.509 456.582 105.714 L 456.582 105.714 L 456.582 99.562 L 447.863 99.562 L 447.863 94.376 L 472.631 94.376 L 472.631 105.503 L 472.631 105.503 Q 472.631 109.95 470.583 112.35 L 470.583 112.35 L 470.583 112.35 Q 468.535 114.749 464.791 114.749 Z  M 464.703 109.528 L 464.703 109.528 L 464.703 109.528 Q 468.605 109.528 468.605 104.923 L 468.605 104.923 L 468.605 99.562 L 460.572 99.562 L 460.572 105.063 L 460.572 105.063 Q 460.572 107.208 461.636 108.368 L 461.636 108.368 L 461.636 108.368 Q 462.699 109.528 464.703 109.528 Z  M 460.361 142.47 L 460.361 142.47 L 460.361 142.47 Q 456.494 142.47 453.603 140.914 L 453.603 140.914 L 453.603 140.914 Q 450.711 139.358 449.111 136.537 L 449.111 136.537 L 449.111 136.537 Q 447.512 133.716 447.512 129.919 L 447.512 129.919 L 447.512 129.919 Q 447.512 126.034 449.067 123.239 L 449.067 123.239 L 449.067 123.239 Q 450.623 120.444 453.506 118.95 L 453.506 118.95 L 453.506 118.95 Q 456.389 117.456 460.361 117.456 L 460.361 117.456 L 460.361 117.456 Q 464.334 117.456 467.164 118.941 L 467.164 118.941 L 467.164 118.941 Q 469.994 120.427 471.497 123.23 L 471.497 123.23 L 471.497 123.23 Q 473 126.034 473 129.954 L 473 129.954 L 473 129.954 Q 473 133.892 471.479 136.687 L 471.479 136.687 L 471.479 136.687 Q 469.959 139.481 467.129 140.976 L 467.129 140.976 L 467.129 140.976 Q 464.299 142.47 460.361 142.47 Z  M 460.361 137.179 L 460.361 137.179 L 460.361 137.179 Q 464.369 137.179 466.646 135.28 L 466.646 135.28 L 466.646 135.28 Q 468.922 133.382 468.922 129.954 L 468.922 129.954 L 468.922 129.954 Q 468.922 126.474 466.663 124.575 L 466.663 124.575 L 466.663 124.575 Q 464.404 122.677 460.361 122.677 L 460.361 122.677 L 460.361 122.677 Q 457.654 122.677 455.686 123.556 L 455.686 123.556 L 455.686 123.556 Q 453.717 124.435 452.653 126.061 L 452.653 126.061 L 452.653 126.061 Q 451.59 127.687 451.59 129.919 L 451.59 129.919 L 451.59 129.919 Q 451.59 133.399 453.875 135.289 L 453.875 135.289 L 453.875 135.289 Q 456.16 137.179 460.361 137.179 Z  M 462.471 150.995 L 462.471 150.995 L 447.863 150.995 L 447.863 146.39 L 472.631 146.39 L 472.631 152.313 L 453.4 163.265 L 453.4 163.265 Q 456.072 162.948 458.234 162.948 L 458.234 162.948 L 472.631 162.948 L 472.631 167.554 L 447.863 167.554 L 447.863 161.472 L 466.936 150.679 L 466.936 150.679 Q 465.547 150.837 464.431 150.916 L 464.431 150.916 L 464.431 150.916 Q 463.314 150.995 462.471 150.995 Z " fill="rgb(255,255,255)"/></g></svg>