<?xml version="1.0" encoding="UTF-8" standalone="no"?><!-- Generator: Gravit.io --><svg xmlns="http://www.w3.org/2000/svg" xmlns:xlink="http://www.w3.org/1999/xlink" style="isolation:isolate" viewBox="0 0 20 20" width="20pt" height="20pt"><defs><clipPath id="_clipPath_OYdTpqzlLEAN1GuXepmMe3R3LfI0PoEt"><rect width="20" height="20"/></clipPath></defs><g clip-path="url(#_clipPath_OYdTpqzlLEAN1GuXepmMe3R3LfI0PoEt)"><clipPath id="_clipPath_0B4SJ9IFQVHPQcASx2XxB12336BnNRKC"><rect x="1.654" y="1.811" width="16.692" height="16.377" transform="matrix(1,0,0,1,0,0)" fill="rgb(255,255,255)"/></clipPath><g clip-path="url(#_clipPath_0B4SJ9IFQVHPQcASx2XxB12336BnNRKC)"><g><path d=" M 6.45 15.2 C 7.091 15.208 7.606 15.732 7.601 16.374 C 7.597 17.015 7.075 17.533 6.433 17.531 C 5.792 17.529 5.272 17.01 5.271 16.368 C 5.272 16.057 5.396 15.759 5.618 15.54 C 5.839 15.32 6.138 15.198 6.45 15.2 L 6.45 15.2 Z  M 15.176 15.2 C 15.817 15.208 16.332 15.733 16.327 16.374 C 16.323 17.015 15.801 17.533 15.159 17.531 C 14.518 17.529 13.998 17.01 13.997 16.368 C 13.998 16.057 14.123 15.759 14.344 15.539 C 14.565 15.32 14.864 15.198 15.176 15.2 L 15.176 15.2 Z  M 2.842 2.472 L 2.921 2.478 L 4.771 2.755 C 5.03 2.8 5.228 3.014 5.252 3.276 L 5.252 3.276 L 5.399 4.997 C 5.421 5.242 5.626 5.429 5.871 5.428 L 16.347 5.428 C 16.773 5.414 17.18 5.605 17.441 5.943 C 17.727 6.319 17.835 6.801 17.736 7.263 L 17.736 7.263 L 16.999 12.303 C 16.854 13.273 16.018 13.99 15.036 13.985 L 6.574 13.985 C 5.55 13.99 4.693 13.208 4.604 12.188 L 4.604 12.188 L 3.89 3.814 L 2.719 3.615 C 2.407 3.56 2.197 3.266 2.247 2.953 C 2.306 2.639 2.604 2.429 2.921 2.478 L 2.842 2.472 Z  M 13.796 8.27 L 11.647 8.27 C 11.438 8.265 11.242 8.374 11.137 8.554 C 11.031 8.735 11.031 8.958 11.137 9.139 C 11.242 9.319 11.438 9.428 11.647 9.423 L 13.796 9.423 C 14.005 9.428 14.2 9.319 14.306 9.139 C 14.412 8.958 14.412 8.735 14.306 8.554 C 14.2 8.374 14.005 8.265 13.796 8.27 Z " fill="none" vector-effect="non-scaling-stroke" stroke-width="0.943" stroke="rgb(255,255,255)" stroke-linejoin="miter" stroke-linecap="butt" stroke-miterlimit="4"/></g></g></g></svg>