<?xml version="1.0" encoding="UTF-8" standalone="no"?><!-- Generator: Gravit.io --><svg xmlns="http://www.w3.org/2000/svg" xmlns:xlink="http://www.w3.org/1999/xlink" style="isolation:isolate" viewBox="0 0 20 20" width="20pt" height="20pt"><defs><clipPath id="_clipPath_iZWo1fEt39mVhryh8wWNtOmrhcU8h0IQ"><rect width="20" height="20"/></clipPath></defs><g clip-path="url(#_clipPath_iZWo1fEt39mVhryh8wWNtOmrhcU8h0IQ)"><clipPath id="_clipPath_J10gJNodYhIX0A3S5OKcmcKJXyPUP8Df"><rect x="1.653" y="1.81" width="16.695" height="16.38" transform="matrix(1,0,0,1,0,0)" fill="rgb(255,255,255)"/></clipPath><g clip-path="url(#_clipPath_J10gJNodYhIX0A3S5OKcmcKJXyPUP8Df)"><g><path d=" M 6.182 15.592 C 6.871 15.601 7.423 16.164 7.418 16.853 C 7.412 17.542 6.852 18.097 6.163 18.095 C 5.474 18.094 4.916 17.536 4.914 16.847 C 4.915 16.513 5.05 16.192 5.288 15.956 C 5.525 15.721 5.847 15.59 6.182 15.592 L 6.182 15.592 Z  M 15.565 15.592 C 16.254 15.601 16.806 16.164 16.801 16.853 C 16.796 17.542 16.235 18.097 15.546 18.095 C 14.858 18.094 14.3 17.536 14.297 16.847 C 14.299 16.513 14.433 16.192 14.671 15.956 C 14.909 15.721 15.231 15.59 15.565 15.592 L 15.565 15.592 Z  M 2.302 1.904 L 2.387 1.911 L 4.376 2.208 C 4.656 2.256 4.868 2.487 4.893 2.77 L 4.893 2.77 L 5.051 4.62 C 5.074 4.884 5.295 5.085 5.56 5.084 L 16.824 5.084 C 17.282 5.068 17.72 5.274 18 5.637 C 18.308 6.042 18.424 6.56 18.317 7.057 L 18.317 7.057 L 17.525 12.475 C 17.369 13.519 16.47 14.29 15.414 14.285 L 6.314 14.285 C 5.213 14.289 4.292 13.449 4.196 12.352 L 4.196 12.352 L 3.43 3.348 L 2.17 3.133 C 1.835 3.075 1.608 2.759 1.661 2.423 C 1.725 2.084 2.046 1.857 2.387 1.911 L 2.302 1.904 Z  M 14.081 8.141 L 11.77 8.141 C 11.428 8.141 11.151 8.419 11.151 8.761 C 11.151 9.103 11.428 9.38 11.77 9.38 L 14.081 9.38 C 14.423 9.38 14.7 9.103 14.7 8.761 C 14.7 8.419 14.423 8.141 14.081 8.141 Z " fill="rgb(255,255,255)"/></g></g></g></svg>