<?xml version="1.0" encoding="UTF-8" standalone="no"?><!-- Generator: Gravit.io --><svg xmlns="http://www.w3.org/2000/svg" xmlns:xlink="http://www.w3.org/1999/xlink" style="isolation:isolate" viewBox="0 0 27 27" width="27pt" height="27pt"><defs><clipPath id="_clipPath_WA5lRkthvy3WOSmKA1KOviSlH50pWC9s"><rect width="27" height="27"/></clipPath></defs><g clip-path="url(#_clipPath_WA5lRkthvy3WOSmKA1KOviSlH50pWC9s)"><g><g><g><g opacity="0.4"><path d=" M 17.729 3 L 21.312 3 C 22.028 3.003 22.713 3.29 23.217 3.798 C 23.721 4.306 24.003 4.993 24 5.709 L 24 9.321 C 24.004 10.037 23.722 10.725 23.218 11.234 C 22.714 11.743 22.028 12.03 21.312 12.033 L 17.729 12.033 C 17.014 12.03 16.328 11.743 15.824 11.235 C 15.32 10.727 15.038 10.039 15.041 9.324 L 15.041 5.712 C 15.038 4.995 15.319 4.307 15.823 3.799 C 16.328 3.29 17.013 3.003 17.729 3" fill="none" vector-effect="non-scaling-stroke" stroke-width="1" stroke="rgb(109,109,109)" stroke-linejoin="miter" stroke-linecap="butt" stroke-miterlimit="4"/></g><path d=" M 9.221 15.039 C 9.931 15.042 10.611 15.327 11.111 15.831 C 11.61 16.335 11.889 17.017 11.886 17.727 L 11.886 21.312 C 11.892 22.79 10.699 23.994 9.221 24 L 5.665 24 C 4.187 23.994 2.994 22.79 3 21.312 L 3 17.727 C 2.997 17.017 3.276 16.335 3.776 15.831 C 4.276 15.327 4.955 15.042 5.665 15.039 L 9.221 15.039 Z  M 21.335 15.039 C 22.045 15.042 22.724 15.327 23.224 15.831 C 23.724 16.335 24.003 17.017 24 17.727 L 24 21.312 C 24.006 22.79 22.813 23.994 21.335 24 L 17.779 24 C 16.301 23.994 15.108 22.79 15.114 21.312 L 15.114 17.727 C 15.111 17.017 15.39 16.335 15.889 15.831 C 16.389 15.327 17.069 15.042 17.779 15.039 L 21.335 15.039 Z  M 9.221 3 C 9.931 3.003 10.611 3.288 11.111 3.792 C 11.61 4.296 11.889 4.978 11.886 5.688 L 11.886 9.273 C 11.889 9.983 11.61 10.665 11.111 11.169 C 10.611 11.673 9.931 11.958 9.221 11.961 L 5.665 11.961 C 4.955 11.958 4.276 11.673 3.776 11.169 C 3.276 10.665 2.997 9.983 3 9.273 L 3 5.688 C 2.997 4.978 3.276 4.296 3.776 3.792 C 4.276 3.288 4.955 3.003 5.665 3 L 9.221 3 Z " fill="none" vector-effect="non-scaling-stroke" stroke-width="1" stroke="rgb(109,109,109)" stroke-linejoin="miter" stroke-linecap="butt" stroke-miterlimit="4"/></g></g></g></g></svg>