<?xml version="1.0" encoding="UTF-8" standalone="no"?><!-- Generator: Gravit.io --><svg xmlns="http://www.w3.org/2000/svg" xmlns:xlink="http://www.w3.org/1999/xlink" style="isolation:isolate" viewBox="0 0 20 20" width="20pt" height="20pt"><defs><clipPath id="_clipPath_kiNadvQEiKDPo2vniDeeAgpf6cN5ITJN"><rect width="20" height="20"/></clipPath></defs><g clip-path="url(#_clipPath_kiNadvQEiKDPo2vniDeeAgpf6cN5ITJN)"><path d=" M 7.594 14.572 C 7.613 13.931 8.145 13.425 8.786 13.44 L 11.206 13.44 C 11.85 13.421 12.387 13.927 12.406 14.57 L 12.406 14.57 L 12.406 17.017 C 12.422 17.573 12.884 18.012 13.44 18 L 15.091 18 C 15.854 18.005 16.59 17.719 17.149 17.2 C 17.688 16.699 17.996 15.998 18 15.262 L 18 8.293 C 17.995 7.697 17.717 7.137 17.246 6.773 L 11.636 2.539 C 10.641 1.799 9.272 1.822 8.303 2.596 L 2.814 6.771 C 2.321 7.124 2.02 7.686 2 8.293 L 2 15.253 C 2.046 16.815 3.348 18.044 4.91 18 L 6.524 18 C 6.796 18.003 7.059 17.902 7.259 17.717 C 7.453 17.539 7.563 17.288 7.565 17.026 L 7.594 14.572 Z " fill="none" vector-effect="non-scaling-stroke" stroke-width="0.909" stroke="rgb(109,109,109)" stroke-linejoin="miter" stroke-linecap="butt" stroke-miterlimit="4"/></g></svg>