<?xml version="1.0" encoding="UTF-8" standalone="no"?><!-- Generator: Gravit.io --><svg xmlns="http://www.w3.org/2000/svg" xmlns:xlink="http://www.w3.org/1999/xlink" style="isolation:isolate" viewBox="0 0 20 20" width="20pt" height="20pt"><defs><clipPath id="_clipPath_nhKYb0y3LhUzpjDwPpP2JCZjysV4CANq"><rect width="20" height="20"/></clipPath></defs><g clip-path="url(#_clipPath_nhKYb0y3LhUzpjDwPpP2JCZjysV4CANq)"><path d=" M 11.414 9.578 C 11.575 9.671 11.674 9.842 11.674 10.028 C 11.674 10.214 11.575 10.385 11.414 10.478 L 10.545 10.978 L 9.676 11.478 C 9.516 11.569 9.319 11.569 9.16 11.477 C 9 11.384 8.902 11.214 8.901 11.03 L 8.901 9.02 C 8.902 8.836 9 8.666 9.16 8.573 C 9.319 8.481 9.516 8.481 9.676 8.572 L 10.545 9.072 L 11.414 9.578 Z " fill="none" vector-effect="non-scaling-stroke" stroke-width="1" stroke="rgb(153,204,0)" stroke-opacity="100" stroke-linejoin="miter" stroke-linecap="butt" stroke-miterlimit="4"/><path d=" M 16.403 3.31 C 18.304 5.031 19.385 7.477 19.379 10.04 C 19.373 12.604 18.28 15.045 16.372 16.757" fill="none" vector-effect="non-scaling-stroke" stroke-width="1" stroke="rgb(153,204,0)" stroke-opacity="100" stroke-linejoin="miter" stroke-linecap="round" stroke-miterlimit="10"/><path d=" M 3.652 16.776 C 1.718 15.052 0.615 12.583 0.622 9.992 C 0.628 7.401 1.744 4.938 3.687 3.224" fill="none" vector-effect="non-scaling-stroke" stroke-width="1" stroke="rgb(153,204,0)" stroke-opacity="100" stroke-linejoin="miter" stroke-linecap="round" stroke-miterlimit="10"/><path d=" M 13.364 6.204 C 14.491 7.151 15.142 8.547 15.142 10.019 C 15.142 11.492 14.491 12.888 13.364 13.835" fill="none" vector-effect="non-scaling-stroke" stroke-width="1" stroke="rgb(153,204,0)" stroke-opacity="100" stroke-linejoin="miter" stroke-linecap="round" stroke-miterlimit="10"/><path d=" M 6.695 13.886 C 5.533 12.941 4.858 11.523 4.856 10.025 C 4.855 8.528 5.527 7.109 6.687 6.161" fill="none" vector-effect="non-scaling-stroke" stroke-width="1" stroke="rgb(153,204,0)" stroke-opacity="100" stroke-linejoin="miter" stroke-linecap="round" stroke-miterlimit="10"/></g></svg>