<?xml version="1.0" encoding="UTF-8"?>
<svg width="108" height="108" version="1.1" viewBox="0 0 107.99988 107.99988" xml:space="preserve" xmlns="http://www.w3.org/2000/svg" xmlns:cc="http://creativecommons.org/ns#" xmlns:dc="http://purl.org/dc/elements/1.1/" xmlns:rdf="http://www.w3.org/1999/02/22-rdf-syntax-ns#"><metadata><rdf:RDF><cc:Work rdf:about=""><dc:format>image/svg+xml</dc:format><dc:type rdf:resource="http://purl.org/dc/dcmitype/StillImage"/><dc:title/></cc:Work></rdf:RDF></metadata><defs><clipPath id="k"><path d="m0 86.4h86.4v-86.4h-86.4v86.4z"/></clipPath><clipPath id="j"><path d="m-4.4282 86.4h95.448v-86.423h-95.448v86.423z"/></clipPath><clipPath id="i"><path d="m86.4-0.017h-86.4v86.417h86.4v-86.417z" clip-rule="evenodd"/></clipPath><clipPath id="h"><path d="m20.517 23.526h25.14v-23.549h-25.14v23.549z"/></clipPath><clipPath id="g"><path d="m-4.4282 41.487h31.493v-35.534h-31.493v35.534z"/></clipPath><clipPath id="f"><path d="m40.987 35.583h7.3393v-35.473h-7.3393v35.473z"/></clipPath><clipPath id="e"><path d="m46.241 21.932h34.029v-21.955h-34.029v21.955z"/></clipPath><clipPath id="d"><path d="m46.844 60.323h31.21v-58.033h-31.21v58.033z"/></clipPath><clipPath id="c"><path d="m19.535 74.806h15.84v-69.93h-15.84v69.93z"/></clipPath><clipPath id="b"><path d="m68.432 51.766h22.588v-51.789h-22.588v51.789z"/></clipPath><clipPath id="a"><path d="m13.966 68.126h9.6734v-57.022h-9.6734v57.022z"/></clipPath></defs><g transform="matrix(1.25 0 0 -1.25 0 108)"><path d="m0 0h86.4v86.4h-86.4v-86.4z" fill="#f7f7f8"/><g clip-path="url(#k)"><g clip-path="url(#j)" opacity=".7"><g clip-path="url(#i)"><g clip-path="url(#h)" opacity=".25"><g transform="translate(45.372 -.023)"><path d="m0 0h-24.569c-0.158 0-0.286 0.128-0.286 0.286 0 0.157 0.128 0.285 0.286 0.285h24.569c0.158 0 0.286-0.128 0.286-0.285 0-0.158-0.128-0.286-0.286-0.286" fill="#030303"/></g><g transform="translate(37.444 9.6824)"><path d="m0 0h-8.713c-0.158 0-0.286 0.128-0.286 0.286 0 0.157 0.128 0.285 0.286 0.285h8.713c0.158 0 0.286-0.128 0.286-0.285 0-0.158-0.128-0.286-0.286-0.286" fill="#030303"/></g><g transform="translate(37.949 12.952)"><path d="m0 0h-9.723c-0.158 0-0.285 0.128-0.285 0.286 0 0.157 0.127 0.285 0.285 0.285h9.723c0.158 0 0.286-0.128 0.286-0.285 0-0.158-0.128-0.286-0.286-0.286" fill="#030303"/></g><g transform="translate(33.085 20.499)"><path d="m0 0c-0.158 0-0.286 0.128-0.286 0.286v2.456c0 0.158 0.128 0.285 0.286 0.285s0.286-0.127 0.286-0.285v-2.456c0-0.158-0.128-0.286-0.286-0.286" fill="#030303"/></g><g fill="#030303"><path d="m22.54 0.548h21.093v8.142h-21.093v-8.142zm21.665-0.571h-22.236v9.285h22.236v-9.285z"/><path d="m29.016 0.548h8.142v11.142h-8.142v-11.142zm8.713-0.571h-9.285v12.284h9.285v-12.284z"/><path d="m29.974 0.548h6.227v11.142h-6.227v-11.142zm6.798-0.571h-7.37v12.284h7.37v-12.284z"/></g><g transform="translate(31.132 .5482)"><path d="m0 0h3.91v4.583c0 0.577-0.817 1.449-1.96 2.108-1.155-0.618-1.95-1.472-1.95-2.108v-4.583zm4.481-0.571h-5.052v5.154c0 1.086 1.291 2.126 2.397 2.687l0.134 0.068 0.133-0.072c1.101-0.606 2.388-1.671 2.388-2.683v-5.154z" fill="#030303"/></g><g transform="translate(25.938 .5482)"><path d="m0 0h1.516v1.919c0 0.165-0.288 0.495-0.763 0.776-0.49-0.271-0.753-0.594-0.753-0.776v-1.919zm2.088-0.571h-2.659v2.49c0 0.563 0.621 1.07 1.203 1.357l0.131 0.064 0.129-0.068c0.2-0.107 1.196-0.672 1.196-1.353v-2.49z" fill="#030303"/></g><g transform="translate(25.938 4.7672)"><path d="m0 0h1.516v1.919c0 0.164-0.288 0.495-0.763 0.776-0.49-0.271-0.753-0.594-0.753-0.776v-1.919zm2.088-0.571h-2.659v2.49c0 0.563 0.621 1.07 1.203 1.357l0.131 0.065 0.13-0.07c0.577-0.308 1.195-0.825 1.195-1.352v-2.49z" fill="#030303"/></g><g transform="translate(23.478 .5482)"><path d="m0 0h0.816v1.898c0 0.188-0.169 0.473-0.414 0.715-0.243-0.229-0.402-0.504-0.402-0.715v-1.898zm1.387-0.571h-1.958v2.469c0 0.536 0.436 1.047 0.81 1.322l0.176 0.129 0.171-0.136c0.37-0.294 0.801-0.815 0.801-1.315v-2.469z" fill="#030303"/></g><g transform="translate(23.478 4.7672)"><path d="m0 0h0.816v1.898c0 0.188-0.169 0.472-0.414 0.715-0.243-0.23-0.402-0.504-0.402-0.715v-1.898zm1.387-0.571h-1.958v2.469c0 0.536 0.436 1.047 0.81 1.322l0.176 0.129 0.171-0.136c0.37-0.294 0.801-0.815 0.801-1.315v-2.469z" fill="#030303"/></g><g transform="translate(38.717 .5482)"><path d="m0 0h1.516v1.919c0 0.182-0.263 0.505-0.753 0.776-0.475-0.281-0.763-0.611-0.763-0.776v-1.919zm2.088-0.571h-2.659v2.49c0 0.681 0.995 1.246 1.195 1.353l0.129 0.069 0.131-0.065c0.582-0.287 1.204-0.794 1.204-1.357v-2.49z" fill="#030303"/></g><g transform="translate(38.717 4.7672)"><path d="m0 0h1.516v1.919c0 0.182-0.263 0.505-0.753 0.776-0.475-0.281-0.763-0.612-0.763-0.776v-1.919zm2.088-0.571h-2.659v2.49c0 0.527 0.617 1.044 1.195 1.352l0.129 0.07 0.131-0.065c0.582-0.287 1.204-0.794 1.204-1.357v-2.49z" fill="#030303"/></g><g transform="translate(41.877 .5482)"><path d="m0 0h0.816v1.898c0 0.211-0.158 0.486-0.402 0.715-0.245-0.242-0.414-0.527-0.414-0.715v-1.898zm1.387-0.571h-1.958v2.469c0 0.5 0.432 1.021 0.801 1.315l0.171 0.136 0.176-0.129c0.374-0.275 0.81-0.786 0.81-1.322v-2.469z" fill="#030303"/></g><g transform="translate(41.877 4.7672)"><path d="m0 0h0.816v1.898c0 0.211-0.158 0.485-0.402 0.715-0.245-0.242-0.414-0.527-0.414-0.715v-1.898zm1.387-0.571h-1.958v2.469c0 0.5 0.432 1.021 0.801 1.315l0.171 0.136 0.176-0.129c0.374-0.275 0.81-0.786 0.81-1.322v-2.469z" fill="#030303"/></g><g transform="translate(28.86 12.261)"><path d="m0 0h8.437c0.364 0.708 0.549 1.471 0.549 2.269 0 1.764-1.448 3.302-2.827 4.173h-3.879c-1.375-0.873-2.817-2.412-2.817-4.173 0-0.791 0.185-1.572 0.537-2.269m8.777-0.571h-9.118l-0.082 0.148c-0.448 0.817-0.686 1.748-0.686 2.692 0 2.025 1.631 3.756 3.157 4.701l0.069 0.043h4.205l0.068-0.042c1.531-0.944 3.167-2.674 3.167-4.702 0-0.952-0.235-1.858-0.699-2.693l-0.081-0.147z" fill="#030303"/></g><g transform="translate(31.815 19.261)"><path d="m0 0h2.512l-1.244 1.116-1.268-1.116zm4.003-0.571h-5.516l2.784 2.452 2.732-2.452z" fill="#030303"/></g><g transform="translate(27.891 10.595)"><path d="m0 0h-5.305c-0.158 0-0.286 0.128-0.286 0.286 0 0.157 0.128 0.285 0.286 0.285h5.305c0.158 0 0.286-0.128 0.286-0.285 0-0.158-0.128-0.286-0.286-0.286" fill="#030303"/></g><g transform="translate(27.065 11.369)"><path d="m0 0h-3.653c-0.157 0-0.285 0.128-0.285 0.286 0 0.157 0.128 0.285 0.285 0.285h3.653c0.158 0 0.286-0.128 0.286-0.285 0-0.158-0.128-0.286-0.286-0.286" fill="#030303"/></g><g transform="translate(25.239 12.69)"><path d="m0 0c-0.158 0-0.286 0.128-0.286 0.286v0.749c0 0.158 0.128 0.286 0.286 0.286s0.286-0.128 0.286-0.286v-0.749c0-0.158-0.128-0.286-0.286-0.286" fill="#030303"/></g><g transform="translate(24.221,8.7381)"><path d="m0 0c-0.158 0-0.286 0.128-0.286 0.286v0.944c0 0.158 0.128 0.286 0.286 0.286s0.286-0.128 0.286-0.286v-0.944c0-0.158-0.128-0.286-0.286-0.286" fill="#030303"/></g><g transform="translate(25.239 8.7381)"><path d="m0 0c-0.158 0-0.286 0.128-0.286 0.286v0.944c0 0.158 0.128 0.286 0.286 0.286s0.286-0.128 0.286-0.286v-0.944c0-0.158-0.128-0.286-0.286-0.286" fill="#030303"/></g><g transform="translate(26.257 8.7381)"><path d="m0 0c-0.158 0-0.286 0.128-0.286 0.286v0.944c0 0.158 0.128 0.286 0.286 0.286s0.286-0.128 0.286-0.286v-0.944c0-0.158-0.128-0.286-0.286-0.286" fill="#030303"/></g><g transform="translate(27.357 8.8829)"><path d="m0 0c-0.158 0-0.286 0.128-0.286 0.286v1.599c0 1.01-0.822 1.832-1.832 1.832s-1.833-0.822-1.833-1.832v-1.599c0-0.158-0.127-0.286-0.285-0.286s-0.286 0.128-0.286 0.286v1.599c0 1.325 1.079 2.404 2.404 2.404s2.404-1.079 2.404-2.404v-1.599c0-0.158-0.128-0.286-0.286-0.286" fill="#030303"/></g><g transform="translate(43.548 10.595)"><path d="m0 0h-5.305c-0.158 0-0.286 0.128-0.286 0.286 0 0.157 0.128 0.285 0.286 0.285h5.305c0.158 0 0.286-0.128 0.286-0.285 0-0.158-0.128-0.286-0.286-0.286" fill="#030303"/></g><g transform="translate(42.722 11.369)"><path d="m0 0h-3.653c-0.158 0-0.285 0.128-0.285 0.286 0 0.157 0.127 0.285 0.285 0.285h3.653c0.158 0 0.286-0.128 0.286-0.285 0-0.158-0.128-0.286-0.286-0.286" fill="#030303"/></g><g transform="translate(40.896 12.69)"><path d="m0 0c-0.158 0-0.286 0.128-0.286 0.286v0.749c0 0.158 0.128 0.286 0.286 0.286s0.286-0.128 0.286-0.286v-0.749c0-0.158-0.128-0.286-0.286-0.286" fill="#030303"/></g><g transform="translate(39.878 8.7381)"><path d="m0 0c-0.158 0-0.286 0.128-0.286 0.286v0.944c0 0.158 0.128 0.286 0.286 0.286s0.286-0.128 0.286-0.286v-0.944c0-0.158-0.128-0.286-0.286-0.286" fill="#030303"/></g><g transform="translate(40.896 8.7381)"><path d="m0 0c-0.158 0-0.286 0.128-0.286 0.286v0.944c0 0.158 0.128 0.286 0.286 0.286s0.286-0.128 0.286-0.286v-0.944c0-0.158-0.128-0.286-0.286-0.286" fill="#030303"/></g><g transform="translate(41.913 8.7381)"><path d="m0 0c-0.158 0-0.286 0.128-0.286 0.286v0.944c0 0.158 0.128 0.286 0.286 0.286s0.286-0.128 0.286-0.286v-0.944c0-0.158-0.128-0.286-0.286-0.286" fill="#030303"/></g><g transform="translate(43.014 8.8829)"><path d="m0 0c-0.158 0-0.286 0.128-0.286 0.286v1.599c0 1.01-0.821 1.832-1.832 1.832-1.01 0-1.833-0.822-1.833-1.832v-1.599c0-0.158-0.127-0.286-0.285-0.286s-0.286 0.128-0.286 0.286v1.599c0 1.325 1.079 2.404 2.404 2.404s2.404-1.079 2.404-2.404v-1.599c0-0.158-0.128-0.286-0.286-0.286" fill="#030303"/></g></g><g clip-path="url(#g)" opacity=".2"><g fill="#030303"><path d="m-0.137 6.709h22.916v1.237h-22.916v-1.237zm23.672-0.756h-24.428v2.749h24.428v-2.749z"/><path d="m1.991 8.702h18.659v8.618h-18.659v-8.618zm19.415-0.756h-20.171v10.13h20.171v-10.13z"/><path d="m3.324 21.29h15.992v4.633h-15.992v-4.633zm16.749-0.756h-17.504v6.145h17.504v-6.145z"/><path d="m6.393 29.682h9.856v4.633h-9.856v-4.633zm10.612-0.756h-11.368v6.145h11.368v-6.145z"/><path d="m8.14 31.194h6.361v1.61h-6.361v-1.61zm7.117-0.756h-7.873v3.122h7.873v-3.122z"/><path d="m9.061 8.702h4.52v7.237h-4.52v-7.237zm5.275-0.756h-6.032v8.749h6.032v-8.749z"/></g><g transform="translate(21.028 17.32)"><path d="m0 0c-0.209 0-0.378 0.169-0.378 0.378s0.169 0.378 0.378 0.378c3.006 0 4.241 0.869 4.809 2.141-0.903-0.813-2.164-1.335-3.452-1.335-1.736 0-2.648 1.144-2.958 1.63h-8.109c-0.208 0-0.378 0.17-0.378 0.378 0 0.209 0.17 0.378 0.378 0.378h8.327c0.145 0 0.277-0.082 0.34-0.212 0.028-0.057 0.724-1.418 2.4-1.418 1.769 0 3.535 1.196 3.937 2.665 0.052 0.191 0.244 0.31 0.437 0.272 0.194-0.038 0.326-0.219 0.303-0.416-0.288-2.448-0.991-4.839-6.034-4.839" fill="#030303"/></g><g transform="translate(1.6086 17.32)"><path d="m0 0c-5.043 0-5.746 2.391-6.034 4.839-0.023 0.197 0.109 0.378 0.303 0.416s0.385-0.081 0.437-0.271c0.403-1.47 2.169-2.666 3.937-2.666 1.677 0 2.372 1.361 2.401 1.419 0.064 0.129 0.196 0.211 0.339 0.211h8.327c0.209 0 0.378-0.169 0.378-0.378 0-0.208-0.169-0.378-0.378-0.378h-8.109c-0.309-0.486-1.221-1.63-2.958-1.63-1.288 0-2.549 0.522-3.452 1.335 0.567-1.272 1.803-2.141 4.809-2.141 0.209 0 0.378-0.169 0.378-0.378s-0.169-0.378-0.378-0.378" fill="#030303"/></g><g transform="translate(19.76 25.924)"><path d="m0 0c-0.209 0-0.378 0.169-0.378 0.378s0.169 0.378 0.378 0.378c0.786 0 1.479 0.298 2.061 0.885 0.394 0.397 0.688 0.883 0.891 1.38-0.963-0.857-2.381-1.459-3.709-1.459-1.506 0-2.31 0.974-2.598 1.417h-5.086c-0.209 0-0.378 0.169-0.378 0.378s0.169 0.378 0.378 0.378h5.302c0.145 0 0.277-0.083 0.34-0.213 0.024-0.048 0.617-1.204 2.042-1.204 1.74 0 3.721 1.226 4.076 2.523 0.05 0.183 0.223 0.301 0.414 0.275 0.187-0.024 0.327-0.182 0.329-0.371 0.012-1.3-0.563-2.727-1.464-3.637-0.719-0.725-1.617-1.108-2.598-1.108" fill="#030303"/></g><g transform="translate(16.627 34.315)"><path d="m0 0c-0.209 0-0.378 0.169-0.378 0.378s0.169 0.378 0.378 0.378c2.456 0 3.593 0.842 4.136 2.224-0.962-0.835-2.355-1.418-3.662-1.418-1.506 0-2.31 0.974-2.598 1.417h-3.184c-0.209 0-0.378 0.169-0.378 0.378s0.169 0.378 0.378 0.378h3.4c0.145 0 0.277-0.083 0.34-0.213 0.024-0.048 0.617-1.204 2.042-1.204 1.74 0 3.721 1.226 4.076 2.523 0.052 0.191 0.242 0.307 0.436 0.272 0.194-0.037 0.326-0.217 0.305-0.413-0.259-2.324-1.091-4.7-5.291-4.7" fill="#030303"/></g><g transform="translate(6.0104 34.315)"><path d="m0 0c-4.2 0-5.032 2.376-5.291 4.7-0.021 0.196 0.111 0.376 0.305 0.413 0.193 0.035 0.383-0.081 0.436-0.272 0.355-1.297 2.336-2.523 4.076-2.523 1.439 0 2.036 1.192 2.042 1.204 0.063 0.13 0.195 0.213 0.34 0.213h3.4c0.209 0 0.378-0.169 0.378-0.378s-0.169-0.378-0.378-0.378h-3.184c-0.288-0.443-1.093-1.417-2.598-1.417-1.307 0-2.7 0.583-3.662 1.418 0.543-1.382 1.68-2.224 4.136-2.224 0.209 0 0.378-0.169 0.378-0.378s-0.169-0.378-0.378-0.378" fill="#030303"/></g><g transform="translate(2.8774 25.924)"><path d="m0 0c-0.981 0-1.879 0.383-2.598 1.108-0.901 0.91-1.476 2.337-1.464 3.637 2e-3 0.189 0.142 0.347 0.329 0.371 0.189 0.025 0.364-0.093 0.414-0.275 0.355-1.297 2.336-2.523 4.076-2.523 1.439 0 2.036 1.192 2.042 1.204 0.063 0.13 0.195 0.213 0.34 0.213h5.302c0.209 0 0.378-0.169 0.378-0.378s-0.169-0.378-0.378-0.378h-5.086c-0.288-0.443-1.092-1.417-2.598-1.417-1.328 0-2.746 0.602-3.709 1.459 0.203-0.497 0.497-0.983 0.891-1.38 0.582-0.587 1.275-0.885 2.061-0.885 0.209 0 0.378-0.169 0.378-0.378s-0.169-0.378-0.378-0.378" fill="#030303"/></g><path d="m3.766 10.445h2.776v5.493h-2.776v-5.493zm3.532-0.756h-4.288v7.005h4.288v-7.005z" fill="#030303"/><g transform="translate(6.92 12.814)"><path d="m0 0h-3.532c-0.209 0-0.378 0.169-0.378 0.378s0.169 0.378 0.378 0.378h3.532c0.209 0 0.378-0.169 0.378-0.378s-0.169-0.378-0.378-0.378" fill="#030303"/></g><g transform="translate(11.318 8.064)"><path d="m0 0c-0.209 0-0.378 0.169-0.378 0.378v7.828c0 0.209 0.169 0.378 0.378 0.378s0.378-0.169 0.378-0.378v-7.828c0-0.209-0.169-0.378-0.378-0.378" fill="#030303"/></g><g transform="translate(11.318 20.602)"><path d="m0 0c-0.209 0-0.378 0.169-0.378 0.378v5.322c0 0.209 0.169 0.378 0.378 0.378s0.378-0.169 0.378-0.378v-5.322c0-0.209-0.169-0.378-0.378-0.378" fill="#030303"/></g><g transform="translate(8.4428 20.602)"><path d="m0 0c-0.209 0-0.378 0.169-0.378 0.378v5.322c0 0.209 0.169 0.378 0.378 0.378s0.378-0.169 0.378-0.378v-5.322c0-0.209-0.169-0.378-0.378-0.378" fill="#030303"/></g><g transform="translate(5.5674 20.602)"><path d="m0 0c-0.209 0-0.378 0.169-0.378 0.378v5.322c0 0.209 0.169 0.378 0.378 0.378s0.378-0.169 0.378-0.378v-5.322c0-0.209-0.169-0.378-0.378-0.378" fill="#030303"/></g><g transform="translate(17.07 20.602)"><path d="m0 0c-0.209 0-0.378 0.169-0.378 0.378v5.322c0 0.209 0.169 0.378 0.378 0.378s0.378-0.169 0.378-0.378v-5.322c0-0.209-0.169-0.378-0.378-0.378" fill="#030303"/></g><g transform="translate(14.194 20.602)"><path d="m0 0c-0.209 0-0.378 0.169-0.378 0.378v5.322c0 0.209 0.169 0.378 0.378 0.378s0.378-0.169 0.378-0.378v-5.322c0-0.209-0.169-0.378-0.378-0.378" fill="#030303"/></g><path d="m8.242 38.023h6.157v2.708h-6.157v-2.708zm6.913-0.756h-7.669v4.22h7.669v-4.22z" fill="#030303"/><g transform="translate(11.322 37.289)"><path d="m0 0c-0.209 0-0.378 0.169-0.378 0.378v3.421c0 0.209 0.169 0.378 0.378 0.378s0.378-0.169 0.378-0.378v-3.421c0-0.209-0.169-0.378-0.378-0.378" fill="#030303"/></g><g transform="translate(9.4786 37.289)"><path d="m0 0c-0.209 0-0.378 0.169-0.378 0.378v3.421c0 0.209 0.169 0.378 0.378 0.378s0.378-0.169 0.378-0.378v-3.421c0-0.209-0.169-0.378-0.378-0.378" fill="#030303"/></g><g transform="translate(13.164 37.289)"><path d="m0 0c-0.209 0-0.378 0.169-0.378 0.378v3.421c0 0.209 0.169 0.378 0.378 0.378s0.378-0.169 0.378-0.378v-3.421c0-0.209-0.169-0.378-0.378-0.378" fill="#030303"/></g><path d="m16.027 10.445h2.776v5.493h-2.776v-5.493zm3.532-0.756h-4.288v7.005h4.288v-7.005z" fill="#030303"/><g transform="translate(19.181 12.814)"><path d="m0 0h-3.532c-0.209 0-0.378 0.169-0.378 0.378s0.169 0.378 0.378 0.378h3.532c0.209 0 0.378-0.169 0.378-0.378s-0.169-0.378-0.378-0.378" fill="#030303"/></g></g><g clip-path="url(#f)" opacity=".10001"><g transform="translate(47.228 8.3117)"><path d="m0 0h-5.142c-0.158 0-0.286 0.128-0.286 0.286 0 0.157 0.128 0.285 0.286 0.285h5.142c0.158 0 0.286-0.128 0.286-0.285 0-0.158-0.128-0.286-0.286-0.286" fill="#030303"/></g><g transform="translate(47.228 4.1216)"><path d="m0 0h-5.142c-0.158 0-0.286 0.128-0.286 0.286 0 0.157 0.128 0.285 0.286 0.285h5.142c0.158 0 0.286-0.128 0.286-0.285 0-0.158-0.128-0.286-0.286-0.286" fill="#030303"/></g><g fill="#030303"><path d="m42.371 0.681h4.571v12.824h-4.571v-12.824zm5.142-0.571h-5.714v13.967h5.714v-13.967z"/><path d="m42.327 20.691h4.659v1.504h-4.659v-1.504zm5.23-0.571h-5.801v2.646h5.801v-2.646z"/><path d="m43.585 25.044h2.143v2.103h-2.143v-2.103zm2.429-0.571h-2.715c-0.158 0-0.285 0.128-0.285 0.286v2.674c0 0.158 0.127 0.285 0.285 0.285h2.715c0.157 0 0.285-0.127 0.285-0.285v-2.674c0-0.158-0.128-0.286-0.285-0.286"/></g><g transform="translate(43.664 27.718)"><path d="m0 0h1.984l-0.991 3.99-0.993-3.99zm2.349-0.571h-2.714c-0.088 0-0.171 0.04-0.225 0.109-0.055 0.07-0.074 0.16-0.053 0.245l1.359 5.46c0.032 0.128 0.146 0.217 0.277 0.217s0.246-0.09 0.277-0.217l1.356-5.46c0.022-0.085 2e-3 -0.175-0.052-0.245-0.054-0.069-0.137-0.109-0.225-0.109" fill="#030303"/></g><g transform="translate(42.938 22.766)"><path d="m0 0h3.437l-0.571 1.707h-2.295l-0.571-1.707zm4.23-0.571h-5.023l0.953 2.849h3.117l0.953-2.849z" fill="#030303"/></g><path d="m41.559 14.08h6.197v6.043h-6.197v-6.043zm6.768-0.571h-7.339v7.186h7.339v-7.186z" fill="#030303"/><g transform="translate(43.299 .11)"><path d="m0 0c-0.158 0-0.286 0.128-0.286 0.286v12.204c0 0.158 0.128 0.285 0.286 0.285s0.286-0.127 0.286-0.285v-12.204c0-0.158-0.128-0.286-0.286-0.286" fill="#030303"/></g><g transform="translate(44.656 .11)"><path d="m0 0c-0.158 0-0.286 0.128-0.286 0.286v12.204c0 0.158 0.128 0.285 0.286 0.285s0.286-0.127 0.286-0.285v-12.204c0-0.158-0.128-0.286-0.286-0.286" fill="#030303"/></g><g transform="translate(46.014 .11)"><path d="m0 0c-0.158 0-0.286 0.128-0.286 0.286v12.204c0 0.158 0.128 0.285 0.286 0.285s0.286-0.127 0.286-0.285v-12.204c0-0.158-0.128-0.286-0.286-0.286" fill="#030303"/></g><g transform="translate(43.299 20.12)"><path d="m0 0c-0.158 0-0.286 0.128-0.286 0.286v1.241c0 0.158 0.128 0.285 0.286 0.285s0.286-0.127 0.286-0.285v-1.241c0-0.158-0.128-0.286-0.286-0.286" fill="#030303"/></g><g transform="translate(44.656 20.12)"><path d="m0 0c-0.158 0-0.286 0.128-0.286 0.286v1.241c0 0.158 0.128 0.285 0.286 0.285s0.286-0.127 0.286-0.285v-1.241c0-0.158-0.128-0.286-0.286-0.286" fill="#030303"/></g><g transform="translate(44.656 25.826)"><path d="m0 0c-0.158 0-0.286 0.128-0.286 0.286v1.241c0 0.158 0.128 0.285 0.286 0.285s0.286-0.127 0.286-0.285v-1.241c0-0.158-0.128-0.286-0.286-0.286" fill="#030303"/></g><g transform="translate(44.656 32.381)"><path d="m0 0c-0.158 0-0.286 0.128-0.286 0.286v2.63c0 0.158 0.128 0.286 0.286 0.286s0.286-0.128 0.286-0.286v-2.63c0-0.158-0.128-0.286-0.286-0.286" fill="#030303"/></g><g transform="translate(46.014 20.12)"><path d="m0 0c-0.158 0-0.286 0.128-0.286 0.286v1.241c0 0.158 0.128 0.285 0.286 0.285s0.286-0.127 0.286-0.285v-1.241c0-0.158-0.128-0.286-0.286-0.286" fill="#030303"/></g><g transform="translate(44.658 16.815)"><path d="m0 0c-0.158 0-0.286 0.128-0.286 0.286v1.205c0 0.158 0.128 0.286 0.286 0.286s0.286-0.128 0.286-0.286v-1.205c0-0.158-0.128-0.286-0.286-0.286" fill="#030303"/></g><g transform="translate(45.492 16.815)"><path d="m0 0h-0.835c-0.158 0-0.286 0.128-0.286 0.286 0 0.157 0.128 0.285 0.286 0.285h0.835c0.158 0 0.286-0.128 0.286-0.285 0-0.158-0.128-0.286-0.286-0.286" fill="#030303"/></g><g transform="translate(44.657 19.081)"><path d="m0 0c-1.092 0-1.98-0.888-1.98-1.98s0.888-1.98 1.98-1.98 1.98 0.888 1.98 1.98-0.888 1.98-1.98 1.98m0-4.531c-1.407 0-2.551 1.144-2.551 2.551s1.144 2.551 2.551 2.551 2.551-1.144 2.551-2.551-1.144-2.551-2.551-2.551" fill="#030303"/></g></g><g clip-path="url(#e)" opacity=".25"><g transform="translate(79.984 -.023)"><path d="m0 0h-33.329c-0.158 0-0.286 0.128-0.286 0.286 0 0.157 0.128 0.285 0.286 0.285h33.329c0.158 0 0.286-0.128 0.286-0.285 0-0.158-0.128-0.286-0.286-0.286" fill="#030303"/></g><g transform="translate(47.304 .5482)"><path d="m0 0h32.001v4.012c-1.081 0.193-6.074 0.973-16 0.973-10.201 0-14.962-0.775-16.001-0.97v-4.015zm32.572-0.571h-33.143v5.048l0.222 0.05c0.046 0.011 4.67 1.029 16.35 1.029 11.34 0 16.296-1.018 16.345-1.028l0.226-0.048v-5.051z" fill="#030303"/></g><g transform="translate(79.591 4.2189)"><path d="m0 0c-0.158 0-0.286 0.128-0.286 0.286v6.206c-0.997 0.307-5.978 1.665-16 1.665-10.295 0-15.047-1.351-16.001-1.661v-6.21c0-0.158-0.128-0.286-0.285-0.286-0.158 0-0.286 0.128-0.286 0.286v6.61l0.182 0.07c0.186 0.072 4.689 1.762 16.39 1.762 11.36 0 16.183-1.687 16.383-1.759l0.189-0.068v-6.615c0-0.158-0.128-0.286-0.286-0.286" fill="#030303"/></g><g transform="translate(47.018 10.559)"><path d="m0 0c-0.158 0-0.286 0.128-0.286 0.286v7.971l0.137 0.084c0.17 0.104 4.271 2.561 13.481 3.019l0.265 0.013 0.032-0.264c0.093-0.751 0.168-1.348 0.234-1.87 0.251-1.994 0.366-2.904 0.775-7.109 0.016-0.157-0.099-0.296-0.256-0.312-0.16-0.015-0.297 0.1-0.312 0.257-0.409 4.196-0.523 5.104-0.774 7.092-0.058 0.461-0.123 0.979-0.201 1.608-7.962-0.435-12.036-2.427-12.809-2.844v-7.645c0-0.158-0.128-0.286-0.286-0.286" fill="#030303"/></g><g transform="translate(46.527 16.477)"><path d="m0 0c-0.1 0-0.197 0.052-0.249 0.146-0.077 0.137-0.029 0.311 0.108 0.388 0.185 0.105 4.643 2.556 14.661 3.014 0.156 7e-3 0.291-0.115 0.299-0.273 7e-3 -0.157-0.115-0.291-0.273-0.298-9.863-0.45-14.362-2.916-14.406-2.94-0.045-0.025-0.093-0.037-0.14-0.037" fill="#030303"/></g><g transform="translate(67.287 -.023)"><path d="m0 0c-0.136 0-0.257 0.098-0.281 0.237l-0.965 5.531c-0.027 0.155 0.077 0.303 0.233 0.33 0.158 0.026 0.303-0.077 0.33-0.232l0.965-5.531c0.027-0.156-0.077-0.304-0.233-0.331-0.016-3e-3 -0.033-4e-3 -0.049-4e-3" fill="#030303"/></g><g transform="translate(65.034 5.5083)"><path d="m0 0c-0.133 0-0.252 0.093-0.279 0.228l-1.421 6.868c-0.032 0.154 0.067 0.305 0.222 0.337s0.305-0.067 0.337-0.222l1.421-6.868c0.032-0.154-0.067-0.305-0.222-0.337-0.02-4e-3 -0.039-6e-3 -0.058-6e-3" fill="#030303"/></g><g transform="translate(64.86 -.023)"><path d="m0 0c-0.158 0-0.286 0.128-0.286 0.286v3.028c0 0.688-0.548 1.248-1.223 1.248-0.674 0-1.223-0.56-1.223-1.248v-3.028c0-0.158-0.128-0.286-0.286-0.286s-0.285 0.128-0.285 0.286v3.028c0 1.003 0.804 1.819 1.794 1.819 0.989 0 1.795-0.816 1.795-1.819v-3.028c0-0.158-0.128-0.286-0.286-0.286" fill="#030303"/></g><g transform="translate(60.073 -.023)"><path d="m0 0c-0.158 0-0.286 0.128-0.286 0.286v2.964c0 0.671-0.504 1.216-1.123 1.216s-1.123-0.545-1.123-1.216v-2.964c0-0.158-0.128-0.286-0.286-0.286-0.157 0-0.285 0.128-0.285 0.286v2.964c0 0.986 0.76 1.787 1.694 1.787 0.935 0 1.695-0.801 1.695-1.787v-2.964c0-0.158-0.128-0.286-0.286-0.286" fill="#030303"/></g><g transform="translate(55.418 -.0054)"><path d="m0 0c-0.158 0-0.286 0.128-0.286 0.286v2.816c0 0.628-0.472 1.14-1.052 1.14-0.581 0-1.053-0.512-1.053-1.14v-2.816c0-0.158-0.128-0.286-0.286-0.286-0.157 0-0.285 0.128-0.285 0.286v2.816c0 0.943 0.728 1.711 1.624 1.711 0.895 0 1.624-0.768 1.624-1.711v-2.816c0-0.158-0.128-0.286-0.286-0.286" fill="#030303"/></g><g transform="translate(51.038 -.023)"><path d="m0 0c-0.158 0-0.286 0.128-0.286 0.286v2.562c0 0.558-0.442 1.012-0.985 1.012-0.544 0-0.987-0.454-0.987-1.012v-2.562c0-0.158-0.127-0.286-0.285-0.286s-0.286 0.128-0.286 0.286v2.562c0 0.873 0.699 1.584 1.558 1.584 0.858 0 1.557-0.711 1.557-1.584v-2.562c0-0.158-0.128-0.286-0.286-0.286" fill="#030303"/></g><g transform="translate(69.342 -.023)"><path d="m0 0c-0.158 0-0.286 0.128-0.286 0.286v2.964c0 0.671-0.504 1.216-1.123 1.216-0.406 0-0.783-0.241-0.982-0.629-0.072-0.14-0.243-0.196-0.385-0.124-0.14 0.073-0.195 0.245-0.123 0.385 0.297 0.579 0.869 0.939 1.49 0.939 0.935 0 1.695-0.801 1.695-1.787v-2.964c0-0.158-0.128-0.286-0.286-0.286" fill="#030303"/></g><g transform="translate(73.856 -.0054)"><path d="m0 0c-0.158 0-0.286 0.128-0.286 0.286v2.816c0 0.628-0.472 1.14-1.052 1.14-0.581 0-1.053-0.512-1.053-1.14v-2.816c0-0.158-0.128-0.286-0.286-0.286-0.157 0-0.285 0.128-0.285 0.286v2.816c0 0.943 0.728 1.711 1.624 1.711 0.895 0 1.624-0.768 1.624-1.711v-2.816c0-0.158-0.128-0.286-0.286-0.286" fill="#030303"/></g><g transform="translate(78.103 -.023)"><path d="m0 0c-0.158 0-0.286 0.128-0.286 0.286v2.562c0 0.558-0.442 1.012-0.986 1.012s-0.986-0.454-0.986-1.012v-2.562c0-0.158-0.128-0.286-0.286-0.286-0.157 0-0.285 0.128-0.285 0.286v2.562c0 0.873 0.699 1.584 1.557 1.584 0.859 0 1.558-0.711 1.558-1.584v-2.562c0-0.158-0.128-0.286-0.286-0.286" fill="#030303"/></g><g transform="translate(64.724,6.6989)"><path d="m0 0h-2.882c-0.157 0-0.285 0.128-0.285 0.286v3.028c0 1.003 0.805 1.819 1.794 1.819 0.21 0 0.416-0.037 0.612-0.109 0.148-0.055 0.224-0.22 0.169-0.367-0.055-0.148-0.219-0.225-0.367-0.169-0.133 0.049-0.272 0.074-0.414 0.074-0.674 0-1.223-0.56-1.223-1.248v-2.743h2.596c0.158 0 0.286-0.128 0.286-0.285 0-0.158-0.128-0.286-0.286-0.286" fill="#030303"/></g><g transform="translate(57.541 7.27)"><path d="m0 0h2.246v2.679c0 0.671-0.503 1.216-1.123 1.216-0.619 0-1.123-0.545-1.123-1.216v-2.679zm2.532-0.571h-2.818c-0.157 0-0.285 0.128-0.285 0.285v2.965c0 0.985 0.76 1.787 1.694 1.787 0.935 0 1.695-0.802 1.695-1.787v-2.965c0-0.157-0.128-0.285-0.286-0.285" fill="#030303"/></g><g transform="translate(54.08,10.75)"><path d="m0 0c-0.58 0-1.053-0.511-1.053-1.14v-2.51l2.106 0.15v2.36c0 0.629-0.472 1.14-1.053 1.14m-1.338-4.242c-0.072 0-0.142 0.027-0.195 0.077-0.058 0.054-0.091 0.129-0.091 0.209v2.816c0 0.943 0.729 1.711 1.624 1.711 0.896 0 1.624-0.768 1.624-1.711v-2.626c0-0.149-0.116-0.274-0.265-0.284l-2.677-0.191c-7e-3 -1e-3 -0.013-1e-3 -0.02-1e-3" fill="#030303"/></g><g transform="translate(49.766 10.029)"><path d="m0 0c-0.544 0-0.986-0.454-0.986-1.012v-2.414l1.972 0.29v2.124c0 0.558-0.442 1.012-0.986 1.012m-1.272-4.042c-0.068 0-0.134 0.024-0.186 0.069-0.063 0.055-0.099 0.133-0.099 0.217v2.744c0 0.873 0.698 1.583 1.557 1.583 0.858 0 1.557-0.71 1.557-1.583v-2.371c0-0.142-0.104-0.262-0.244-0.282l-2.543-0.374c-0.014-2e-3 -0.028-3e-3 -0.042-3e-3" fill="#030303"/></g><g transform="translate(57.337 13.977)"><path d="m0 0h2.246v2.679c0 0.671-0.503 1.216-1.123 1.216-0.619 0-1.123-0.545-1.123-1.216v-2.679zm2.532-0.571h-2.818c-0.157 0-0.285 0.128-0.285 0.285v2.965c0 0.986 0.76 1.787 1.694 1.787s1.695-0.801 1.695-1.787v-2.965c0-0.157-0.128-0.285-0.286-0.285" fill="#030303"/></g><g transform="translate(54.08 17.352)"><path d="m0 0c-0.58 0-1.053-0.511-1.053-1.14v-2.51l2.106 0.15v2.36c0 0.629-0.472 1.14-1.053 1.14m-1.338-4.242c-0.072 0-0.142 0.027-0.195 0.076-0.058 0.054-0.091 0.13-0.091 0.209v2.817c0 0.943 0.729 1.711 1.624 1.711 0.896 0 1.624-0.768 1.624-1.711v-2.626c0-0.15-0.116-0.274-0.265-0.285l-2.677-0.19c-7e-3 -1e-3 -0.013-1e-3 -0.02-1e-3" fill="#030303"/></g><g transform="translate(49.657 16.418)"><path d="m0 0c-0.544 0-0.986-0.454-0.986-1.012v-2.414l1.972 0.29v2.124c0 0.558-0.442 1.012-0.986 1.012m-1.272-4.042c-0.068 0-0.134 0.024-0.186 0.069-0.063 0.055-0.099 0.133-0.099 0.217v2.744c0 0.873 0.698 1.583 1.557 1.583 0.858 0 1.557-0.71 1.557-1.583v-2.371c0-0.142-0.104-0.262-0.244-0.282l-2.543-0.374c-0.014-2e-3 -0.028-3e-3 -0.042-3e-3" fill="#030303"/></g><g transform="translate(66.81 7.27)"><path d="m0 0h2.246v2.679c0 0.671-0.503 1.216-1.123 1.216-0.619 0-1.123-0.545-1.123-1.216v-2.679zm2.532-0.571h-2.818c-0.157 0-0.285 0.128-0.285 0.285v2.965c0 0.985 0.76 1.787 1.694 1.787 0.935 0 1.695-0.802 1.695-1.787v-2.965c0-0.157-0.128-0.285-0.286-0.285" fill="#030303"/></g><g transform="translate(71.465 7.2438)"><path d="m0 0 2.105-0.202v2.568c0 0.629-0.472 1.14-1.052 1.14-0.581 0-1.053-0.511-1.053-1.14v-2.366zm2.391-0.802c-9e-3 0-0.018 0-0.027 1e-3l-2.677 0.257c-0.146 0.014-0.258 0.137-0.258 0.285v2.625c0 0.944 0.728 1.711 1.624 1.711 0.895 0 1.624-0.767 1.624-1.711v-2.883c0-0.08-0.034-0.157-0.094-0.211-0.053-0.048-0.121-0.074-0.192-0.074" fill="#030303"/></g><g transform="translate(75.845 6.8191)"><path d="m0 0 1.972-0.317v2.515c0 0.558-0.442 1.012-0.986 1.012s-0.986-0.454-0.986-1.012v-2.198zm2.258-0.938c-0.015 0-0.03 1e-3 -0.045 4e-3l-2.544 0.409c-0.138 0.022-0.24 0.141-0.24 0.282v2.441c0 0.873 0.698 1.583 1.557 1.583s1.557-0.71 1.557-1.583v-2.85c0-0.084-0.036-0.163-0.1-0.217-0.052-0.045-0.118-0.069-0.185-0.069" fill="#030303"/></g></g><g clip-path="url(#d)" opacity=".10001"><g transform="translate(50.97 2.2893)"><path d="m0 0h-3.792c-0.185 0-0.335 0.15-0.335 0.334 0 0.185 0.15 0.335 0.335 0.335h3.792c0.185 0 0.334-0.15 0.334-0.335 0-0.184-0.149-0.334-0.334-0.334" fill="#030303"/></g><g transform="translate(77.719 2.2893)"><path d="m0 0h-3.792c-0.185 0-0.334 0.15-0.334 0.334 0 0.185 0.149 0.335 0.334 0.335h3.792c0.185 0 0.334-0.15 0.334-0.335 0-0.184-0.149-0.334-0.334-0.334" fill="#030303"/></g><g transform="translate(50.97,2.2893)"><path d="m0 0c-0.154 0-0.292 0.106-0.326 0.263-3.653 16.597 1.565 28.69 6.586 35.912 5.369 7.723 11.918 11.998 14.9 12.608l0.813 8.946c0.016 0.178 0.172 0.313 0.347 0.304 0.178-7e-3 0.319-0.152 0.321-0.33l0.651-57.365c2e-3 -0.184-0.146-0.336-0.331-0.338h-4e-3c-0.183 0-0.332 0.147-0.334 0.331l-0.576 50.812-0.244-2.676c-0.014-0.154-0.133-0.279-0.287-0.301-2.358-0.33-9.093-4.298-14.707-12.373-4.945-7.112-10.083-19.025-6.482-35.387 0.04-0.18-0.075-0.358-0.255-0.398-0.024-5e-3 -0.048-8e-3 -0.072-8e-3" fill="#030303"/></g><g transform="translate(63.827 41.362)"><path d="m0 0h7.874c0.051 1.233 0.238 5.749 0.379 8.888-5.048-2.469-7.574-7.378-8.253-8.888m8.195-0.669h-8.7c-0.11 0-0.212 0.054-0.275 0.144-0.062 0.09-0.077 0.205-0.038 0.308 0.107 0.285 2.69 7.024 9.296 9.947 0.105 0.047 0.228 0.036 0.324-0.03 0.095-0.065 0.15-0.175 0.145-0.291-0.165-3.61-0.416-9.696-0.418-9.757-7e-3 -0.18-0.155-0.321-0.334-0.321" fill="#030303"/></g><g transform="translate(65.366 40.694)"><path d="m0 0c-0.185 0-0.334 0.15-0.334 0.334 0 1.103 2.888 7.434 7.236 10.046 0.158 0.095 0.364 0.044 0.459-0.114 0.095-0.159 0.044-0.364-0.115-0.459-4.294-2.581-6.912-8.759-6.912-9.473 0-0.184-0.149-0.334-0.334-0.334" fill="#030303"/></g><g transform="translate(66.51 40.694)"><path d="m0 0c-0.185 0-0.334 0.15-0.334 0.334 0 1.099 2.422 7.417 6.069 10.031 0.151 0.108 0.359 0.073 0.467-0.077 0.107-0.15 0.073-0.359-0.077-0.466-3.464-2.483-5.791-8.569-5.791-9.488 0-0.184-0.149-0.334-0.334-0.334" fill="#030303"/></g><g transform="translate(61.956 38.165)"><path d="m0 0h2.194l0.157 0.465h-2.195l-0.156-0.465zm2.435-0.669h-2.9c-0.108 0-0.209 0.052-0.272 0.139-0.063 0.088-0.08 0.2-0.045 0.302l0.381 1.134c0.046 0.136 0.173 0.228 0.317 0.228h2.9c0.108 0 0.209-0.052 0.271-0.139 0.063-0.088 0.08-0.2 0.046-0.302l-0.381-1.134c-0.046-0.136-0.174-0.228-0.317-0.228" fill="#030303"/></g><g transform="translate(65.821 38.165)"><path d="m0 0h6.006v0.465h-5.861l-0.145-0.465zm6.34-0.669h-6.795c-0.106 0-0.206 0.051-0.269 0.136-0.063 0.086-0.082 0.197-0.05 0.298l0.354 1.134c0.044 0.14 0.173 0.235 0.319 0.235h6.441c0.185 0 0.335-0.15 0.335-0.334v-1.134c0-0.185-0.15-0.335-0.335-0.335" fill="#030303"/></g><g transform="translate(61.027 35.916)"><path d="m0 0h2.46l0.157 0.465h-2.461l-0.156-0.465zm2.701-0.669h-3.166c-0.108 0-0.209 0.052-0.272 0.139-0.063 0.088-0.08 0.2-0.045 0.302l0.381 1.134c0.046 0.136 0.173 0.228 0.317 0.228h3.166c0.108 0 0.209-0.052 0.271-0.139 0.063-0.088 0.08-0.2 0.046-0.302l-0.381-1.134c-0.046-0.136-0.174-0.228-0.317-0.228" fill="#030303"/></g><g transform="translate(65.157 35.916)"><path d="m0 0h6.669v0.465h-6.524l-0.145-0.465zm7.004-0.669h-7.459c-0.106 0-0.206 0.051-0.269 0.136-0.064 0.086-0.082 0.197-0.05 0.298l0.354 1.134c0.044 0.14 0.173 0.235 0.319 0.235h7.105c0.185 0 0.334-0.15 0.334-0.334v-1.134c0-0.185-0.149-0.335-0.334-0.335" fill="#030303"/></g><g transform="translate(59.995 33.667)"><path d="m0 0h2.697l0.157 0.465h-2.698l-0.156-0.465zm2.938-0.669h-3.403c-0.108 0-0.209 0.052-0.272 0.139-0.063 0.088-0.08 0.2-0.045 0.302l0.381 1.134c0.046 0.136 0.173 0.228 0.317 0.228h3.403c0.108 0 0.209-0.052 0.271-0.139 0.063-0.088 0.08-0.2 0.046-0.302l-0.381-1.134c-0.046-0.136-0.174-0.228-0.317-0.228" fill="#030303"/></g><g transform="translate(64.363 33.667)"><path d="m0 0h7.464v0.465h-7.319l-0.145-0.465zm7.798-0.669h-8.253c-0.106 0-0.206 0.051-0.269 0.136-0.063 0.086-0.082 0.197-0.05 0.298l0.354 1.134c0.044 0.14 0.173 0.235 0.319 0.235h7.899c0.185 0 0.335-0.15 0.335-0.334v-1.134c0-0.185-0.15-0.335-0.335-0.335" fill="#030303"/></g><g transform="translate(59.196 31.417)"><path d="m0 0h2.697l0.157 0.465h-2.698l-0.156-0.465zm2.938-0.669h-3.403c-0.108 0-0.209 0.052-0.272 0.139-0.063 0.088-0.08 0.2-0.045 0.302l0.381 1.134c0.046 0.136 0.173 0.228 0.317 0.228h3.403c0.108 0 0.209-0.052 0.271-0.139 0.063-0.088 0.08-0.2 0.046-0.302l-0.381-1.134c-0.046-0.136-0.174-0.228-0.317-0.228" fill="#030303"/></g><g transform="translate(63.563 31.417)"><path d="m0 0h8.263v0.465h-8.118l-0.145-0.465zm8.598-0.669h-9.053c-0.106 0-0.206 0.051-0.269 0.136-0.063 0.086-0.082 0.197-0.05 0.298l0.354 1.134c0.044 0.14 0.173 0.235 0.319 0.235h8.699c0.185 0 0.334-0.15 0.334-0.334v-1.134c0-0.185-0.149-0.335-0.334-0.335" fill="#030303"/></g><g transform="translate(58.518 29.168)"><path d="m0 0h2.697l0.156 0.465h-2.697l-0.156-0.465zm2.938-0.669h-3.403c-0.108 0-0.209 0.052-0.272 0.139-0.063 0.088-0.08 0.2-0.045 0.302l0.381 1.134c0.046 0.136 0.173 0.228 0.317 0.228h3.403c0.107 0 0.208-0.052 0.271-0.139 0.063-0.088 0.08-0.2 0.046-0.302l-0.381-1.134c-0.046-0.136-0.174-0.228-0.317-0.228" fill="#030303"/></g><g transform="translate(62.885 29.168)"><path d="m0 0h8.942v0.465h-8.797l-0.145-0.465zm9.276-0.669h-9.731c-0.106 0-0.206 0.051-0.269 0.136-0.064 0.086-0.082 0.197-0.05 0.298l0.354 1.134c0.044 0.14 0.173 0.235 0.319 0.235h9.377c0.185 0 0.335-0.15 0.335-0.334v-1.134c0-0.185-0.15-0.335-0.335-0.335" fill="#030303"/></g><g transform="translate(57.849 26.919)"><path d="m0 0h2.697l0.156 0.465h-2.697l-0.156-0.465zm2.937-0.669h-3.402c-0.108 0-0.209 0.052-0.272 0.139-0.063 0.088-0.08 0.2-0.046 0.302l0.382 1.134c0.046 0.136 0.173 0.228 0.317 0.228h3.403c0.107 0 0.208-0.052 0.271-0.139 0.063-0.088 0.08-0.2 0.046-0.302l-0.381-1.134c-0.046-0.136-0.174-0.228-0.318-0.228" fill="#030303"/></g><g transform="translate(62.216 26.919)"><path d="m0 0h9.611v0.465h-9.466l-0.145-0.465zm9.945-0.669h-10.4c-0.106 0-0.206 0.051-0.269 0.136-0.064 0.086-0.082 0.197-0.05 0.298l0.354 1.134c0.043 0.14 0.173 0.235 0.319 0.235h10.046c0.185 0 0.335-0.15 0.335-0.335v-1.133c0-0.185-0.15-0.335-0.335-0.335" fill="#030303"/></g><g transform="translate(57.235 24.67)"><path d="m0 0h2.697l0.156 0.465h-2.697l-0.156-0.465zm2.937-0.669h-3.402c-0.108 0-0.209 0.052-0.272 0.139-0.063 0.088-0.08 0.2-0.046 0.302l0.382 1.134c0.046 0.136 0.173 0.228 0.317 0.228h3.403c0.107 0 0.208-0.052 0.271-0.139 0.063-0.088 0.08-0.2 0.046-0.302l-0.381-1.134c-0.046-0.136-0.174-0.228-0.318-0.228" fill="#030303"/></g><g transform="translate(61.603 24.67)"><path d="m0 0h10.224v0.465h-10.079l-0.145-0.465zm10.559-0.669h-11.014c-0.106 0-0.206 0.051-0.269 0.136-0.064 0.086-0.082 0.197-0.05 0.298l0.354 1.134c0.043 0.14 0.173 0.235 0.319 0.235h10.66c0.184 0 0.334-0.15 0.334-0.335v-1.133c0-0.185-0.15-0.335-0.334-0.335" fill="#030303"/></g><g transform="translate(56.721 22.42)"><path d="m0 0h2.885l0.065 0.465h-2.885l-0.065-0.465zm3.177-0.669h-3.561c-0.097 0-0.189 0.042-0.252 0.115-0.064 0.073-0.093 0.17-0.079 0.266l0.157 1.133c0.023 0.166 0.165 0.289 0.332 0.289h3.561c0.096 0 0.188-0.042 0.252-0.115 0.063-0.073 0.092-0.17 0.079-0.266l-0.158-1.134c-0.023-0.165-0.165-0.288-0.331-0.288" fill="#030303"/></g><g transform="translate(61.248 22.42)"><path d="m0 0h10.578v0.465h-10.524l-0.054-0.465zm10.913-0.669h-11.288c-0.096 0-0.186 0.041-0.25 0.112s-0.094 0.166-0.082 0.261l0.13 1.134c0.02 0.168 0.163 0.296 0.333 0.296h11.157c0.185 0 0.334-0.15 0.334-0.335v-1.133c0-0.185-0.149-0.335-0.334-0.335" fill="#030303"/></g><g transform="translate(56.4 20.171)"><path d="m0 0h2.885l0.065 0.465h-2.885l-0.065-0.465zm3.177-0.669h-3.561c-0.097 0-0.189 0.042-0.253 0.115-0.063 0.073-0.092 0.17-0.079 0.266l0.158 1.133c0.023 0.166 0.165 0.289 0.332 0.289h3.56c0.097 0 0.189-0.042 0.252-0.115 0.064-0.073 0.093-0.17 0.079-0.266l-0.157-1.134c-0.023-0.165-0.165-0.288-0.331-0.288" fill="#030303"/></g><g transform="translate(60.927 20.171)"><path d="m0 0h10.9v0.465h-10.846l-0.054-0.465zm11.234-0.669h-11.609c-0.096 0-0.186 0.041-0.25 0.112s-0.094 0.166-0.082 0.261l0.131 1.134c0.019 0.168 0.162 0.296 0.332 0.296h11.478c0.185 0 0.335-0.15 0.335-0.335v-1.133c0-0.185-0.15-0.335-0.335-0.335" fill="#030303"/></g><g transform="translate(56.277 9.362)"><path d="m0 0h2.667l-0.072 0.465h-2.667l0.072-0.465zm3.058-0.669h-3.344c-0.165 0-0.306 0.12-0.331 0.283l-0.176 1.134c-0.015 0.097 0.013 0.195 0.076 0.269 0.064 0.074 0.156 0.117 0.254 0.117h3.344c0.165 0 0.305-0.12 0.331-0.283l0.176-1.134c0.015-0.097-0.013-0.195-0.076-0.269-0.064-0.074-0.157-0.117-0.254-0.117" fill="#030303"/></g><g transform="translate(60.622 9.362)"><path d="m0 0h11.205v0.465h-11.266l0.061-0.465zm11.539-0.669h-11.833c-0.168 0-0.31 0.125-0.331 0.291l-0.148 1.134c-0.013 0.096 0.016 0.192 0.08 0.264 0.063 0.073 0.155 0.114 0.251 0.114h11.981c0.185 0 0.335-0.15 0.335-0.334v-1.134c0-0.185-0.15-0.335-0.335-0.335" fill="#030303"/></g><g transform="translate(56.622 7.1128)"><path d="m0 0h2.89l-0.072 0.465h-2.89l0.072-0.465zm3.281-0.669h-3.567c-0.165 0-0.306 0.12-0.331 0.283l-0.176 1.134c-0.015 0.097 0.013 0.195 0.076 0.269 0.064 0.074 0.156 0.117 0.254 0.117h3.567c0.165 0 0.305-0.12 0.331-0.283l0.176-1.134c0.015-0.097-0.013-0.195-0.076-0.269-0.064-0.074-0.157-0.117-0.254-0.117" fill="#030303"/></g><g transform="translate(61.19 7.1128)"><path d="m0 0h10.637v0.465h-10.698l0.061-0.465zm10.971-0.669h-11.265c-0.168 0-0.31 0.124-0.331 0.291l-0.148 1.134c-0.013 0.096 0.016 0.192 0.08 0.264 0.063 0.073 0.155 0.114 0.251 0.114h11.413c0.185 0 0.335-0.15 0.335-0.334v-1.134c0-0.185-0.15-0.335-0.335-0.335" fill="#030303"/></g><g transform="translate(57.237 4.8635)"><path d="m0 0h2.858l-0.164 0.465h-2.858l0.164-0.465zm3.33-0.669h-3.567c-0.142 0-0.268 0.09-0.315 0.223l-0.4 1.135c-0.036 0.102-0.02 0.215 0.043 0.304 0.062 0.088 0.164 0.141 0.273 0.141h3.567c0.141 0 0.268-0.089 0.315-0.223l0.4-1.134c0.036-0.103 0.02-0.216-0.043-0.305-0.063-0.088-0.164-0.141-0.273-0.141" fill="#030303"/></g><g transform="translate(61.803 4.8635)"><path d="m0 0h10.023v0.465h-10.175l0.152-0.465zm10.358-0.669h-10.6c-0.145 0-0.273 0.093-0.318 0.23l-0.372 1.134c-0.033 0.102-0.016 0.214 0.047 0.301s0.164 0.138 0.271 0.138h10.972c0.185 0 0.334-0.15 0.334-0.334v-1.134c0-0.185-0.149-0.335-0.334-0.335" fill="#030303"/></g><g transform="translate(55.922 11.611)"><path d="m0 0h2.667l-0.072 0.465h-2.667l0.072-0.465zm3.058-0.669h-3.344c-0.165 0-0.306 0.12-0.331 0.283l-0.176 1.134c-0.015 0.097 0.013 0.195 0.076 0.269 0.064 0.074 0.156 0.117 0.254 0.117h3.344c0.165 0 0.305-0.12 0.331-0.283l0.176-1.134c0.015-0.097-0.013-0.195-0.076-0.269-0.064-0.074-0.157-0.117-0.254-0.117" fill="#030303"/></g><g transform="translate(60.267 11.611)"><path d="m0 0h11.559v0.465h-11.62l0.061-0.465zm11.894-0.669h-12.188c-0.168 0-0.31 0.124-0.331 0.291l-0.148 1.134c-0.013 0.096 0.016 0.192 0.08 0.264 0.063 0.073 0.155 0.114 0.251 0.114h12.336c0.185 0 0.334-0.15 0.334-0.334v-1.134c0-0.185-0.149-0.335-0.334-0.335" fill="#030303"/></g><g transform="translate(55.623 13.86)"><path d="m0 0h2.834l-0.068 0.465h-2.834l0.068-0.465zm3.221-0.669h-3.51c-0.166 0-0.307 0.122-0.331 0.286l-0.166 1.134c-0.014 0.096 0.015 0.194 0.078 0.267 0.064 0.074 0.156 0.116 0.253 0.116h3.51c0.166 0 0.307-0.122 0.331-0.286l0.166-1.134c0.014-0.096-0.015-0.194-0.078-0.267-0.064-0.074-0.156-0.116-0.253-0.116" fill="#030303"/></g><g transform="translate(60.133 13.86)"><path d="m0 0h11.693v0.465h-11.749l0.056-0.465zm12.028-0.669h-12.324c-0.169 0-0.312 0.126-0.332 0.294l-0.138 1.134c-0.011 0.095 0.018 0.191 0.082 0.262 0.063 0.072 0.155 0.113 0.25 0.113h12.462c0.185 0 0.334-0.15 0.334-0.334v-1.134c0-0.185-0.149-0.335-0.334-0.335" fill="#030303"/></g><g transform="translate(55.531 16.11)"><path d="m0 0h3.063l0.023 0.465h-3.062l-0.024-0.465zm3.381-0.669h-3.733c-0.092 0-0.179 0.038-0.242 0.104-0.063 0.067-0.097 0.156-0.092 0.247l0.057 1.135c9e-3 0.177 0.156 0.317 0.334 0.317h3.733c0.092 0 0.179-0.037 0.243-0.104 0.063-0.066 0.096-0.156 0.091-0.247l-0.057-1.134c-9e-3 -0.178-0.156-0.318-0.334-0.318" fill="#030303"/></g><g transform="translate(60.266 16.11)"><path d="m0 0h11.561v0.465h-11.526l-0.035-0.465zm11.895-0.669h-12.256c-0.093 0-0.182 0.039-0.245 0.107s-0.095 0.16-0.088 0.253l0.085 1.134c0.014 0.174 0.159 0.309 0.334 0.309h12.17c0.185 0 0.335-0.15 0.335-0.334v-1.134c0-0.185-0.15-0.335-0.335-0.335" fill="#030303"/></g><g transform="translate(57.221 42.004)"><path d="m0 0c0.114 0 0.222-0.059 0.284-0.157 0.169-0.271 0.335-0.55 0.502-0.831 0.163-0.274 0.329-0.554 0.5-0.828 6e-3 9e-3 0.012 0.018 0.019 0.026 0.024 0.035 0.048 0.069 0.072 0.102-0.221 0.37-0.349 0.587-0.465 0.785-0.101 0.171-0.193 0.328-0.331 0.557-0.054 0.091-0.062 0.202-0.022 0.3s0.124 0.17 0.226 0.197c0.939 0.239 1.367 0.605 1.367 0.844 0 0.432-1.259 1.059-3.23 1.059-1.972 0-3.23-0.627-3.23-1.059 0-0.433 1.258-1.06 3.23-1.06 0.356 0 0.705 0.021 1.037 0.062 0.014 2e-3 0.027 3e-3 0.041 3e-3m1.255-2.722c-0.11 0-0.216 0.055-0.279 0.15-0.267 0.404-0.521 0.83-0.765 1.242-0.128 0.215-0.255 0.429-0.384 0.64-2.095-0.208-4.804 0.379-4.804 1.685 0 1.122 2.009 1.728 3.899 1.728s3.899-0.606 3.899-1.728c0-0.564-0.521-1.051-1.446-1.367 0.039-0.065 0.076-0.127 0.113-0.192 0.135-0.229 0.284-0.483 0.577-0.971 0.071-0.118 0.062-0.268-0.022-0.377-0.055-0.07-0.124-0.167-0.193-0.265-0.276-0.389-0.36-0.506-0.531-0.539-0.022-4e-3 -0.043-6e-3 -0.064-6e-3" fill="#030303"/></g></g><g clip-path="url(#c)" opacity=".10001"><g transform="translate(31.406 4.8763)"><path d="m0 0h-7.761c-0.158 0-0.286 0.128-0.286 0.286 0 0.157 0.128 0.285 0.286 0.285h7.761c0.158 0 0.286-0.128 0.286-0.285 0-0.158-0.128-0.286-0.286-0.286" fill="#030303"/></g><g transform="translate(31.692 5.4475)"><path d="m0 0h3.111v13.11h-1.148c-1.082 0-1.963-0.881-1.963-1.963v-11.147zm3.682-0.571h-4.253v11.718c0 1.397 1.137 2.534 2.534 2.534h1.719v-14.252z" fill="#030303"/></g><g transform="translate(30.311 4.8763)"><path d="m0 0c-0.158 0-0.286 0.128-0.286 0.286v22.117c0 0.984 0.801 1.785 1.786 1.785h2.023v-10.221c0-0.158-0.127-0.286-0.285-0.286s-0.286 0.128-0.286 0.286v9.65h-1.452c-0.67 0-1.214-0.545-1.214-1.214v-22.117c0-0.158-0.128-0.286-0.286-0.286" fill="#030303"/></g><g transform="translate(29.168 4.8763)"><path d="m0 0c-0.158 0-0.286 0.128-0.286 0.286v34.56c0 0.984 0.801 1.785 1.786 1.785h2.023v-12.729c0-0.157-0.127-0.285-0.285-0.285s-0.286 0.128-0.286 0.285v12.158h-1.452c-0.67 0-1.214-0.544-1.214-1.214v-34.56c0-0.158-0.128-0.286-0.286-0.286" fill="#030303"/></g><g transform="translate(28.026 4.8763)"><path d="m0 0c-0.158 0-0.286 0.128-0.286 0.286v45.654c0 0.985 0.801 1.786 1.786 1.786h1.452v-11.38c0-0.158-0.128-0.286-0.286-0.286-0.157 0-0.285 0.128-0.285 0.286v10.809h-0.881c-0.67 0-1.214-0.545-1.214-1.215v-45.654c0-0.158-0.128-0.286-0.286-0.286" fill="#030303"/></g><g transform="translate(20.106 5.4475)"><path d="m0 0h3.111v5.75c0 1.083-0.881 1.964-1.963 1.964h-1.148v-7.714zm3.682-0.571h-4.253v8.856h1.719c1.397 0 2.534-1.137 2.534-2.535v-6.321z" fill="#030303"/></g><g transform="translate(24.598 4.8763)"><path d="m0 0c-0.158 0-0.286 0.128-0.286 0.286v15.07c0 0.669-0.544 1.214-1.214 1.214h-1.452v-7.999c0-0.158-0.128-0.286-0.286-0.286s-0.285 0.128-0.285 0.286v8.57h2.023c0.985 0 1.786-0.801 1.786-1.785v-15.07c0-0.158-0.128-0.286-0.286-0.286" fill="#030303"/></g><g transform="translate(25.74 4.8763)"><path d="m0 0c-0.158 0-0.286 0.128-0.286 0.286v26.037c0 0.67-0.544 1.214-1.214 1.214h-1.452v-10.682c0-0.157-0.128-0.285-0.286-0.285s-0.285 0.128-0.285 0.285v11.253h2.023c0.985 0 1.786-0.801 1.786-1.785v-26.037c0-0.158-0.128-0.286-0.286-0.286" fill="#030303"/></g><g transform="translate(26.883,4.8763)"><path d="m0 0c-0.158 0-0.286 0.128-0.286 0.286v38.464c0 0.67-0.544 1.215-1.214 1.215h-0.881v-12.142c0-0.158-0.128-0.286-0.285-0.286-0.158 0-0.286 0.128-0.286 0.286v12.713h1.452c0.985 0 1.786-0.801 1.786-1.786v-38.464c0-0.158-0.128-0.286-0.286-0.286" fill="#030303"/></g><g transform="translate(26.248 44.565)"><path d="m0 0c-0.158 0-0.286 0.128-0.286 0.286v13.607h4.142v-6.142c0-0.158-0.128-0.286-0.286-0.286-0.157 0-0.285 0.128-0.285 0.286v5.571h-2.999v-13.036c0-0.158-0.128-0.286-0.286-0.286" fill="#030303"/></g><g transform="translate(29.819 57.887)"><path d="m0 0c-0.158 0-0.286 0.128-0.286 0.286v2.603h-1.713v-2.603c0-0.158-0.128-0.286-0.286-0.286s-0.285 0.128-0.285 0.286v3.174h2.856v-3.174c0-0.158-0.128-0.286-0.286-0.286" fill="#030303"/></g><g transform="translate(27.534 60.427)"><path d="m0 0c-0.158 0-0.286 0.128-0.286 0.286v7.586h1.714v-7.237c0-0.158-0.128-0.286-0.286-0.286-0.157 0-0.285 0.128-0.285 0.286v6.666h-0.571v-7.015c0-0.158-0.128-0.286-0.286-0.286" fill="#030303"/></g><g transform="translate(27.534 67.521)"><path d="m0 0c-0.158 0-0.286 0.128-0.286 0.286v6.999h0.81v-6.678c0-0.142-0.103-0.259-0.238-0.282v-0.039c0-0.158-0.128-0.286-0.286-0.286" fill="#030303"/></g></g><g clip-path="url(#b)" opacity=".2"><g transform="translate(68.705 -.0195)"><path d="m0 0c-0.046 0-0.093 0.012-0.136 0.036-0.131 0.077-0.176 0.242-0.1 0.372 2.739 4.706 6.486 11.144 8.318 22.26 1.093 6.635 1.624 13.817 1.624 21.959 0 0.151 0.122 0.274 0.274 0.274 0.151 0 0.274-0.123 0.274-0.274 0-8.172-0.534-15.384-1.632-22.048-1.847-11.216-5.624-17.704-8.381-22.441-0.052-0.088-0.145-0.138-0.241-0.138" fill="#030303"/></g><g transform="translate(90.509 .1132)"><path d="m0 0c-2.761 4.743-6.537 11.23-8.385 22.446-1.098 6.664-1.632 13.876-1.632 22.048 0 0.152 0.123 0.274 0.274 0.274 0.152 0 0.274-0.122 0.274-0.274 0-8.142 0.532-15.324 1.625-21.959 1.831-11.116 5.578-17.553 8.314-22.254l-0.47-0.281z" fill="#030303"/></g><path d="m72.554 10.186h14.368v1.482h-14.368v-1.482zm14.916-0.548h-15.464v2.578h15.464v-2.578z" fill="#030303"/><path d="m76.323 23.138h6.83v0.312h-6.83v-0.312zm7.378-0.548h-7.926v1.408h7.926v-1.408z" fill="#030303"/><g transform="translate(78.571 45.151)"><path d="m0 0h2.305v1.814c0 0.635-0.517 1.152-1.152 1.152-0.636 0-1.153-0.517-1.153-1.152v-1.814zm2.853-0.548h-3.401v2.362c0 0.937 0.763 1.7 1.701 1.7 0.937 0 1.7-0.763 1.7-1.7v-2.362z" fill="#030303"/></g><g transform="translate(79.723 48.387)"><path d="m0 0c-0.151 0-0.274 0.123-0.274 0.274v2.831c0 0.151 0.123 0.274 0.274 0.274s0.274-0.123 0.274-0.274v-2.831c0-0.151-0.123-0.274-0.274-0.274" fill="#030303"/></g><g transform="translate(79.723 33.944)"><path d="m0 0c-0.151 0-0.274 0.123-0.274 0.274v9.124c0 0.152 0.123 0.274 0.274 0.274s0.274-0.122 0.274-0.274v-9.124c0-0.151-0.123-0.274-0.274-0.274" fill="#030303"/></g><g transform="translate(90.746 -.023)"><path d="m0 0h-5.393v0.274c0 3.712-2.519 6.733-5.615 6.733s-5.615-3.021-5.615-6.733v-0.274h-5.417c-0.152 0-0.274 0.123-0.274 0.274s0.122 0.274 0.274 0.274h4.873c0.123 3.888 2.838 7.007 6.159 7.007s6.036-3.119 6.159-7.007h4.849c0.151 0 0.274-0.123 0.274-0.274s-0.123-0.274-0.274-0.274" fill="#030303"/></g><g transform="translate(87.073 -.0227)"><path d="m0 0c-0.142 0-0.262 0.109-0.273 0.253-0.179 2.337-1.081 4.453-2.539 5.957-0.106 0.109-0.103 0.283 5e-3 0.388 0.109 0.105 0.282 0.103 0.388-6e-3 1.547-1.596 2.504-3.833 2.692-6.297 0.012-0.151-0.101-0.283-0.252-0.294-7e-3 -1e-3 -0.014-1e-3 -0.021-1e-3" fill="#030303"/></g><g transform="translate(72.433 -.023)"><path d="m0 0c-7e-3 0-0.014 0-0.021 1e-3 -0.151 0.011-0.264 0.143-0.252 0.294 0.187 2.445 1.132 4.67 2.66 6.264 0.105 0.109 0.278 0.113 0.387 8e-3 0.11-0.104 0.113-0.278 9e-3 -0.387-1.441-1.503-2.332-3.608-2.51-5.927-0.011-0.144-0.131-0.253-0.273-0.253" fill="#030303"/></g><g transform="translate(76.766 11.407)"><path d="m0 0c-0.025 0-0.051 3e-3 -0.076 0.011-0.146 0.042-0.229 0.194-0.187 0.339 0.573 1.981 1.788 8.455 1.788 9.084v0.274h1.435c0.152 0 0.274-0.123 0.274-0.274s-0.122-0.274-0.274-0.274h-0.91c-0.17-1.432-1.243-7.082-1.787-8.962-0.034-0.12-0.144-0.198-0.263-0.198" fill="#030303"/></g><g transform="translate(82.686,11.407)"><path d="m0 0c-0.119 0-0.229 0.078-0.263 0.198-0.544 1.879-1.617 7.53-1.787 8.962h-0.91c-0.152 0-0.274 0.123-0.274 0.274s0.122 0.274 0.274 0.274h1.435v-0.274c0-0.63 1.215-7.104 1.788-9.084 0.042-0.145-0.041-0.297-0.187-0.339-0.025-8e-3 -0.051-0.011-0.076-0.011" fill="#030303"/></g><g transform="translate(78.808 23.492)"><path d="m0 0c-0.013 0-0.025 1e-3 -0.038 3e-3 -0.15 0.02-0.254 0.159-0.234 0.308 9e-3 0.067 0.927 6.715 0.927 8.77 0 0.151 0.122 0.274 0.274 0.274 0.151 0 0.274-0.123 0.274-0.274 0-2.074 0.896-8.703 0.905-8.77 0.02-0.15-0.085-0.288-0.235-0.309-0.15-0.019-0.288 0.085-0.309 0.235-0.023 0.173-0.379 2.81-0.639 5.263-0.266-2.451-0.63-5.09-0.654-5.263-0.019-0.138-0.136-0.237-0.271-0.237" fill="#030303"/></g><g transform="translate(79.726 9.7904)"><path d="m0 0c-0.151 0-0.274 0.123-0.274 0.274v1.877c0 0.152 0.123 0.274 0.274 0.274s0.274-0.122 0.274-0.274v-1.877c0-0.151-0.123-0.274-0.274-0.274" fill="#030303"/></g><g transform="translate(81.22 9.7904)"><path d="m0 0c-0.151 0-0.274 0.123-0.274 0.274v1.877c0 0.152 0.123 0.274 0.274 0.274s0.274-0.122 0.274-0.274v-1.877c0-0.151-0.123-0.274-0.274-0.274" fill="#030303"/></g><g transform="translate(82.714 9.7904)"><path d="m0 0c-0.151 0-0.274 0.123-0.274 0.274v1.877c0 0.152 0.123 0.274 0.274 0.274s0.274-0.122 0.274-0.274v-1.877c0-0.151-0.123-0.274-0.274-0.274" fill="#030303"/></g><g transform="translate(84.208 9.7904)"><path d="m0 0c-0.151 0-0.274 0.123-0.274 0.274v1.877c0 0.152 0.123 0.274 0.274 0.274s0.274-0.122 0.274-0.274v-1.877c0-0.151-0.123-0.274-0.274-0.274" fill="#030303"/></g><g transform="translate(85.702 9.7904)"><path d="m0 0c-0.151 0-0.274 0.123-0.274 0.274v1.877c0 0.152 0.123 0.274 0.274 0.274s0.274-0.122 0.274-0.274v-1.877c0-0.151-0.123-0.274-0.274-0.274" fill="#030303"/></g><g transform="translate(73.774 9.7904)"><path d="m0 0c-0.151 0-0.274 0.123-0.274 0.274v1.877c0 0.152 0.123 0.274 0.274 0.274s0.274-0.122 0.274-0.274v-1.877c0-0.151-0.123-0.274-0.274-0.274" fill="#030303"/></g><g transform="translate(75.268 9.7904)"><path d="m0 0c-0.151 0-0.274 0.123-0.274 0.274v1.877c0 0.152 0.123 0.274 0.274 0.274s0.274-0.122 0.274-0.274v-1.877c0-0.151-0.123-0.274-0.274-0.274" fill="#030303"/></g><g transform="translate(76.762 9.7904)"><path d="m0 0c-0.151 0-0.274 0.123-0.274 0.274v1.877c0 0.152 0.123 0.274 0.274 0.274s0.274-0.122 0.274-0.274v-1.877c0-0.151-0.123-0.274-0.274-0.274" fill="#030303"/></g><g transform="translate(78.256 9.7904)"><path d="m0 0c-0.151 0-0.274 0.123-0.274 0.274v1.877c0 0.152 0.123 0.274 0.274 0.274s0.274-0.122 0.274-0.274v-1.877c0-0.151-0.123-0.274-0.274-0.274" fill="#030303"/></g></g><g clip-path="url(#a)" opacity=".10001"><g transform="translate(18.803 52.766)"><path d="m0 0c-1.478 0-2.68-1.202-2.68-2.68 0-1.477 1.202-2.679 2.68-2.679s2.68 1.202 2.68 2.679c0 1.478-1.202 2.68-2.68 2.68m0-5.93c-1.792 0-3.251 1.458-3.251 3.25 0 1.793 1.459 3.251 3.251 3.251s3.251-1.458 3.251-3.251c0-1.792-1.459-3.25-3.251-3.25" fill="#030303"/></g><g fill="#030303"><path d="m17.765 45.056h2.076v0.573h-2.076v-0.573zm2.647-0.571h-3.219v1.715h3.219v-1.715z"/><path d="m18.278 46.2h1.049v0.573h-1.049v-0.573zm1.621-0.572h-2.192v1.715h2.192v-1.715z"/><path d="m18.278 53.253h1.049v2.108h-1.049v-2.108zm1.335-0.572h-1.62c-0.158 0-0.286 0.128-0.286 0.286v2.679c0 0.158 0.128 0.286 0.286 0.286h1.62c0.158 0 0.286-0.128 0.286-0.286v-2.679c0-0.158-0.128-0.286-0.286-0.286"/></g><g transform="translate(17.07 14.387)"><path d="m0 0h3.467c-0.202 0.962-0.748 3.629-0.762 4.475-0.102 6.192-0.396 23.23-0.437 25.623h-1.069c-0.042-2.394-0.335-19.434-0.438-25.627-0.014-0.845-0.559-3.509-0.761-4.471m4.174-0.571h-4.881l0.075 0.346c8e-3 0.037 0.806 3.745 0.822 4.706 0.111 6.667 0.442 25.908 0.442 25.908l5e-3 0.28h2.193l4e-3 -0.28s0.332-19.238 0.442-25.904c0.016-0.962 0.815-4.673 0.823-4.71l0.075-0.346z" fill="#030303"/></g><path d="m16.182 13.031h5.243v0.785h-5.243v-0.785zm5.814-0.571h-6.385v1.927h6.385v-1.927z" fill="#030303"/><path d="m14.538 11.676h8.531v0.784h-8.531v-0.784zm9.102-0.572h-9.673v1.927h9.673v-1.927z" fill="#030303"/><g transform="translate(20.257 48.642)"><path d="m0 0h-4.183c-0.158 0-0.286 0.128-0.286 0.286 0 0.157 0.128 0.285 0.286 0.285h4.183c0.158 0 0.286-0.128 0.286-0.285 0-0.158-0.128-0.286-0.286-0.286" fill="#030303"/></g><g transform="translate(17.056 49.801)"><path d="m0 0c-0.158 0-0.286 0.128-0.286 0.286 0 0.784 0.54 2.008 2.027 2.169 0.162 0.016 0.298-0.097 0.314-0.254 0.017-0.157-0.096-0.298-0.253-0.314-1.2-0.13-1.516-1.104-1.516-1.601 0-0.158-0.128-0.286-0.286-0.286" fill="#030303"/></g><g transform="translate(18.385 55.903)"><path d="m0 0h0.8c-0.121 0.614-0.235 1.887-0.389 4.53-0.163-2.642-0.285-3.916-0.411-4.53m1.228-0.571h-1.62c-0.158 0-0.286 0.128-0.286 0.285 0 0.077 0.03 0.146 0.079 0.197 0.272 0.814 0.734 8.849 0.734 12.027 0 0.158 0.127 0.286 0.285 0.286s0.286-0.128 0.286-0.286c0-3.237 0.449-11.478 0.704-12.065-0.016 0.037-0.079 0.108-0.182 0.124v-0.568z" fill="#030303"/></g><g transform="translate(20.078 55.361)"><path d="m0 0h-2.538c-0.157 0-0.285 0.128-0.285 0.286 0 0.157 0.128 0.285 0.285 0.285h2.538c0.158 0 0.286-0.128 0.286-0.285 0-0.158-0.128-0.286-0.286-0.286" fill="#030303"/></g><g transform="translate(19.653 59.009)"><path d="m0 0h-1.688c-0.157 0-0.285 0.128-0.285 0.286 0 0.157 0.128 0.285 0.285 0.285h1.688c0.158 0 0.286-0.128 0.286-0.285 0-0.158-0.128-0.286-0.286-0.286" fill="#030303"/></g><g transform="translate(19.264 63.56)"><path d="m0 0h-0.909c-0.158 0-0.286 0.128-0.286 0.286 0 0.157 0.128 0.285 0.286 0.285h0.909c0.158 0 0.286-0.128 0.286-0.285 0-0.158-0.128-0.286-0.286-0.286" fill="#030303"/></g></g></g></g><g transform="translate(43.2 57.375)"><path d="m0 0c3.706 0 6.722-2.914 6.722-6.497 0-3.582-3.016-6.497-6.722-6.497s-6.722 2.915-6.722 6.497c0 3.583 3.016 6.497 6.722 6.497m0-13.894c4.209 0 7.622 3.312 7.622 7.397s-3.413 7.397-7.622 7.397-7.622-3.312-7.622-7.397 3.413-7.397 7.622-7.397" fill="#f60"/></g><g transform="translate(43.2 40.759)"><path d="m0 0c6.173 0 11.346-4.175 12.696-9.759h0.93c-1.363 6.085-6.952 10.659-13.626 10.659s-12.263-4.574-13.626-10.659h0.93c1.35 5.584 6.523 9.759 12.696 9.759" fill="#f60"/></g></g></g></svg>
