<svg xmlns="http://www.w3.org/2000/svg" xmlns:xlink="http://www.w3.org/1999/xlink" width="25" height="18" viewBox="0 0 25 18">
  <defs>
    <clipPath id="clip-Categories_7">
      <rect width="25" height="18"/>
    </clipPath>
  </defs>
  <g id="Categories_7" data-name="Categories – 7" clip-path="url(#clip-Categories_7)">
    <path id="Path_7831" data-name="Path 7831" d="M-65-2052.435a.212.212,0,0,0-.061-.291v-4.854a.385.385,0,0,0,.066-.4l.143-.61.014-.036.238-.469c.018-.028.071-.025.066-.073a.255.255,0,0,0,.1-.144l.013-.006,0-.014a.1.1,0,0,0,.066-.086.163.163,0,0,0,.083-.1.906.906,0,0,0,.211-.219.476.476,0,0,0,.172-.148.092.092,0,0,0,.076-.068l.1-.076a.205.205,0,0,0,.127-.1l.665-.369a.343.343,0,0,0,.238-.1.688.688,0,0,0-.275-.007l-.253-.017a.407.407,0,0,0-.253-.026.638.638,0,0,0-.247-.01l-.074-.006a1.445,1.445,0,0,0-.5-.035l-.219-.152-.091-.1a1.036,1.036,0,0,1-.1-.4l0-.362.015-.073.094-.19a.167.167,0,0,0,.082-.092l.1-.074c.086-.022.171-.048.258-.064.175-.032.356-.006.53-.055a1.521,1.521,0,0,0,.363-.026.591.591,0,0,0,.251-.016.6.6,0,0,0,.252-.022l.214.007a.066.066,0,0,0,.075.02l.1.019a.538.538,0,0,0,.219.1l.172.113c.079.13.144.117.2-.02.017-.044.036-.087.054-.131a1.033,1.033,0,0,0,.162-.3.1.1,0,0,0,.051-.094.023.023,0,0,0,.014-.029.17.17,0,0,0,.065-.114l.016-.044a.615.615,0,0,0,.132-.244.282.282,0,0,0,.083-.157.6.6,0,0,0,.13-.239l.047-.092a.144.144,0,0,0,.063-.124.068.068,0,0,0,.037-.072,1.051,1.051,0,0,0,.167-.289l.13-.2a.1.1,0,0,0,.058-.088l.043-.066a.082.082,0,0,0,.06-.078l.37-.392a.1.1,0,0,0,.079-.069l.206-.153a.107.107,0,0,0,.089-.06l.059-.039.405-.214.06-.046c.165.019.273-.139.432-.141l.035.007c.026.021.05.01.073-.007l.07-.006a4.79,4.79,0,0,0,.71-.081l.01-.006a.372.372,0,0,0,.179-.005.788.788,0,0,0,.382-.03l.339-.017.181,0a.092.092,0,0,0,.1-.006.205.205,0,0,0,.147-.017l.467-.015.287,0h.143c.077,0,.155.005.232,0,.789-.007,1.578-.016,2.367-.019.49,0,.98.007,1.469.011l.359,0h.072l.722.033a.094.094,0,0,0,.1,0h.073l.458.012,0,0a.271.271,0,0,0,.227.021.626.626,0,0,0,.253.009.139.139,0,0,0,.11.014.689.689,0,0,0,.325.035l.106.008a.383.383,0,0,0,.218.032l.141.008.145.034c.022.021.046.029.071.005a.228.228,0,0,0,.145.062.318.318,0,0,0,.18.076l.125.053a.236.236,0,0,0,.164.089l.032.013a.485.485,0,0,0,.169.111.091.091,0,0,0,.086.06l.211.158.375.385a.178.178,0,0,0,.084.1l.275.407a.543.543,0,0,0,.13.218.531.531,0,0,0,.113.214,2.219,2.219,0,0,0,.248.469.251.251,0,0,0,.075.143.96.96,0,0,0,.151.29l.222.427a.238.238,0,0,0,.088.155c.022.056.028.141.123.082s.16-.109.239-.164a.466.466,0,0,0,.2-.091l.372-.052a1.75,1.75,0,0,0,.433.033l.468.031a1.376,1.376,0,0,0,.46.03h.015a.274.274,0,0,0,.174.031l.07.019c.013.033.041.039.071.038l.067.047a1.2,1.2,0,0,1,.213.315l.016.429a.962.962,0,0,1-.1.4l-.158.162-.149.085c-.026-.031-.049-.01-.072.005l-.07.007a1.062,1.062,0,0,0-.36.034l-.252.01a.586.586,0,0,0-.287.03l-.25.016a.839.839,0,0,0-.3.012.359.359,0,0,0,.227.107l.01.008.012,0a.589.589,0,0,0,.267.134l.2.117a.1.1,0,0,0,.088.056l.128.088a.092.092,0,0,0,.087.062l.06.044a.3.3,0,0,0,.157.13l.394.4a.2.2,0,0,0,.1.123l.172.244.234.461.05.143a4.242,4.242,0,0,1,.126.542c-.053.042-.038.1-.023.148a2.306,2.306,0,0,1,.063.692c0,1.34,0,2.68,0,4.02,0,.216-.059.426-.04.641a1.155,1.155,0,0,1-.216.469l-.107.08a.294.294,0,0,0-.142.072l-.073.021a.09.09,0,0,0-.1.029c-.092.091-.031.2-.039.3q0,.234,0,.469,0,.215,0,.431l-.005.217-.075.251-.01.006v.011a.4.4,0,0,0-.1.164l-.077.1-.189.186-.274.083a.308.308,0,0,0-.179.035.938.938,0,0,0-.29,0,1.6,1.6,0,0,0-.431,0,1.578,1.578,0,0,0-.433,0,.655.655,0,0,0-.252,0,.377.377,0,0,0-.179-.032,1.75,1.75,0,0,1-.359-.153.06.06,0,0,0-.057-.043,2.146,2.146,0,0,1-.271-.363l-.049-.166a.147.147,0,0,0-.02-.111l-.006-.144q0-.234,0-.469c0-.149,0-.3,0-.448.019-.306.019-.306-.171-.3a.823.823,0,0,0-.329,0l-.141.006a1.993,1.993,0,0,0-.432-.005.817.817,0,0,0-.327,0l-.14.006a1.319,1.319,0,0,0-.36,0,1.152,1.152,0,0,0-.4,0l-.14.006a1.978,1.978,0,0,0-.432-.006.817.817,0,0,0-.328,0l-.14.006a1.978,1.978,0,0,0-.432-.006.817.817,0,0,0-.327,0l-.14.006a1.978,1.978,0,0,0-.432-.006.817.817,0,0,0-.328,0l-.14.006a1.978,1.978,0,0,0-.432-.006.817.817,0,0,0-.328,0l-.14.006a1.978,1.978,0,0,0-.432-.006.817.817,0,0,0-.328,0l-.14.006a1.978,1.978,0,0,0-.432-.006.817.817,0,0,0-.328,0l-.14.006a1.978,1.978,0,0,0-.432-.006.817.817,0,0,0-.328,0l-.1.006a2.016,2.016,0,0,0-.468,0,1.79,1.79,0,0,0-.467,0,1.978,1.978,0,0,0-.432-.006.817.817,0,0,0-.328,0l-.14.006a1.978,1.978,0,0,0-.432-.006.817.817,0,0,0-.328,0l-.14.006a1.319,1.319,0,0,0-.36,0,1.152,1.152,0,0,0-.4,0l-.14.006a1.319,1.319,0,0,0-.36,0,1.152,1.152,0,0,0-.4,0l-.14.006a1.319,1.319,0,0,0-.36,0,1.152,1.152,0,0,0-.4,0l-.14.006a1.978,1.978,0,0,0-.432-.006.817.817,0,0,0-.328,0l-.1.006c-.1-.036-.109.024-.108.1q0,.555.007,1.108l-.057.376a1.068,1.068,0,0,1-.885.636,1.089,1.089,0,0,0-.325,0,1.578,1.578,0,0,0-.433,0,1.866,1.866,0,0,0-.467,0,.238.238,0,0,0-.146,0l-.179-.03-.071-.011a.075.075,0,0,0-.073-.03l-.052-.017a.1.1,0,0,0-.093-.051.083.083,0,0,0-.072-.042.3.3,0,0,0-.136-.115l-.188-.286-.057-.178-.014-.073-.007-.181v-.9c-.011-.114.062-.238-.039-.341a.078.078,0,0,0-.1-.024c-.05,0-.087-.051-.141-.027A.92.92,0,0,1-65-2052.435Zm5.223-4.97h0a.084.084,0,0,0-.074-.071,1.525,1.525,0,0,0-.435-.243.055.055,0,0,0-.071-.015l-.109-.017a.934.934,0,0,0-.322-.068l-.107-.013a5.214,5.214,0,0,0-.684-.129l-.073-.008A.2.2,0,0,0-61.8-2058l-.107-.009a.064.064,0,0,0-.072-.018,1.238,1.238,0,0,0-.36-.062.14.14,0,0,0-.11-.02.1.1,0,0,0-.107-.027l-.108-.013a.17.17,0,0,0-.143-.032l-.072-.007a.13.13,0,0,0-.108-.027l-.155-.022a.188.188,0,0,0-.17-.03.187.187,0,0,0-.141,0,.1.1,0,0,0-.123.034.268.268,0,0,0-.2.123.253.253,0,0,0-.125.18.221.221,0,0,0-.048.174,2.534,2.534,0,0,0,0,.466v.433a.364.364,0,0,0,0,.178.339.339,0,0,0,.086.24c0,.026,0,.048.031.056a.341.341,0,0,0,.15.163.077.077,0,0,0,.067.054.442.442,0,0,0,.3.123l.069.005h.074l.324.005a.54.54,0,0,0,.254.01.462.462,0,0,0,.211.011.436.436,0,0,0,.218.008.938.938,0,0,0,.287.008,2.111,2.111,0,0,0,.434.01.639.639,0,0,0,.29.015.763.763,0,0,0,.32.013.855.855,0,0,0,.285.007,2.137,2.137,0,0,0,.61.015.353.353,0,0,0,.292-.094.4.4,0,0,0,.214-.361,1.06,1.06,0,0,0-.051-.429.063.063,0,0,0-.025-.074l-.013-.07a.085.085,0,0,0-.039-.1.6.6,0,0,0-.161-.267A.084.084,0,0,0-59.779-2057.4Zm16.151-.868h-.1a.124.124,0,0,0-.135.025l-.013,0a1.568,1.568,0,0,0-.5.089l-.108.013a.1.1,0,0,0-.107.026.422.422,0,0,0-.225.043l-.209.032a.121.121,0,0,0-.109.026l-.108.01a.182.182,0,0,0-.141.033l-.072.008a.161.161,0,0,0-.142.032.146.146,0,0,0-.109.02.053.053,0,0,0-.072.013l-.147.027a.248.248,0,0,0-.18.037l-.072.005a.134.134,0,0,0-.106.017.063.063,0,0,0-.073.017l-.108.013a.163.163,0,0,0-.138.035l0,0a.561.561,0,0,0-.326.092.117.117,0,0,0-.109.067h0a.694.694,0,0,0-.315.292.523.523,0,0,0-.149.286.417.417,0,0,0-.064.215,2.156,2.156,0,0,0-.054.3.5.5,0,0,0,.514.554.18.18,0,0,0,.173,0,.424.424,0,0,0,.218-.008.165.165,0,0,0,.143-.005,1.361,1.361,0,0,0,.362-.009.765.765,0,0,0,.32-.013.382.382,0,0,0,.217-.012,2.087,2.087,0,0,0,.435-.012,1.64,1.64,0,0,0,.433-.014,1.873,1.873,0,0,0,.466-.021.208.208,0,0,0,.144,0l.289-.006h.106a.405.405,0,0,0,.309-.09.056.056,0,0,0,.056-.036.07.07,0,0,0,.068-.045.157.157,0,0,0,.108-.108.068.068,0,0,0,.045-.064h0a.431.431,0,0,0,.127-.334q0-.071,0-.142,0-.216,0-.433v-.43a.34.34,0,0,0-.088-.276.181.181,0,0,0-.091-.118.109.109,0,0,0-.1-.075.169.169,0,0,0-.137-.057A.1.1,0,0,0-43.627-2058.272Zm-17.133-3.645a.541.541,0,0,0-.13.234l-.049.095a.518.518,0,0,0-.126.231c-.043.077-.09.151-.129.23s-.126.158-.09.215.16.015.244.021c.06.039.12.01.179,0l.144-.006a1.278,1.278,0,0,0,.395-.035l.251-.012a11.007,11.007,0,0,0,1.216-.072.137.137,0,0,0,.118-.007,2.5,2.5,0,0,0,.468-.009h.109a.128.128,0,0,0,.106,0,.431.431,0,0,0,.211-.01,3.352,3.352,0,0,0,.547-.02.772.772,0,0,0,.287,0l.073,0,.194,0h.236c.639-.005,1.277-.005,1.915-.017a5.985,5.985,0,0,0,.821-.017h.432c.9.027,1.8.036,2.7.031l.466,0,.253.005a.314.314,0,0,0,.18,0,2.163,2.163,0,0,0,.463.012,1.519,1.519,0,0,0,.436.019,2.362,2.362,0,0,0,.468.008,1.048,1.048,0,0,0,.362.022.436.436,0,0,0,.251.012.669.669,0,0,0,.286.008.283.283,0,0,0,.184.013.766.766,0,0,0,.322.027l.323.015a3.258,3.258,0,0,0,.648.051.412.412,0,0,0,.214.024c.027.005.057.015.05-.032a3.317,3.317,0,0,0-.281-.54.238.238,0,0,0-.088-.155l-.048-.1a3.232,3.232,0,0,0-.293-.546.364.364,0,0,0-.092-.176,1.289,1.289,0,0,0-.17-.327l-.165-.317a.877.877,0,0,0-.166-.3.134.134,0,0,0-.053-.1.1.1,0,0,0-.054-.092.057.057,0,0,0-.036-.057.814.814,0,0,0-.22-.321.833.833,0,0,0-.22-.251.082.082,0,0,0-.074-.069.277.277,0,0,0-.137-.114.083.083,0,0,0-.08-.059.016.016,0,0,0-.021-.016.1.1,0,0,0-.086-.059,1.538,1.538,0,0,0-.516-.236.072.072,0,0,0-.1-.029l-.179-.02a.434.434,0,0,0-.252-.03l-.143-.008a.721.721,0,0,0-.324-.035l-.214-.007a1.75,1.75,0,0,0-.433-.03,2.05,2.05,0,0,0-.469-.018.077.077,0,0,0-.081-.007,1.137,1.137,0,0,0-.457-.023,1.233,1.233,0,0,0-.357,0,1.635,1.635,0,0,0-.469-.008.152.152,0,0,0-.112-.009c-.036-.032-.08-.02-.12-.021-.818,0-1.635-.006-2.453,0a1.9,1.9,0,0,0-.479.025,1.759,1.759,0,0,0-.437.014,1.754,1.754,0,0,0-.429.007,1.184,1.184,0,0,0-.458.019l-.006.005a2.322,2.322,0,0,0-.436.013h-.072a.1.1,0,0,0-.106.005.543.543,0,0,0-.254.027l-.358.013a.476.476,0,0,0-.251.033l-.144.008a.327.327,0,0,0-.216.031l-.072.013a.077.077,0,0,0-.1.035l-.05.016a.921.921,0,0,0-.362.172.586.586,0,0,0-.288.178.84.84,0,0,0-.323.294.238.238,0,0,0-.111.132c-.118.081-.131.232-.22.332a.2.2,0,0,0-.074.123.327.327,0,0,0-.092.169.187.187,0,0,0-.057.117.108.108,0,0,0-.055.1,1.912,1.912,0,0,0-.209.387,2.546,2.546,0,0,0-.249.475l-.025.047a.55.55,0,0,0-.13.241l-.01.006Z" transform="translate(66.051 2066.771)" fill="#9c0"/>
  </g>
</svg>
