<svg xmlns="http://www.w3.org/2000/svg" xmlns:xlink="http://www.w3.org/1999/xlink" width="23" height="25" viewBox="0 0 23 25">
  <defs>
    <clipPath id="clip-Categories_12">
      <rect width="23" height="25"/>
    </clipPath>
  </defs>
  <g id="Categories_12" data-name="Categories – 12" clip-path="url(#clip-Categories_12)">
    <g id="Group_2560" data-name="Group 2560" transform="translate(-712.97 -16)">
      <path id="Path_7847" data-name="Path 7847" d="M575.562-362.913a.575.575,0,0,1-.511.629,4.768,4.768,0,0,1-.7.031h-.942V-363.6h.82a3.478,3.478,0,0,1,.9.072A.594.594,0,0,1,575.562-362.913Z" transform="translate(152.391 392.045)" fill="#fff"/>
      <path id="Path_7848" data-name="Path 7848" d="M575.375-416.344q0,.5-.561.572-.141.016-.736.015h-.668v-1.164h.583q.725,0,.87.019A.51.51,0,0,1,575.375-416.344Z" transform="translate(152.391 443.362)" fill="#fff"/>
      <path id="Path_7849" data-name="Path 7849" d="M264.532-593h-2.624c-1.078-.015-1.666,1.108-2.522,1.108a2.43,2.43,0,0,1-1.1-.26l-2.439,1.57a.177.177,0,0,1-.243-.247L257.045-593H245.56a1.56,1.56,0,0,0-1.56,1.56v17.506a1.56,1.56,0,0,0,1.56,1.56h11.563a1.323,1.323,0,0,0,1.323-1.323V-578.1a1.421,1.421,0,0,1,1.421-1.421h4.9a1.323,1.323,0,0,0,1.323-1.323V-591.44A1.56,1.56,0,0,0,264.532-593Zm-13.483,9.5a2.084,2.084,0,0,1-.321-1.206,2.077,2.077,0,0,1,.313-1.206,1.231,1.231,0,0,1,1.084-.523,1.218,1.218,0,0,1,1.076.515,2.077,2.077,0,0,1,.309,1.2,2.136,2.136,0,0,1-.309,1.209,1.215,1.215,0,0,1-1.076.542A1.227,1.227,0,0,1,251.049-583.5Zm-2.244-.53a3.208,3.208,0,0,1-.11.961,1.451,1.451,0,0,1-1.561.973q-1.545,0-1.553-1.644l.962-.107a1.318,1.318,0,0,0,.126.611.545.545,0,0,0,.5.271.532.532,0,0,0,.546-.313,2.1,2.1,0,0,0,.076-.687v-3.251h1.015Zm10.177,1.572a1.459,1.459,0,0,1-.683.24q-.313.035-1.225.034h-1.713v-5.033h2.011q.527,0,.733.023a1.573,1.573,0,0,1,.687.233,1.164,1.164,0,0,1,.538,1.011,1.169,1.169,0,0,1-.19.649,1.2,1.2,0,0,1-.515.443,1.177,1.177,0,0,1,.954,1.217A1.358,1.358,0,0,1,258.982-582.462Zm5.041-.366a1.462,1.462,0,0,1-.672.546,2.856,2.856,0,0,1-1.1.183,1.819,1.819,0,0,1-2.076-1.725l.988-.1a1.025,1.025,0,0,0,1.1.962,1.335,1.335,0,0,0,.652-.149.59.59,0,0,0,.336-.542q0-.359-.469-.523-.172-.061-.816-.221a2.76,2.76,0,0,1-1.145-.5,1.311,1.311,0,0,1-.465-1.015,1.251,1.251,0,0,1,.236-.744,1.4,1.4,0,0,1,.611-.485,2.526,2.526,0,0,1,.992-.175,2.326,2.326,0,0,1,1.328.339,1.414,1.414,0,0,1,.6,1.187l-1.019.042a.844.844,0,0,0-.294-.568,1.057,1.057,0,0,0-.63-.157,1.179,1.179,0,0,0-.694.179.371.371,0,0,0-.16.313.383.383,0,0,0,.153.305,2.816,2.816,0,0,0,.942.355,6.55,6.55,0,0,1,1.088.344,1.377,1.377,0,0,1,.755,1.316A1.448,1.448,0,0,1,264.023-582.828Z" transform="translate(469.424 612.827)" fill="#fff"/>
      <path id="Path_7850" data-name="Path 7850" d="M612.806-670.847a1.649,1.649,0,0,1-.677,1.334,1.643,1.643,0,0,1-.976.319,1.643,1.643,0,0,1-.976-.319,1.65,1.65,0,0,1-.677-1.334,1.653,1.653,0,0,1,1.653-1.653A1.653,1.653,0,0,1,612.806-670.847Z" transform="translate(117.656 689.044)" fill="#fff"/>
      <path id="Path_7851" data-name="Path 7851" d="M.912,0H5.473a.906.906,0,0,1,.912.9V5.219a.906.906,0,0,1-.912.9H.912A.906.906,0,0,1,0,5.219V.9A.906.906,0,0,1,.912,0Z" transform="translate(728.986 34.394)" fill="#fff"/>
    </g>
  </g>
</svg>
