<?xml version="1.0" encoding="UTF-8" standalone="no"?><!-- Generator: Gravit.io --><svg xmlns="http://www.w3.org/2000/svg" xmlns:xlink="http://www.w3.org/1999/xlink" style="isolation:isolate" viewBox="0 0 20 20" width="20pt" height="20pt"><defs><clipPath id="_clipPath_RB4Mbw3CESohSlGnVRO4dqJjBlut2fKT"><rect width="20" height="20"/></clipPath></defs><g clip-path="url(#_clipPath_RB4Mbw3CESohSlGnVRO4dqJjBlut2fKT)"><path d=" M 5.537 16.305 C 6.057 16.281 6.547 16.545 6.814 16.991 C 7.081 17.438 7.081 17.995 6.814 18.441 C 6.547 18.888 6.057 19.151 5.537 19.127 C 5.017 19.151 4.527 18.888 4.26 18.441 C 3.993 17.995 3.993 17.438 4.26 16.991 C 4.527 16.545 5.017 16.281 5.537 16.305 Z  M 16.507 16.305 C 17.276 16.343 17.874 16.99 17.85 17.76 C 17.825 18.531 17.188 19.139 16.418 19.129 C 15.647 19.118 15.028 18.491 15.025 17.721 C 15.034 17.336 15.194 16.971 15.472 16.706 C 15.75 16.44 16.122 16.296 16.507 16.305 Z  M 1.001 0.872 L 1.1 0.88 L 3.427 1.214 C 3.749 1.263 3.997 1.523 4.031 1.847 L 4.031 1.847 L 4.216 3.934 C 4.249 4.235 4.506 4.462 4.809 4.456 L 17.979 4.456 C 18.51 4.437 19.019 4.668 19.354 5.081 C 19.712 5.532 19.848 6.12 19.724 6.682 L 19.724 6.682 L 18.798 12.793 C 18.593 13.99 17.545 14.857 16.331 14.833 L 5.693 14.833 C 4.428 14.858 3.353 13.913 3.216 12.655 L 3.216 12.655 L 2.316 2.501 L 0.847 2.258 C 0.661 2.231 0.495 2.131 0.383 1.98 C 0.272 1.83 0.224 1.641 0.252 1.456 C 0.334 1.068 0.709 0.814 1.1 0.88 L 1.001 0.872 Z  M 14.771 7.903 L 12.07 7.903 C 11.812 7.891 11.569 8.022 11.437 8.243 C 11.305 8.464 11.305 8.739 11.437 8.96 C 11.569 9.181 11.812 9.312 12.07 9.3 L 14.77 9.3 C 15.028 9.312 15.271 9.181 15.403 8.96 C 15.535 8.739 15.535 8.464 15.403 8.243 C 15.271 8.022 15.028 7.891 14.77 7.903 L 14.771 7.903 Z " fill="rgb(153,204,0)"/></g></svg>