<svg xmlns="http://www.w3.org/2000/svg" xmlns:xlink="http://www.w3.org/1999/xlink" width="24" height="20" viewBox="0 0 24 20">
  <defs>
    <clipPath id="clip-Categories_6">
      <rect width="24" height="20"/>
    </clipPath>
  </defs>
  <g id="Categories_6" data-name="Categories – 6" clip-path="url(#clip-Categories_6)">
    <path id="Path_7830" data-name="Path 7830" d="M58.85,157.63c-.337.008-.343,0-.343-.337q0-6.387,0-12.773a.6.6,0,0,0-.468-.642.962.962,0,0,0-.21-.015H53.383c-.188,0-.223-.034-.223-.215,0-.788,0-1.576,0-2.364,0-.095.026-.126.121-.137a.325.325,0,0,0,.306-.352q0-.264,0-.529a.336.336,0,0,0-.3-.358c-.027,0-.055,0-.082,0H42.645c-.031,0-.063,0-.094,0a.331.331,0,0,0-.306.364c0,.177,0,.353,0,.529a.318.318,0,0,0,.3.346c.1.014.13.057.129.153,0,.784,0,1.568,0,2.352,0,.178-.036.213-.213.213H37.669a.611.611,0,0,0-.689.685V157.37c0,.039,0,.078,0,.118,0,.1-.05.142-.145.143s-.172,0-.259,0a.334.334,0,0,0-.354.354q0,.318,0,.635a.329.329,0,0,0,.3.354c.039,0,.078,0,.117,0H58.8c.051,0,.1,0,.152.006a.349.349,0,0,0,.327-.265v-.824A.4.4,0,0,0,58.85,157.63Zm-19.8-10.659c0-.222.1-.322.324-.322q.929,0,1.857,0c.225,0,.325.1.325.32q0,.935,0,1.869a.277.277,0,0,1-.318.317H39.369c-.219,0-.319-.1-.32-.327,0-.31,0-.619,0-.929S39.048,147.281,39.049,146.971Zm2.507,8.685a.271.271,0,0,1-.31.31q-.946,0-1.892,0a.268.268,0,0,1-.3-.3q0-.946,0-1.893a.272.272,0,0,1,.3-.305c.317,0,.635,0,.952,0h.94a.273.273,0,0,1,.31.311Q41.558,154.716,41.555,155.656Zm0-3.32a.264.264,0,0,1-.3.284q-.952,0-1.9,0a.27.27,0,0,1-.3-.305q0-.946,0-1.893a.269.269,0,0,1,.305-.3h1.9a.263.263,0,0,1,.3.288Q41.56,151.372,41.555,152.336Zm2.86-8.769c0-.225.1-.319.323-.32.31,0,.619,0,.929,0s.627,0,.94,0c.218,0,.314.1.314.317q0,.934,0,1.869c0,.217-.1.315-.317.315H44.734c-.222,0-.32-.1-.32-.324Q44.413,144.5,44.414,143.567Zm0,3.442a.269.269,0,0,1,.3-.3c.317,0,.635,0,.952,0s.635,0,.952,0a.265.265,0,0,1,.3.3q0,.958,0,1.916a.259.259,0,0,1-.292.29q-.958,0-1.916,0a.265.265,0,0,1-.3-.3Q44.411,147.961,44.413,147.009Zm.32,5.553c-.223,0-.321-.1-.321-.325q0-.929,0-1.857c0-.224.1-.324.32-.325h.929c.313,0,.627,0,.94,0,.211,0,.313.1.314.307q0,.946,0,1.893c0,.209-.1.307-.314.307Q45.668,152.564,44.733,152.562Zm5,4.737c0,.225-.1.322-.321.322H46.471c-.228,0-.324-.095-.324-.319q0-1.475,0-2.951c0-.227.095-.32.321-.32h2.939c.232,0,.324.093.324.329q0,.735,0,1.469T49.732,157.3Zm1.686-5.058c0,.223-.1.321-.325.322H49.235c-.225,0-.324-.1-.325-.322,0-.314,0-.627,0-.941s0-.611,0-.917c0-.23.1-.327.33-.328h1.846c.231,0,.331.1.331.328Q51.419,151.312,51.418,152.241Zm0-3.335c0,.21-.1.307-.311.308-.314,0-.627,0-.94,0s-.627,0-.94,0c-.218,0-.314-.1-.314-.317q0-.935,0-1.869a.277.277,0,0,1,.318-.315H51.1c.217,0,.319.1.32.313Q51.419,147.965,51.417,148.905Zm0-3.464a.272.272,0,0,1-.313.307H49.223a.272.272,0,0,1-.313-.307q0-.946,0-1.893a.266.266,0,0,1,.3-.3q.958,0,1.916,0a.266.266,0,0,1,.3.3Q51.42,144.495,51.417,145.441Zm5.02,10.225a.261.261,0,0,1-.293.3q-.958,0-1.916,0c-.2,0-.29-.1-.291-.3,0-.317,0-.634,0-.952s0-.635,0-.952a.264.264,0,0,1,.3-.295h1.9a.265.265,0,0,1,.3.3Q56.439,154.715,56.437,155.666Zm0-3.352c0,.213-.1.305-.31.306H54.246c-.214,0-.308-.093-.308-.308q0-.94,0-1.88c0-.221.092-.311.316-.312h.94c.313,0,.627,0,.94,0a.264.264,0,0,1,.3.3Q56.439,151.368,56.437,152.314Zm0-3.461a.27.27,0,0,1-.306.3q-.946,0-1.892,0a.27.27,0,0,1-.3-.306c0-.317,0-.635,0-.952s0-.627,0-.94a.268.268,0,0,1,.3-.307q.952,0,1.9,0a.266.266,0,0,1,.3.3Q56.439,147.9,56.437,148.854Z" transform="translate(-35.752 -139.442)" fill="#9c0"/>
  </g>
</svg>
