<svg xmlns="http://www.w3.org/2000/svg" xmlns:xlink="http://www.w3.org/1999/xlink" width="23" height="23" viewBox="0 0 23 23">
  <defs>
    <clipPath id="clip-Categories_8">
      <rect width="23" height="23"/>
    </clipPath>
  </defs>
  <g id="Categories_8" data-name="Categories – 8" clip-path="url(#clip-Categories_8)">
    <g id="Group_2554" data-name="Group 2554" transform="translate(-249.623 -128.441)">
      <path id="Rectangle_3604" data-name="Rectangle 3604" d="M0,0H13.274a0,0,0,0,1,0,0V1.425a3,3,0,0,1-3,3H3a3,3,0,0,1-3-3V0A0,0,0,0,1,0,0Z" transform="translate(250.623 146.191)" fill="#fff"/>
      <path id="Subtraction_2" data-name="Subtraction 2" d="M-694.443-2218.075h-8.934v-1.425a3,3,0,0,1,3-3h7.275a2.981,2.981,0,0,1,1.23.263,6.629,6.629,0,0,0-2.57,4.161Z" transform="translate(954 2352)" fill="#fff"/>
      <path id="Subtraction_3" data-name="Subtraction 3" d="M-690.1-2207.074h-13.274v-9.734h8.832a6.679,6.679,0,0,0,4.442,6.182v3.551Z" transform="translate(954 2352)" fill="#fff"/>
      <path id="Subtraction_4" data-name="Subtraction 4" d="M-697.722-2212.25a5.661,5.661,0,0,1-5.655-5.655,5.661,5.661,0,0,1,5.655-5.655,5.661,5.661,0,0,1,5.654,5.655A5.661,5.661,0,0,1-697.722-2212.25ZM-699-2217a.523.523,0,0,0-.108.011.525.525,0,0,0-.332.232.468.468,0,0,0-.106.355.469.469,0,0,0,.185.322,2.816,2.816,0,0,0,1.119.468v.573a.521.521,0,0,0,.521.52.521.521,0,0,0,.52-.52v-.573a1.637,1.637,0,0,0,.78-.338,1.279,1.279,0,0,0,.521-1.04c0-.968-.876-1.274-1.64-1.432-.911-.182-.911-.341-.911-.468a.228.228,0,0,1,.1-.2l.033-.032a.881.881,0,0,1,.419-.106h.064a1.638,1.638,0,0,1,.844.234.47.47,0,0,0,.3.106.478.478,0,0,0,.085-.008.47.47,0,0,0,.321-.228.5.5,0,0,0,.111-.388.5.5,0,0,0-.215-.341,2.361,2.361,0,0,0-.806-.312v-.6a.521.521,0,0,0-.52-.52.521.521,0,0,0-.521.52v.572a1.4,1.4,0,0,0-1.3,1.354c0,.7.86,1.275,1.691,1.431.859.161.859.353.859.468s-.275.365-.651.365h-.037a1.747,1.747,0,0,1-1.03-.339A.522.522,0,0,0-699-2217Z" transform="translate(963.832 2353)" fill="#fff"/>
    </g>
  </g>
</svg>
