<svg xmlns="http://www.w3.org/2000/svg" xmlns:xlink="http://www.w3.org/1999/xlink" width="25" height="22" viewBox="0 0 25 22">
  <defs>
    <clipPath id="clip-Categories_11">
      <rect width="25" height="22"/>
    </clipPath>
  </defs>
  <g id="Categories_11" data-name="Categories – 11" clip-path="url(#clip-Categories_11)">
    <g id="Group_2557" data-name="Group 2557" transform="translate(-158.581 -18.758)">
      <path id="Subtraction_1" data-name="Subtraction 1" d="M-730.667-2316.19h-2.214a2,2,0,0,1-2-2v-9.167h-6.992v9.167a2,2,0,0,1-2,2h-2.215a2,2,0,0,1-2-2v-11.448a1.533,1.533,0,0,0,.384-.286,1.639,1.639,0,0,0,1.166.474,1.635,1.635,0,0,0,1.166-.475,1.638,1.638,0,0,0,1.167.475,1.635,1.635,0,0,0,1.165-.474,1.628,1.628,0,0,0,1.162.474,1.63,1.63,0,0,0,1.165-.475,1.631,1.631,0,0,0,1.166.475,1.631,1.631,0,0,0,1.165-.475,1.641,1.641,0,0,0,1.166.475,1.633,1.633,0,0,0,1.166-.474,1.621,1.621,0,0,0,1.162.474,1.632,1.632,0,0,0,1.166-.475,1.629,1.629,0,0,0,1.165.475,1.642,1.642,0,0,0,1.166-.475,1.629,1.629,0,0,0,1.165.475,1.635,1.635,0,0,0,1.165-.474,1.514,1.514,0,0,0,.39.288v.884l0,10.562A2,2,0,0,1-730.667-2316.19Z" transform="translate(909.46 2356.704)" fill="#9c0"/>
      <rect id="Rectangle_3611" data-name="Rectangle 3611" width="0.777" height="11.863" rx="0.388" transform="translate(170.693 28.65)" fill="#9c0"/>
      <path id="Union_11" data-name="Union 11" d="M21.361,7.3a1.657,1.657,0,0,1-2.33,0,1.658,1.658,0,0,1-2.332,0,1.653,1.653,0,0,1-2.328,0,1.658,1.658,0,0,1-2.332,0,1.657,1.657,0,0,1-2.332,0,1.653,1.653,0,0,1-2.328,0,1.658,1.658,0,0,1-2.332,0,1.658,1.658,0,0,1-2.332,0,1.608,1.608,0,0,1-1.16.479A1.49,1.49,0,0,1,0,6.364,1.283,1.283,0,0,1,.072,5.94h0l.008-.016A1.307,1.307,0,0,1,.214,5.65L3.028.01H20.6s.663-.021.653,0,2.092,4.517,2.638,5.683a1.419,1.419,0,0,1,.117.246l.012.028h0a1.276,1.276,0,0,1,.062.4,1.489,1.489,0,0,1-1.554,1.416A1.614,1.614,0,0,1,21.361,7.3Z" transform="translate(159.041 19.001)" fill="#9c0"/>
    </g>
  </g>
</svg>
