<svg xmlns="http://www.w3.org/2000/svg" xmlns:xlink="http://www.w3.org/1999/xlink" width="28" height="21" viewBox="0 0 28 21">
  <defs>
    <clipPath id="clip-Categories_9">
      <rect width="28" height="21"/>
    </clipPath>
  </defs>
  <g id="Categories_9" data-name="Categories – 9" clip-path="url(#clip-Categories_9)">
    <g id="Group_2559" data-name="Group 2559" transform="translate(-642.423 -19)">
      <path id="Path_7832" data-name="Path 7832" d="M1393.93,566.032c-.411-.438-.82-.878-1.234-1.313q-1.587-1.667-3.178-3.33c-.029-.03-.056-.062-.09-.1l1.339-.814c2.209-1.339,4.412-2.687,6.63-4.01a4.254,4.254,0,0,1,2.542-.55,6.318,6.318,0,0,1,2.676.9,3.461,3.461,0,0,0,1.845.464c1.912-.032,3.825-.014,5.737-.01a1.4,1.4,0,0,1,1.2,1.849,1.167,1.167,0,0,1-.381.475,1.8,1.8,0,0,1-1.117.4c-1.646-.015-3.293,0-4.939-.008-.117,0-.146.015-.119.141a1.117,1.117,0,0,0,1.179.971q2.547,0,5.094,0a.25.25,0,0,0,.195-.082q1.11-1.116,2.223-2.229c.135-.135.257-.283.389-.422a.957.957,0,0,1,.608-.34.853.853,0,0,1,.728.345.227.227,0,0,0,.189.086,2.419,2.419,0,0,1,.514.056,1.057,1.057,0,0,1,.9.746v.392c-.035.012-.026.045-.032.07a3,3,0,0,1-.625,1.219q-1.928,2.216-3.861,4.428a.278.278,0,0,1-.236.108c-2.626,0-5.252-.008-7.877,0a6.6,6.6,0,0,1-1.738-.236,23.06,23.06,0,0,0-2.921-.675,7.437,7.437,0,0,0-3.449.295,7.285,7.285,0,0,0-2.156,1.172Z" transform="translate(-747.006 -526.204)" fill="#fff"/>
      <path id="Path_7833" data-name="Path 7833" d="M1644.784,173.028v-.156q0-4.73,0-9.461c0-.12.024-.152.149-.152q8.977.006,17.956,0c.132,0,.155.038.155.16q0,5.605,0,11.21c0,.128-.02.173-.161.169-.448-.011-.9-.008-1.343,0-.121,0-.161-.021-.161-.154q0-4.779,0-9.559c0-.149-.041-.178-.182-.177q-2.05.008-4.1,0c-.113,0-.147.022-.147.142,0,1.549,0,3.1.007,4.646,0,.128-.037.149-.155.149q-2.9-.006-5.794,0c-.116,0-.145-.026-.145-.143,0-1.549,0-3.1.007-4.646,0-.128-.036-.148-.153-.148q-2.071.006-4.142,0c-.113,0-.135.032-.135.138q0,3.793.005,7.585c0,.124-.027.16-.156.159a4.9,4.9,0,0,0-1.338.191Z" transform="translate(-995.402 -144.259)" fill="#fff"/>
    </g>
  </g>
</svg>
