<svg xmlns="http://www.w3.org/2000/svg" xmlns:xlink="http://www.w3.org/1999/xlink" width="261" height="261" viewBox="0 0 261 261">
  <defs>
    <clipPath id="clip-Camera_Illustration_-_Splash_Screen">
      <rect width="261" height="261"/>
    </clipPath>
  </defs>
  <g id="Camera_Illustration_-_Splash_Screen" data-name="Camera Illustration - Splash Screen" clip-path="url(#clip-Camera_Illustration_-_Splash_Screen)">
    <g id="Group_75" data-name="Group 75" transform="translate(-1059.489 11.292)">
      <path id="Background" d="M201.61,102.464H71.892c-6.033,0-10.94-4.6-10.94-10.247s4.908-10.247,10.94-10.247H10.94C4.908,81.971,0,77.374,0,71.724S4.908,61.479,10.94,61.479H73.455c6.033,0,10.94-4.6,10.94-10.247s-4.908-10.247-10.94-10.247H34.383c-6.032,0-10.939-4.6-10.939-10.247s4.907-10.245,10.939-10.245H96.9c-6.033,0-10.94-4.6-10.94-10.247S90.866,0,96.9,0H250.06C256.092,0,261,4.6,261,10.247s-4.908,10.247-10.94,10.247H187.544c6.033,0,10.94,4.6,10.94,10.245s-4.908,10.247-10.94,10.247h34.384c6.033,0,10.94,4.6,10.94,10.247s-4.908,10.247-10.94,10.247h-15.9c-7.605,0-13.793,4.6-13.793,10.245,0,3.756,3.155,7.2,9.376,10.247,6.032,0,10.94,4.6,10.94,10.247S207.642,102.464,201.61,102.464Zm48.45-40.985c-6.033,0-10.94-4.6-10.94-10.247s4.908-10.247,10.94-10.247S261,45.582,261,51.232,256.092,61.479,250.06,61.479Z" transform="translate(1059.489 69.6)" fill="rgba(153,204,0,0.24)"/>
      <path id="Star" d="M0,11.984.851,10a10.169,10.169,0,0,0,0-8.01L0,0,1.987.851a10.169,10.169,0,0,0,8.01,0L11.984,0l-.851,1.987a10.169,10.169,0,0,0,0,8.01l.851,1.987L10,11.133a10.169,10.169,0,0,0-8.01,0Z" transform="translate(1152.703 86.759) rotate(45)" fill="none" stroke="#e7f3c2" stroke-linejoin="round" stroke-width="2.5" stroke-dasharray="0 0"/>
      <path id="Path" d="M107.275,22.486l-.695-1.527C104.7,17,102.55,12.423,101.23,9.786,98.034,3.539,92.545.069,85.806,0H53.082C46.342.069,40.923,3.539,37.727,9.786c-1.39,2.776-3.752,7.773-5.7,11.868l-.417.833a1.363,1.363,0,0,1-1.32.833A30.3,30.3,0,0,0,0,53.578V94.8a30.3,30.3,0,0,0,30.293,30.259h78.372A30.347,30.347,0,0,0,138.957,94.8V53.578a30.347,30.347,0,0,0-30.293-30.259A1.58,1.58,0,0,1,107.275,22.486Z" transform="translate(1124.884 49.708)" fill="#9c0"/>
      <path id="Combined-Shape" d="M33.376,7.829A27.265,27.265,0,0,1,60.681,35.1,27.5,27.5,0,0,1,52.622,54.4,27.27,27.27,0,0,1,6.071,35.1a26.85,26.85,0,0,1,7.921-19.224A27.245,27.245,0,0,1,33.376,7.829Zm0,10.41a16.829,16.829,0,0,0-12.02,5,16.3,16.3,0,0,0-4.863,11.8V35.1A16.833,16.833,0,0,0,33.376,51.968,16.937,16.937,0,0,0,50.259,35.1,16.833,16.833,0,0,0,33.376,18.239ZM72.354,6.163a6.281,6.281,0,1,1,0,12.562,6.281,6.281,0,0,1,0-12.562Z" transform="translate(1160.986 86.365)" fill="#e7f3c2"/>
      <path id="cloud" d="M10.486,35.391a10.486,10.486,0,1,1,0-20.972H10.6A15.974,15.974,0,0,1,26.215,0c8.483,0,15.4,7,15.718,15.75,5.129.332,9.643,5.331,9.643,10.544,0,4.28-3.165,9.1-6.915,9.1Z" transform="translate(1115.48 51.904)" fill="#fff" stroke="#e7f3c2" stroke-linecap="round" stroke-width="2.5" stroke-dasharray="0 0"/>
      <path id="cloud-2" data-name="cloud" d="M9.834,33.188a9.834,9.834,0,0,1,0-19.667h.105A14.98,14.98,0,0,1,24.584,0c7.955,0,14.439,6.56,14.74,14.77,4.81.311,9.043,5,9.043,9.888,0,4.014-2.968,8.531-6.485,8.531Z" transform="translate(1215.474 155.47)" fill="#fff" stroke="#e7f3c2" stroke-linecap="round" stroke-width="2.5" stroke-dasharray="0 0"/>
    </g>
  </g>
</svg>
