<svg xmlns="http://www.w3.org/2000/svg" xmlns:xlink="http://www.w3.org/1999/xlink" width="261" height="261" viewBox="0 0 261 261">
  <defs>
    <clipPath id="clip-Location_Illustration_-_Splash_Screen">
      <rect width="261" height="261"/>
    </clipPath>
  </defs>
  <g id="Location_Illustration_-_Splash_Screen" data-name="Location Illustration - Splash Screen" clip-path="url(#clip-Location_Illustration_-_Splash_Screen)">
    <g id="Group_46" data-name="Group 46" transform="translate(0 53)">
      <path id="Background" d="M200.976,102.142H71.666c-6.014,0-10.906-4.582-10.906-10.214s4.892-10.214,10.906-10.214H10.906C4.892,81.713,0,77.131,0,71.5S4.892,61.286,10.906,61.286H73.224c6.014,0,10.906-4.582,10.906-10.214S79.237,40.857,73.224,40.857H34.274c-6.013,0-10.9-4.582-10.9-10.214s4.892-10.213,10.9-10.213H96.593c-6.014,0-10.906-4.583-10.906-10.214S90.58,0,96.593,0h152.68c6.014,0,10.906,4.582,10.906,10.214s-4.892,10.214-10.906,10.214H186.954c6.014,0,10.906,4.583,10.906,10.213s-4.892,10.214-10.906,10.214H221.23c6.014,0,10.906,4.582,10.906,10.214s-4.892,10.214-10.906,10.214H205.378c-7.582,0-13.75,4.582-13.75,10.213,0,3.744,3.145,7.181,9.347,10.214,6.013,0,10.906,4.582,10.906,10.214S206.989,102.142,200.976,102.142Zm48.3-40.857c-6.014,0-10.906-4.582-10.906-10.214s4.892-10.214,10.906-10.214,10.906,4.582,10.906,10.214S255.287,61.286,249.273,61.286Z" transform="translate(0 26.482)" fill="#e7ff9f"/>
      <path id="Star" d="M0,11.946.849,9.966a10.137,10.137,0,0,0,0-7.985L0,0,1.981.849a10.137,10.137,0,0,0,7.985,0L11.946,0,11.1,1.981a10.137,10.137,0,0,0,0,7.985l.849,1.981L9.966,11.1a10.137,10.137,0,0,0-7.985,0Z" transform="translate(92.921 43.588) rotate(45)" fill="none" stroke="#e7f3c2" stroke-linejoin="round" stroke-width="2.5" stroke-dasharray="0 0"/>
      <g id="Iconly_Bulk_Location" data-name="Iconly/Bulk/Location" transform="translate(63.364 0)">
        <g id="Location" transform="translate(17.91 0)">
          <path id="Path_34175" d="M28.173,7.265a56.315,56.315,0,0,1,56.119.451,56.493,56.493,0,0,1,27.39,48.6c-.4,19.7-11.54,38.223-25.467,52.54a148.461,148.461,0,0,1-26.793,21.869,9.543,9.543,0,0,1-3.25,1.117,6.677,6.677,0,0,1-3.117-.92,146.1,146.1,0,0,1-38.6-35.267A70.694,70.694,0,0,1,0,55.33H0l.04-2.123A55.228,55.228,0,0,1,28.173,7.265ZM63.079,39.046a19.1,19.1,0,0,0-20.693,4.03,18.65,18.65,0,0,0-4.142,20.477A19.135,19.135,0,0,0,69.2,69.724a18.561,18.561,0,0,0,5.54-13.278A18.781,18.781,0,0,0,63.079,39.046Z" transform="translate(0 0)" fill="#9c0"/>
          <ellipse id="Ellipse_743" cx="40.931" cy="7.55" rx="40.931" ry="7.55" transform="translate(15.179 140.007)" fill="#9c0" opacity="0.4"/>
        </g>
      </g>
      <path id="Star-2" data-name="Star" d="M0,27.542l1.957-4.566a23.37,23.37,0,0,0,0-18.41L0,0,4.566,1.957a23.37,23.37,0,0,0,18.41,0L27.542,0,25.586,4.566a23.37,23.37,0,0,0,0,18.41l1.957,4.566-4.566-1.957a23.37,23.37,0,0,0-18.41,0Z" transform="translate(81.274 17.631) rotate(45)" fill="#9c0" stroke="#e7ff9f" stroke-linejoin="round" stroke-width="2.5" stroke-dasharray="0 0"/>
    </g>
  </g>
</svg>
