<svg xmlns="http://www.w3.org/2000/svg" xmlns:xlink="http://www.w3.org/1999/xlink" width="261" height="261" viewBox="0 0 261 261">
  <defs>
    <clipPath id="clip-Nitification_Illustration_-_Splash_Screen">
      <rect width="261" height="261"/>
    </clipPath>
  </defs>
  <g id="Nitification_Illustration_-_Splash_Screen" data-name="Nitification Illustration - Splash Screen" clip-path="url(#clip-Nitification_Illustration_-_Splash_Screen)">
    <g id="Group_74" data-name="Group 74" transform="translate(-522.779 3.601)">
      <path id="Background" d="M201.053,102.182H71.693c-6.016,0-10.91-4.584-10.91-10.218s4.894-10.218,10.91-10.218H10.91C4.894,81.745,0,77.161,0,71.526S4.894,61.309,10.91,61.309H73.252c6.016,0,10.91-4.584,10.91-10.218s-4.894-10.218-10.91-10.218H34.288c-6.015,0-10.909-4.584-10.909-10.218s4.894-10.217,10.909-10.217H96.631c-6.016,0-10.91-4.585-10.91-10.218S90.615,0,96.631,0H249.369c6.016,0,10.91,4.584,10.91,10.218s-4.894,10.218-10.91,10.218H187.026c6.016,0,10.91,4.585,10.91,10.217s-4.894,10.218-10.91,10.218h34.289c6.016,0,10.91,4.584,10.91,10.218s-4.894,10.218-10.91,10.218H205.458c-7.584,0-13.755,4.583-13.755,10.217,0,3.745,3.146,7.183,9.35,10.218,6.016,0,10.91,4.584,10.91,10.218S207.069,102.182,201.053,102.182Zm48.316-40.872c-6.016,0-10.91-4.584-10.91-10.218s4.894-10.218,10.91-10.218,10.91,4.584,10.91,10.218S255.385,61.309,249.369,61.309Z" transform="translate(523.5 69.682)" fill="rgba(153,204,0,0.24)"/>
      <path id="Star" d="M0,11.951.849,9.97a10.141,10.141,0,0,0,0-7.988L0,0,1.981.849a10.141,10.141,0,0,0,7.988,0L11.951,0,11.1,1.981a10.141,10.141,0,0,0,0,7.988l.849,1.981L9.97,11.1a10.141,10.141,0,0,0-7.988,0Z" transform="translate(616.457 86.794) rotate(45)" fill="none" stroke="#e7f3c2" stroke-linejoin="round" stroke-width="2.5" stroke-dasharray="0 0"/>
      <g id="Iconly_Bulk_Notification" data-name="Iconly/Bulk/Notification" transform="translate(592.056 49.845)">
        <g id="Notification" transform="translate(0 0)">
          <path id="Fill-1" d="M126.224,74.832c-5.667-6.618-8.242-12.353-8.242-22.1V49.421c0-12.7-2.923-20.878-9.276-29.059C98.913,7.657,82.427,0,66.289,0H65.6C49.8,0,33.834,7.306,23.872,19.5c-6.7,8.345-9.962,16.878-9.962,29.926v3.313c0,9.744-2.406,15.479-8.243,22.1C1.372,79.707,0,85.974,0,92.756A28,28,0,0,0,6.7,111.2a35.163,35.163,0,0,0,22.5,10.963,323.225,323.225,0,0,0,36.749,1.914c12.361,0,24.551-.875,36.749-1.914A35.162,35.162,0,0,0,125.19,111.2a28.036,28.036,0,0,0,6.7-18.448c0-6.782-1.372-13.049-5.667-17.924" transform="translate(0)" fill="#9c0"/>
          <path id="Fill-4" d="M43.864,17.77c-3.878-.829-27.512-.829-31.39,0-3.316.766-6.9,2.547-6.9,6.454a12.026,12.026,0,0,0,5.4,9.1l-.008.008a28.207,28.207,0,0,0,13.3,5.681,29.771,29.771,0,0,0,7.819,0,28.214,28.214,0,0,0,13.293-5.681l-.008-.008a12.025,12.025,0,0,0,5.4-9.1c0-3.907-3.585-5.688-6.9-6.454" transform="translate(37.665 115.894)" fill="#9c0" opacity="0.4"/>
        </g>
      </g>
      <path id="cloud" d="M9.806,33.1a9.806,9.806,0,0,1,0-19.613h.1A14.939,14.939,0,0,1,24.516,0c7.933,0,14.4,6.542,14.7,14.729,4.8.31,9.018,4.985,9.018,9.861,0,4-2.96,8.507-6.467,8.507Z" transform="translate(689.241 138.766)" fill="#fff" stroke="#e7f3c2" stroke-linecap="round" stroke-width="2.5" stroke-dasharray="0 0"/>
      <path id="cloud-2" data-name="cloud" d="M13.813,46.618a13.813,13.813,0,1,1,0-27.625h.148C15.188,8.294,23.93,0,34.532,0c11.174,0,20.282,9.214,20.7,20.746,6.756.437,12.7,7.022,12.7,13.889,0,5.638-4.169,11.982-9.109,11.982Z" transform="translate(574.038 48.626)" fill="#fff" stroke="#e7f3c2" stroke-linecap="round" stroke-width="2.5" stroke-dasharray="0 0"/>
    </g>
  </g>
</svg>
