<svg xmlns="http://www.w3.org/2000/svg" xmlns:xlink="http://www.w3.org/1999/xlink" width="261" height="261" viewBox="0 0 261 261">
  <defs>
    <clipPath id="clip-Voice_Illustration_-_Splash_Screen">
      <rect width="261" height="261"/>
    </clipPath>
  </defs>
  <g id="Voice_Illustration_-_Splash_Screen" data-name="Voice Illustration - Splash Screen" clip-path="url(#clip-Voice_Illustration_-_Splash_Screen)">
    <g id="Group_69" data-name="Group 69" transform="translate(0 49)">
      <path id="Background" d="M201.61,102.464H71.892c-6.033,0-10.94-4.6-10.94-10.247s4.908-10.247,10.94-10.247H10.94C4.908,81.971,0,77.374,0,71.724S4.908,61.479,10.94,61.479H73.455c6.033,0,10.94-4.6,10.94-10.247s-4.908-10.247-10.94-10.247H34.383c-6.032,0-10.939-4.6-10.939-10.247s4.907-10.245,10.939-10.245H96.9c-6.033,0-10.94-4.6-10.94-10.247S90.866,0,96.9,0H250.059C256.092,0,261,4.6,261,10.247s-4.908,10.247-10.94,10.247H187.544c6.033,0,10.94,4.6,10.94,10.245s-4.908,10.247-10.94,10.247h34.384c6.033,0,10.94,4.6,10.94,10.247s-4.908,10.247-10.94,10.247h-15.9c-7.605,0-13.793,4.6-13.793,10.245,0,3.756,3.155,7.2,9.376,10.247,6.032,0,10.94,4.6,10.94,10.247S207.642,102.464,201.61,102.464Zm48.45-40.985c-6.033,0-10.94-4.6-10.94-10.247s4.908-10.247,10.94-10.247S261,45.582,261,51.232,256.092,61.479,250.059,61.479Z" transform="translate(0 26.593)" fill="rgba(153,204,0,0.24)"/>
      <path id="Star" d="M0,14.421,1.024,12.03a12.236,12.236,0,0,0,0-9.639L0,0,2.391,1.024a12.236,12.236,0,0,0,9.639,0L14.421,0,13.4,2.391a12.236,12.236,0,0,0,0,9.639l1.024,2.391L12.03,13.4a12.236,12.236,0,0,0-9.639,0Z" transform="translate(190.273 143.437) rotate(45)" fill="none" stroke="#e7f3c2" stroke-linejoin="round" stroke-width="2.5" stroke-dasharray="0 0"/>
      <g id="Iconly_Bulk_Voice-2" data-name="Iconly/Bulk/Voice-2" transform="translate(68.069 0)">
        <g id="Voice-2" transform="translate(0)">
          <path id="Fill-1" d="M38.664,105.368h2.788a34.663,34.663,0,0,0,32.93-23.444A3.085,3.085,0,0,0,71.416,77.9H62.828a4.881,4.881,0,1,1,0-9.762h8.324a4.927,4.927,0,1,0,0-9.854H62.828a4.885,4.885,0,1,1,0-9.77h8.324a4.927,4.927,0,1,0,0-9.854H62.828a4.885,4.885,0,1,1,0-9.77h9.028a3.092,3.092,0,0,0,3-3.928A34.636,34.636,0,0,0,41.452,0H38.664A34.47,34.47,0,0,0,3.974,34.258V71.11a34.475,34.475,0,0,0,34.69,34.258" transform="translate(27.704 0)" fill="#9c0"/>
          <path id="Fill-3" d="M127.8,7.826a7.673,7.673,0,0,0-7.723,7.627c0,28.485-23.47,51.662-52.314,51.662S15.445,43.937,15.445,15.452A7.673,7.673,0,0,0,7.723,7.826,7.673,7.673,0,0,0,0,15.452C0,49.771,26.3,78.1,60.044,81.91V97.254a7.723,7.723,0,0,0,15.445,0V81.91c33.733-3.806,60.036-32.139,60.036-66.458A7.673,7.673,0,0,0,127.8,7.826" transform="translate(0 54.561)" fill="#abcc47"/>
        </g>
      </g>
      <path id="cloud" d="M12.618,42.586a12.618,12.618,0,1,1,0-25.236h.135C13.875,7.577,21.861,0,31.545,0,41.753,0,50.073,8.417,50.458,18.952c6.172.4,11.6,6.415,11.6,12.688,0,5.151-3.809,10.946-8.321,10.946Z" transform="translate(60.96)" fill="#fff" stroke="#e7f3c2" stroke-linecap="round" stroke-width="2.5" stroke-dasharray="0 0"/>
    </g>
  </g>
</svg>
