<?xml version="1.0" encoding="UTF-8"?>
<svg id="Layer_1" data-name="Layer 1" xmlns="http://www.w3.org/2000/svg" viewBox="0 0 2571.81 4046.33">
  <defs>
    <style>
      .cls-1 {
        fill: #fff;
      }

      .cls-2 {
        fill: #404041;
      }

      .cls-3, .cls-4 {
        fill: #f60;
      }

      .cls-5 {
        fill: #95c804;
      }

      .cls-6 {
        fill: #7b8fc6;
      }

      .cls-7 {
        fill: #779302;
      }

      .cls-8 {
        fill: #9fc14b;
      }

      .cls-4 {
        fill-rule: evenodd;
      }
    </style>
  </defs>
  <g>
    <g>
      <path class="cls-2" d="M827.51,3218.45l-375.46,.33c-18.02,0-27.02,8.2-27.02,24.52s9,24.2,26.99,24.2h321.36l-339.77,399.22c-5.97,7.26-8.95,13.59-8.95,19.04,0,16.33,9.49,24.48,28.48,24.48h375.11c18,0,27.02-8.24,27.02-24.69s-9.02-24.36-27.02-24.36H507.18l339.21-399.11c6.13-7.21,9.23-13.54,9.23-18.95,0-16.44-9.37-24.69-28.11-24.69"/>
      <path class="cls-2" d="M967.55,3229.43c-8.04-7.33-17.58-10.99-28.67-10.99s-20.65,3.65-28.67,10.99c-8.02,7.33-12.03,16.07-12.03,26.23s4.01,18.76,12.03,25.88c8.02,7.07,17.58,10.63,28.67,10.63s20.63-3.56,28.67-10.63c8.02-7.12,12.03-15.74,12.03-25.88s-4.01-18.9-12.03-26.23m-28.86,136.49c-17.9,0-26.81,8.13-26.81,24.38v295.23c0,16.47,8.91,24.71,26.81,24.71s26.81-8.24,26.81-24.71v-295.23c0-16.26-8.93-24.38-26.81-24.38"/>
      <path class="cls-2" d="M1309.59,3437.09c33.52-24.83,50.3-56.73,50.3-95.78,0-33.85-13.19-62.77-39.58-86.83-26.39-24.01-58.09-36.02-95.08-36.02h-134.29c-7.13,0-13.43,2.46-18.83,7.45-5.43,4.97-8.16,10.73-8.16,17.24v442.37c0,6.56,2.73,12.3,8.16,17.29,5.41,4.94,11.7,7.42,18.83,7.42h134.29c44.41,0,82.38-14.36,113.94-43.15,31.56-28.76,47.34-63.57,47.34-104.42,0-54.83-25.64-96.69-76.92-125.57m-27.11-43.5c-15.85,14.48-34.9,21.69-57.18,21.69h-107.72v-147.78h107.72c22.28,0,41.33,7.24,57.18,21.69,15.83,14.45,23.78,31.86,23.78,52.21s-7.95,37.74-23.78,52.19m18.72,238.68c-21.12,19.28-46.51,28.93-76.16,28.93h-107.46v-196.85h107.46c29.65,0,55.04,9.63,76.16,28.9,21.12,19.3,31.68,42.44,31.68,69.52s-10.56,50.22-31.68,69.5"/>
      <path class="cls-2" d="M1749.17,3416.35c-36.85-33.61-81.19-50.43-132.99-50.43s-96.11,16.82-132.96,50.43c-36.88,33.66-55.32,74.16-55.32,121.54s18.44,88.26,55.32,121.92c36.85,33.61,81.19,50.41,132.96,50.41s96.13-16.79,132.99-50.41c36.88-33.66,55.32-74.27,55.32-121.92s-18.44-87.88-55.32-121.54m-37.83,208.61c-26.34,24.15-58.04,36.24-95.15,36.24s-68.81-12.09-95.13-36.24c-26.34-24.15-39.51-53.17-39.51-87.06s13.17-62.54,39.51-86.69c26.32-24.15,58.04-36.24,95.13-36.24s68.81,12.09,95.15,36.24c26.34,24.15,39.51,53.05,39.51,86.69s-13.17,62.91-39.51,87.06"/>
      <path class="cls-2" d="M2138.95,3669.98l-120.21-131.83,119.98-131.54c4.34-4.97,6.5-10.28,6.5-15.93,0-6.56-2.82-12.32-8.49-17.29-5.69-4.99-12.1-7.47-19.23-7.47-7.9,0-14.69,3.05-20.35,9.14l-112.85,124.8-114.31-124.8c-5.66-6.09-12.33-9.14-19.95-9.14s-13.94,2.46-19.6,7.45c-5.69,4.97-8.51,10.73-8.51,17.26,0,5.64,2.33,10.96,6.97,15.9l119.84,131.4-119.42,132.04c-4.69,4.94-7.02,10.19-7.02,15.76,0,6.51,2.82,12.2,8.51,17.12,5.69,4.9,12.22,7.38,19.63,7.38s14.31-2.93,20-8.76l113.48-124.96,113.78,124.8c5.64,5.93,12.4,8.92,20.26,8.92,7.13,0,13.52-2.48,19.18-7.38,5.64-4.92,8.46-10.61,8.46-17.12,0-5.6-2.22-10.84-6.64-15.76"/>
    </g>
    <g>
      <path class="cls-5" d="M2199.41,470.53v-163.84c0-4.89-3.96-8.85-8.85-8.85h-53.64c-4.89,0-8.85-3.96-8.85-8.85v-11.32c0-4.89,3.96-8.85,8.85-8.85h166.44c4.89,0,8.85,3.96,8.85,8.85v11.32c0,4.89-3.96,8.85-8.85,8.85h-53.64c-4.89,0-8.85,3.96-8.85,8.85v163.84c0,4.89-3.96,8.85-8.85,8.85h-23.76c-4.89,0-8.85-3.96-8.85-8.85Z"/>
      <path class="cls-5" d="M2340.08,470.1v-192.01c0-5.12,4.15-9.28,9.28-9.28h38.78c4.02,0,7.58,2.59,8.82,6.41l37.33,114.91c2.76,8.51,14.79,8.56,17.62,.07l38.44-115.06c1.26-3.79,4.81-6.34,8.8-6.34h32.21c5.12,0,9.28,4.15,9.28,9.28v192.01c0,5.12-4.15,9.28-9.28,9.28h-19.67c-5.12,0-9.28-4.15-9.28-9.28v-121.61c0-5.2-7.28-6.39-8.93-1.46l-37.63,111.94c-1.27,3.78-4.81,6.32-8.79,6.32h-19.91c-4.02,0-7.58-2.59-8.82-6.41l-36.72-113.02c-1.61-4.97-8.95-3.81-8.95,1.42v122.82c0,5.12-4.15,9.28-9.28,9.28h-14.02c-5.12,0-9.28-4.15-9.28-9.28Z"/>
      <g>
        <path class="cls-4" d="M1817.02,567.94c35.07,8.75,56.47,43.37,47.8,77.33-8.67,33.95-44.13,54.38-79.2,45.62-35.07-8.75-56.48-43.37-47.81-77.32,8.67-33.95,44.13-54.38,79.21-45.62Z"/>
        <path class="cls-4" d="M1587.72,510.7c35.24,8.8,56.78,43.45,48.11,77.4-8.67,33.95-44.27,54.34-79.52,45.54-35.25-8.8-56.79-43.45-48.12-77.4,8.67-33.95,44.27-54.34,79.52-45.54Z"/>
        <path class="cls-4" d="M2017.79,228.32l-440.79-110.03c-20.35-5.08-49.25,16.33-41.91,49.84l46.49,212.19c2.56,11.66,13.1,22.7,23.7,25.34l249.61,62.31c10.6,2.65,25.18-2.12,33.03-11.18l142.81-164.94c22.55-26.04,7.4-58.45-12.95-63.53Z"/>
        <path class="cls-4" d="M1901.3,519.16l-340.78-85.07c-11.36-2.84-20.21-11.76-22.95-23.14l-89.47-371.66c-2.42-10.06-10.85-16.95-19.91-17.01-1.82-1.21-3.88-2.14-6.13-2.7L1345.99,.59c-10.5-2.62-21.17,3.67-23.82,14.05-2.65,10.38,3.71,20.92,14.22,23.55l58.97,14.72c10.26,2.56,18.25,10.62,20.73,20.9l90.03,373.97c2.4,9.98,10.71,16.84,19.69,17.01,1.42,.77,2.96,1.37,4.6,1.78l361.3,90.19c10.5,2.62,21.17-3.67,23.82-14.05,2.65-10.38-3.71-20.93-14.22-23.55Z"/>
      </g>
      <g>
        <path class="cls-5" d="M923.16,518.15l-29.45-108.36-138.08,36.49c13.68,42.63,36.88,85.84,66.89,127.25,32.77-25.11,68.1-44.72,100.64-55.37Z"/>
        <path class="cls-5" d="M848.38,242.94l-39.08-143.84c-9.73,2.57-19.18,6.09-29.37,10.84-16.59,42.41-29.98,89.13-36.46,138.1,35.21,3.04,72.31,1.45,104.91-5.11Z"/>
        <path class="cls-5" d="M1067.56,508.77c5-50.66,3.21-99.52-6.59-143.18l-138.09,36.49,29.44,108.36c33.58-6.82,74.11-7.26,115.23-1.67Z"/>
        <path class="cls-5" d="M993.41,170.69c22.42-17.23,41.41-35.61,55.53-52.7-42.38-21.69-89.47-33.92-138.29-33.34,29.21,23.11,58.29,53.46,82.76,86.05Z"/>
        <path class="cls-5" d="M971,187.93c-30.44-39.22-65.69-73.09-101.6-101.63-11.2,.9-21.19,2.52-30.93,5.1l39.08,143.84c31.59-10.4,64.49-27.32,93.45-47.31Z"/>
        <path class="cls-5" d="M1053.16,336.83c-14.17-44.56-37.13-86.79-66.89-127.24-32.78,25.1-68.1,44.7-100.64,55.37l29.44,108.35,138.08-36.49Z"/>
        <path class="cls-5" d="M1082.33,329.12l117.67-31.09c-22.45-71.15-67.15-128.2-125.16-165.29-16.51,19.78-39.13,40.13-64.91,60.31,33.51,46.65,59.27,95.34,72.4,136.07Z"/>
        <path class="cls-5" d="M741.23,274.34c-5.26,49.7-3.7,97.59,6.59,143.17l138.09-36.48-29.44-108.35c-33.58,6.81-74.12,7.24-115.23,1.67Z"/>
        <path class="cls-5" d="M1065.16,653.28c42.84-22.61,77.42-56.42,103.12-96.09-22.14-8.55-47.87-15.11-76.02-18.98-3.72,40.05-12.82,79.45-27.1,115.07Z"/>
        <path class="cls-5" d="M838.51,593.95c29.2,38.53,64.03,74.56,100.88,102.85,11.23-.91,21.2-2.53,30.93-5.1l-39.08-143.83c-30.58,10.14-62.79,25.85-92.73,46.08Z"/>
        <path class="cls-5" d="M960.41,540.16l39.08,143.83c9.74-2.57,19.21-6.1,29.37-10.84,17.57-42.67,29.46-91.04,35.25-138.82-36.18-2.77-72.05-.49-103.7,5.82Z"/>
        <path class="cls-5" d="M743.39,128.84c-42.57,23.58-77.18,57.39-102.89,97.07,20.9,7.84,46.66,14.39,74.81,18.26,4.67-40.28,14.5-80.91,28.07-115.33Z"/>
        <path class="cls-5" d="M1090.14,357.89c9.97,40.54,12.63,96.36,6.29,153.54,32.56,4.76,62.47,11.23,86.79,20.22,31.43-60.72,41.22-132.16,24.58-204.85l-117.67,31.09Z"/>
        <path class="cls-5" d="M712.36,271.68c-32.56-4.76-62.47-11.23-86.79-20.22-31.44,60.72-41.19,132.16-24.59,204.85l117.67-31.09c-9.25-41.75-11.65-96.62-6.29-153.54Z"/>
        <path class="cls-5" d="M816.09,611.18c-22.42,17.23-41.41,35.61-56.25,53.93,42.38,21.69,89.5,33.91,138.06,32.37-30.45-23.81-58.32-53.44-81.81-86.29Z"/>
        <path class="cls-5" d="M726.46,453.98l-117.67,31.09c22.48,71.14,67.15,128.2,125.16,165.28,16.51-19.78,39.13-40.13,64.91-60.31-34.49-46.39-60.48-96.04-72.41-136.07Z"/>
      </g>
      <path class="cls-6" d="M698.46,929.4l-420.58-314.18c-1.72-1.29-3.54-2.37-5.39-3.36-.45-.24-.91-.48-1.37-.7-1.87-.91-3.77-1.73-5.73-2.36-.06-.02-.13-.03-.19-.05-1.92-.6-3.88-1.03-5.86-1.37-.5-.09-1-.17-1.51-.23-2.03-.28-4.08-.46-6.15-.46-.2,0-.41,.03-.61,.03-1.56,.02-3.13,.11-4.69,.28-.58,.06-1.16,.16-1.74,.25-1.21,.18-2.42,.39-3.63,.66-.62,.14-1.24,.28-1.86,.44-1.22,.32-2.44,.7-3.65,1.11-.53,.18-1.07,.34-1.6,.54-1.71,.64-3.4,1.36-5.06,2.19-.12,.06-.24,.14-.36,.2-1.54,.78-3.04,1.65-4.51,2.59-.51,.32-1,.68-1.5,1.03-1.08,.74-2.15,1.52-3.19,2.34-.53,.42-1.05,.85-1.57,1.29-1.02,.87-2.02,1.8-2.99,2.76-.44,.43-.89,.85-1.32,1.3-1.36,1.43-2.68,2.93-3.91,4.53L11.42,886.06c-17.27,22.49-14.66,53.12,5.83,68.43l363,271.16,57.58,43.01c1.72,1.29,3.54,2.37,5.39,3.36,.45,.24,.91,.48,1.37,.7,1.87,.91,3.77,1.73,5.73,2.36,.06,.02,.11,.03,.17,.04,1.92,.61,3.89,1.04,5.88,1.37,.5,.09,1,.17,1.5,.23,2.03,.28,4.08,.46,6.15,.46,.2,0,.41-.03,.61-.03,1.56-.02,3.13-.11,4.7-.28,.58-.06,1.15-.16,1.73-.24,1.22-.18,2.43-.39,3.64-.66,.62-.14,1.24-.28,1.85-.44,1.22-.32,2.44-.69,3.65-1.11,.54-.18,1.08-.34,1.61-.54,1.71-.64,3.4-1.36,5.06-2.19,.12-.06,.23-.13,.34-.19,1.54-.78,3.05-1.66,4.52-2.6,.51-.33,1.01-.69,1.51-1.03,1.08-.74,2.14-1.51,3.18-2.33,.53-.42,1.06-.86,1.58-1.3,1.02-.87,2.02-1.8,2.99-2.76,.44-.43,.89-.85,1.31-1.3,1.36-1.43,2.68-2.93,3.91-4.53l92.82-120.83,105.26-137.02c17.27-22.49,14.66-53.12-5.83-68.43Zm-550.97,58.3l-86.59-64.68,41.7-54.28,86.59,64.68-41.7,54.28Zm459.08,86.64L161.26,741.69l52.12-67.85,445.31,332.66-52.13,67.85Z"/>
      <g>
        <path class="cls-6" d="M2041.82,838.32c0-99.65,54.04-186.83,134.77-234.66-100.83,40.94-171.84,138.73-171.84,252.91,0,151.03,124.19,273.46,277.39,273.46,51.66,0,99.99-13.96,141.4-38.21-32.22,12.91-67.42,20.08-104.33,20.08-153.2,0-277.39-122.49-277.39-273.58Z"/>
        <path class="cls-6" d="M2268.4,761.91c0,10.53,3.41,19.34,10.23,26.43,6.82,7.1,18.38,12.76,34.67,16.99v-85.48c-13.91,1.83-24.87,6.64-32.88,14.42-8.01,7.78-12.02,16.99-12.02,27.63Z"/>
        <path class="cls-6" d="M2319.21,589.2c-47.5,0-91.92,12.95-129.87,35.44-73.52,43.56-122.72,122.94-122.72,213.68,0,137.59,113.09,249.12,252.6,249.12,33.62,0,65.67-6.53,95-18.29,92.41-37.03,157.59-126.4,157.59-230.84,0-137.59-113.09-249.12-252.6-249.12Zm69.51,355.02c-14.35,14.87-32.92,22.83-55.72,23.9v32.47h-19.18v-32.11c-16.28-2.02-29.52-5.62-39.71-10.79-10.19-5.17-18.99-13.53-26.41-25.06-7.42-11.53-11.73-25.63-12.93-42.28l32.74-6.07c2.53,17.25,6.99,29.91,13.39,38,9.16,11.42,20.14,17.78,32.92,19.09v-102.22c-13.39-2.5-27.08-7.61-41.06-15.34-10.37-5.71-18.36-13.62-23.97-23.73-5.61-10.11-8.41-21.59-8.41-34.43,0-22.83,8.2-41.32,24.6-55.48,10.97-9.51,27.25-15.34,48.84-17.48v-15.34h19.18v15.34c18.93,1.78,33.95,7.26,45.04,16.41,14.23,11.66,22.79,27.65,25.69,47.99l-33.65,4.99c-1.93-12.6-5.94-22.27-12.03-28.99-6.09-6.72-14.44-11.15-25.05-13.29v92.58c16.4,4.04,27.25,7.2,32.56,9.45,10.13,4.4,18.39,9.75,24.78,16.06,6.39,6.3,11.31,13.8,14.74,22.48,3.44,8.68,5.16,18.08,5.16,28.19,0,22.24-7.18,40.79-21.53,55.66Z"/>
        <path class="cls-6" d="M2334.36,844.13v97.47c13.91-1.54,25.39-6.94,34.47-16.19,9.07-9.25,13.61-20.69,13.61-34.33,0-11.62-3.21-20.96-9.64-28.01-6.43-7.05-19.24-13.37-38.44-18.94Z"/>
      </g>
      <path class="cls-8" d="M1649.6,1257.78c.38,0,.78,0,1.16,0-.41,0-.83,0-1.23,0h.07Z"/>
      <path class="cls-1" d="M1649.61,1259.19s-.05,0-.08,0v-2.81h.07c.21,0,.42,0,.63,0h.53s.01,2.81,.01,2.81h-.48c-.23,0-.46,0-.69,0Z"/>
      <g>
        <g>
          <path class="cls-7" d="M2032.89,1531.11l-414.64-171.81s-.03,.03-.05,.05c-.62,.57-1.25,1.12-1.75,1.54-1.27,1.11-2.56,2.2-3.86,3.21-.71,.55-1.44,1.08-2.3,1.7-1.28,.93-2.58,1.83-3.89,2.67-.86,.55-1.73,1.09-2.63,1.62-1.36,.8-2.74,1.57-4.11,2.28-.94,.49-1.89,.97-2.85,1.42-1.51,.71-3.05,1.36-4.76,2.05-.91,.37-1.83,.72-2.73,1.04-1.69,.6-3.4,1.12-5.17,1.61-.93,.28-1.87,.53-2.8,.76-2.82,.67-5.66,1.19-8.38,1.53-.38,.05-.76,.09-1.14,.13-1.18,5.57-2.98,11.07-5.4,16.4-2.77,6.1-6.32,11.93-10.54,17.32-1.52,1.95-3.16,3.84-4.97,5.77-.59,.63-1.2,1.24-1.73,1.75-1.26,1.26-2.54,2.48-3.88,3.67-.69,.61-1.39,1.2-2.18,1.84-1.31,1.07-2.64,2.1-3.98,3.07-.81,.59-1.63,1.17-2.46,1.72-1.48,.99-3,1.92-4.56,2.82-.77,.45-1.54,.89-2.39,1.34-1.72,.91-3.54,1.78-5.39,2.58l-.85,.4-1.23,.49c-2.58,1.03-5.27,1.93-8.06,2.7-.89,.24-1.8,.46-2.74,.66-2.02,.47-3.9,.84-5.76,1.12-1,.15-2,.27-3.19,.39-1.92,.2-3.85,.33-5.78,.38-.57,.01-1.14,.02-1.71,.02h-1.32c-.12-.01-.25-.02-.37-.02-4.01,10.79-10.52,20.89-19.18,29.41-1.51,1.49-3.06,2.93-4.65,4.31-.55,.48-1.11,.94-1.72,1.43-1.13,.95-2.27,1.88-3.44,2.77-.72,.55-1.44,1.06-2.27,1.64-1.14,.82-2.29,1.62-3.43,2.35-.85,.55-1.71,1.06-2.79,1.68-1.18,.7-2.37,1.39-3.62,2.04-.95,.5-1.91,.95-3.12,1.51-1.3,.61-2.62,1.21-3.97,1.75-1.06,.42-2.13,.81-3.41,1.24-1.45,.5-2.91,.98-4.36,1.38-1.17,.32-2.35,.6-3.75,.9-1.54,.34-3.08,.64-4.68,.88-1.25,.19-2.52,.32-4.02,.46-1.61,.15-3.23,.26-4.86,.29h-1.33c-1.06,.01-2.13-.01-3.3-.06-1.32-.06-2.64-.13-3.95-.26-.32-.03-.64-.07-.96-.1-.64,1.49-1.33,2.96-2.08,4.42-3.3,6.47-7.57,12.54-12.67,18.05-4.45,4.8-9.37,9-14.64,12.51-2.34,1.56-4.92,3.05-7.97,4.61-.58,.3-1.17,.59-1.75,.87-2.99,1.43-6.07,2.69-9.15,3.74-.66,.22-1.34,.44-2.05,.65-2.92,.91-5.94,1.67-9,2.26-.72,.15-1.46,.29-2.23,.42-3.8,.63-7.83,.98-12.05,1.05l-2.09,.02c-1,0-2.01-.02-3.07-.07h-.47s-.92-.07-.92-.07c-2.68-.17-5.43-.5-8.51-1.03l-1.5-.27c-2.82-.54-5.64-1.23-8.32-2.04-.56-.17-1.13-.35-1.54-.49-2.7-.87-5.22-1.81-7.52-2.8l-.28-.11-.95-.43c-2.71-1.21-5.45-2.63-8.48-4.39l-1.42-.84c-2.65-1.61-5.27-3.38-7.8-5.27-.45-.34-.91-.69-1.38-1.06-2.4-1.87-4.6-3.71-6.81-5.74l-.21-.18-.67-.63c-2.29-2.15-4.63-4.58-7.31-7.59l-1.12-1.26c-.31-.36-.6-.78-.91-1.14-.33,.46-.65,.93-.98,1.38-1.29,1.74-2.67,3.45-4.17,5.27-.62,.78-1.26,1.56-1.92,2.32-2.25,2.59-4.46,4.94-6.75,7.2-2.36,2.32-4.88,4.6-7.72,6.98-.76,.63-1.53,1.24-2.57,2.05-1.85,1.47-3.72,2.89-5.61,4.22-1.01,.71-2.03,1.4-3.07,2.09-1.87,1.24-3.75,2.4-5.94,3.69-.93,.55-1.86,1.08-2.8,1.6-2.16,1.18-4.33,2.26-6.43,3.25-.83,.41-1.68,.81-2.52,1.19-3.07,1.35-6.16,2.56-9.22,3.6-.79,.27-1.57,.51-2.39,.74-2.49,.78-4.82,1.43-7.11,1.98-1,.24-1.99,.45-3.31,.71-2.2,.45-4.38,.83-6.52,1.12-1.22,.17-2.43,.31-3.68,.43-2.26,.22-4.5,.35-6.96,.41-.82,.03-1.64,.05-2.45,.05h-.34s-.2,0-.2,0c-4.2-.04-8.39-.38-12.46-1.02-.92-.14-1.82-.31-2.59-.47-3.69-.69-7.29-1.63-10.69-2.77-.87-.27-1.72-.56-2.52-.86-4.1-1.54-8.18-3.51-12.14-5.88-.88-.52-1.74-1.07-2.65-1.68-4.23-2.78-7.86-5.68-11.09-8.86-11.82-11.63-18.86-26.24-21.2-42.08l-.28-.03-1.24-.21c-4.22-.72-8.36-1.8-12.83-3.35-.76-.26-1.51-.53-2.23-.81-4.21-1.62-8.25-3.59-12.01-5.88-.74-.45-1.47-.92-2.22-1.43-4.18-2.74-7.79-5.64-11.04-8.84-12.03-11.85-19.01-26.97-21.11-43.34-.15-.02-.3-.05-.46-.07-.8-.13-1.59-.28-2.38-.45-3.57-.69-7.12-1.63-10.6-2.8-.9-.29-1.78-.59-2.59-.9-4.13-1.57-8.18-3.54-12.04-5.86-.78-.47-1.55-.96-2.41-1.54-4.24-2.78-7.89-5.69-11.14-8.89-11.56-11.38-18.51-25.8-20.91-41.5-2.35-.36-4.75-.85-7.39-1.5l-.39-.09h0c-1.91-.46-3.8-.96-5.63-1.57-3.92-1.3-7.18-2.82-9.67-4.06-1.06-.48-3.07-1.4-5.41-2.81-5.03-3.03-9.59-6.53-13.55-10.43-3.16-3.12-5.97-6.62-8.6-10.48l-456.91,194.4c8.79,1.95,17.14,4.48,24.78,7.74l776.78,332.44c8.1,3.47,14.82,7.38,20.5,11.53,5.68-4.15,12.4-8.06,20.49-11.53l776.8-332.44c3.93-1.68,8.11-3.1,12.38-4.42-23.65,1.28-46.09-1.37-63.47-8.57Z"/>
          <path class="cls-5" d="M1691.24,2212.84c-46.2,0-97.28-13.29-135.76-37.72l-241.77-153.54v1077.01s466.5-240.45,710.35-367.21c112.4-58.43,131.49-112.98,131.49-258.97,0-34.55,.99-236.57,2.04-442.1l-397.73,170.22c-19.47,8.33-43.32,12.32-68.62,12.32Z"/>
          <path class="cls-5" d="M882.11,2212.84c-25.3,0-49.13-3.99-68.62-12.32l-399.78-171.1c1.05,205.83,2.04,408.37,2.04,442.98,0,145.99,19.09,200.54,131.49,258.97,243.85,126.76,710.34,367.21,710.34,367.21V2022.9l-239.71,152.23c-38.47,24.41-89.57,37.72-135.78,37.72Z"/>
          <path class="cls-5" d="M1243.8,1927.23l-210.22-89.97-566.54-242.47c-12.68-5.43-28.76-7.99-46.18-7.99-3.1,0-6.28,.18-9.46,.34-32.93,1.67-69.18,11.8-95.94,28.79l-243.23,154.46c-20.55,13.06-29.28,26.49-28.72,33.47,.38,4.46,6.19,9.51,15.58,13.53l354.31,151.64,422.45,180.8c38.33,16.44,107.71,6.71,151.61-21.15l243.2-154.46c14.9-9.46,23.49-19.08,26.93-26.34,.16-.35,.38-.71,.52-1.05-.28-3.21-.31-6.42-.09-9.63-2.27-3.45-7.25-7-14.22-9.97Z"/>
          <path class="cls-5" d="M2501.13,1770.4l-243.22-154.46c-27.31-17.35-64.53-27.65-98-28.99-20.25-.81-39.12,1.65-53.58,7.84l-606.64,259.63-170.14,72.81c-6.95,2.97-11.92,6.52-14.2,9.97,0,.12-.01,.24,0,.36,.19,3.09,.18,6.18-.09,9.27,3.08,7.36,11.84,17.47,27.45,27.39l243.22,154.46c43.85,27.86,113.25,37.59,151.58,21.15l420.4-179.92,356.38-152.52c9.37-4.01,15.2-9.06,15.57-13.53,.58-6.98-8.17-20.41-28.72-33.47Z"/>
          <path class="cls-5" d="M930.13,1352.44c-3.16-3.12-5.97-6.62-8.6-10.48-.43-.63-.9-1.18-1.31-1.83-.51-.76-1-1.52-1.46-2.3-2.5-4.22-4.6-8.81-6.23-13.59-.27-.79-.54-1.59-.78-2.39-1.41-4.6-2.4-9.33-2.94-14.07-.08-.67-.14-1.35-.19-2.07-.28-3.13-.22-6.34-.14-9.53-.63-.25-1.27-.51-1.9-.76l-.85-.34-5.13-2.08-.74-.3-5.12-2.09c-21.14-8.64-36.95-15.36-37.61-15.64l-22.52-9.58v-260.64l-125.76,52.11-78.07,101.63-92.82,120.83c-1.96,2.55-4.11,5.06-6.56,7.63-.68,.72-1.38,1.41-2.22,2.22-1.65,1.63-3.35,3.2-5.08,4.68-.89,.76-1.8,1.51-2.71,2.23-1.78,1.41-3.59,2.74-5.63,4.13-.8,.56-1.61,1.11-2.43,1.63-2.28,1.45-4.58,2.78-6.82,3.96l-.48,.28-1.15,.57c-2.78,1.39-5.67,2.65-8.85,3.84-.92,.35-1.84,.66-2.83,.98-2.15,.73-4.31,1.39-6.49,1.96-1.1,.29-2.21,.55-3.31,.79-2.17,.48-4.36,.87-6.77,1.22-.98,.15-1.95,.29-2.92,.39-2.5,.27-5.04,.44-7.57,.5l-.84,.05h-1.35c-3.68,0-7.45-.28-11.5-.83-.96-.13-1.92-.28-2.86-.44-3.41-.58-6.54-1.29-9.63-2.18l-.5-.12-1.46-.47c-3.64-1.16-7.28-2.65-11.15-4.54-.89-.43-1.77-.89-2.65-1.36-3.9-2.09-7.32-4.24-10.45-6.58l-57.58-43.01-46.39-34.66-163.54,67.77c-42.5,17.61-38.78,55.35,8.31,84.3l221.66,136.29c47.08,28.95,119.71,38.15,162.2,20.54l405.6-168.06c-.12-.07-.21-.11-.34-.19-5.03-3.03-9.59-6.53-13.55-10.43Z"/>
          <path class="cls-5" d="M2425.05,1289.98l-625.52-259.2v246.1c-29.46,5.62-62.27,11.81-91.87,15.52-22.28,2.75-45.14,5.36-67.63,4.31,3.66,22.86-4.31,47.19-21.79,62.6,42.18,11.8,441.8,199.22,478.11,180.38,34.18-1.86,70.91-12,98.73-29.11l221.66-136.29c47.09-28.95,50.8-66.69,8.31-84.3Z"/>
        </g>
        <g>
          <path class="cls-3" d="M1236.49,1425.08c-16.23-15.98-46.55-12.46-70.54,7.12,.39-.46,.69-.96,1.07-1.43h0c1.78-2.2,3.51-4.43,5.01-6.72,.11-.17,.24-.34,.35-.51,1.78-2.75,3.34-5.55,4.71-8.36,.08-.16,.16-.31,.24-.47,1.37-2.88,2.52-5.77,3.44-8.66,.02-.07,.05-.14,.07-.2,.93-2.95,1.64-5.9,2.11-8.8h0c2.15-13.45-.81-26.02-9.51-34.59-9.98-9.83-25.29-12.21-41.18-8.07h0s-.02,0-.04,0c-5.54,1.45-11.15,3.66-16.63,6.67-.13,.07-.26,.14-.39,.21-2.58,1.42-5.12,3.04-7.61,4.8-.37,.26-.73,.53-1.09,.8-1.32,.96-2.58,2.09-3.87,3.13h0c-1.11,.9-2.26,1.72-3.34,2.71,2.01-2.07,3.84-4.22,5.58-6.39,.4-.5,.79-.99,1.17-1.5,1.68-2.21,3.27-4.45,4.68-6.73,.01-.02,.02-.04,.04-.06,1.42-2.32,2.67-4.67,3.8-7.03,.18-.38,.37-.76,.54-1.14,1.11-2.42,2.1-4.85,2.89-7.28-.04-.03-.08-.07-.12-.1,3.31-10.09,2.61-24.29,1.63-28.73-.64-2.92-1.91-5.61-3.37-8.15-.09-.16-.21-.3-.3-.45-.65-1.1-1.35-2.18-2.13-3.2-.9-1.17-1.88-2.29-2.95-3.34-1.17-1.15-2.46-2.13-3.79-3.05h0c-.62-.43-1.24-.88-1.88-1.28-.71-.44-1.45-.84-2.19-1.23-1.35-.71-2.78-1.3-4.23-1.84-1.33-.48-2.67-.92-4.07-1.26-1.43-.35-2.89-.64-4.39-.85-.4-.01-.82-.02-1.26-.02-.48,0-1.09,.05-1.61,.07-.69,.02-1.36,.04-2.12,.09-.86,.06-1.79,.16-2.74,.26-.83,.09-1.62,.16-2.5,.28-1.02,.14-2.09,.33-3.17,.51-.92,.16-1.8,.29-2.76,.48-1.14,.23-2.31,.52-3.49,.8-.97,.23-1.9,.43-2.89,.7-1.23,.33-2.47,.74-3.72,1.14-.97,.31-1.93,.58-2.9,.92-1.31,.46-2.61,1.02-3.91,1.55-.9,.37-1.81,.69-2.71,1.1-1.45,.66-2.84,1.42-4.25,2.18-.71,.38-1.46,.71-2.16,1.12-2.07,1.22-4.08,2.54-5.96,4,2.11-2.66,3.93-5.4,5.62-8.16,.35-.57,.68-1.14,1.01-1.72,2.94-5.13,5.26-10.37,6.81-15.58,.58-2.02,.9-3.45,1.25-5.15,.16-.8,.29-1.59,.42-2.39,.39-2.38,.59-4.72,.66-7.02,.03-1.3,.08-2.6,0-3.87-.06-1.16-.2-2.29-.35-3.41-.23-1.67-.55-3.3-.97-4.89-.17-.65-.28-1.32-.48-1.95-.71-2.17-1.66-4.22-2.77-6.18-.31-.56-.65-1.1-.99-1.64-1.29-2.01-2.71-3.94-4.46-5.66-1.54-1.52-3.26-2.8-5.04-3.97-.4-.26-.8-.53-1.22-.78-1.79-1.07-3.66-2.01-5.64-2.75-.28-.1-.57-.17-.85-.27-1.83-.63-3.72-1.12-5.68-1.49-.44-.08-.88-.18-1.33-.25-2.16-.34-4.37-.52-6.64-.54-.6,0-1.21,.03-1.81,.04-1.26,.03-2.54,.1-3.83,.23-.7,.07-1.41,.15-2.12,.25-1.29,.18-2.59,.41-3.89,.67-.68,.14-1.35,.26-2.03,.43-1.56,.37-3.12,.82-4.69,1.32-.41,.13-.82,.23-1.24,.37-1.97,.67-3.95,1.45-5.91,2.31-.54,.24-1.07,.52-1.61,.77-1.44,.67-2.87,1.38-4.29,2.16-.7,.38-1.38,.79-2.08,1.2-1.27,.75-2.54,1.53-3.79,2.36-.7,.46-1.39,.93-2.08,1.42-1.29,.91-2.57,1.88-3.83,2.89-.59,.47-1.19,.91-1.77,1.4-1.82,1.52-3.61,3.11-5.34,4.82-1.7,1.68-3.3,3.41-4.82,5.17-.34,.39-.65,.8-.98,1.2-1.19,1.44-2.35,2.89-3.42,4.36-.25,.34-.48,.68-.71,1.02-1.14,1.63-2.23,3.27-3.22,4.93-.11,.18-.21,.36-.32,.54-1.11,1.88-2.14,3.78-3.06,5.7-6.43,14.77-6.31,22.73-6.32,22.95-.16,2.51-.14,4.97,.08,7.36,.03,.32,.04,.65,.08,.97,.28,2.46,.79,4.84,1.49,7.13,.12,.38,.24,.76,.37,1.14,.77,2.24,1.72,4.4,2.92,6.41,.17,.29,.37,.55,.55,.83,1.31,2.07,2.8,4.04,4.59,5.8,.39,.39,.83,.71,1.24,1.07h0c1.54,1.35,3.17,2.58,4.9,3.62,.73,.44,1.53,.74,2.29,1.12,1.55,.78,3.11,1.52,4.78,2.07,.96,.32,1.97,.53,2.96,.78,1.59,.39,3.2,.73,4.87,.94,1.09,.13,2.19,.21,3.31,.27,1.18,.06,2.37,.11,3.56,.11,.99,0,2-.03,3.01-.11,.22-.02,.43-.01,.65-.03,2.74-.25,5.53-.76,8.33-1.42,.45-.11,.9-.2,1.35-.32,2.73-.71,5.48-1.63,8.22-2.73,.49-.2,.98-.41,1.47-.61,2.76-1.18,5.51-2.52,8.23-4.08,.38-.22,.75-.46,1.12-.68,2.85-1.69,5.66-3.54,8.39-5.65-18.56,23.31-21.56,52.06-5.75,67.63,1.55,1.53,3.27,2.81,5.05,3.98,.36,.24,.72,.48,1.09,.71,1.78,1.07,3.64,1.99,5.6,2.73,.35,.13,.71,.23,1.07,.36,1.87,.64,3.8,1.16,5.79,1.52,.28,.05,.54,.13,.82,.17,2.16,.35,4.4,.51,6.67,.54,.27,0,.54,0,.81,0,.32,0,.64,0,.96,0,1.15-.02,2.32-.09,3.5-.2,.67-.06,1.33-.11,2-.19,1.31-.16,2.63-.39,3.96-.65,.54-.1,1.08-.18,1.62-.3,1.87-.41,3.74-.91,5.62-1.5,.32-.1,.63-.23,.95-.34,1.57-.52,3.13-1.09,4.7-1.74,.65-.27,1.29-.57,1.93-.86,1.24-.56,2.49-1.14,3.72-1.77,.7-.36,1.4-.74,2.1-1.13,1.19-.66,2.37-1.35,3.55-2.08,.68-.42,1.36-.84,2.04-1.29,1.24-.82,2.46-1.69,3.68-2.59,.57-.43,1.16-.83,1.73-1.27,1.76-1.37,3.5-2.81,5.19-4.35-23.54,24.21-28.77,57.06-11.45,74.1,1.57,1.54,3.3,2.85,5.11,4.03,.3,.2,.6,.41,.9,.6,1.77,1.07,3.64,1.97,5.59,2.72,.38,.15,.77,.28,1.15,.41,2.02,.7,4.1,1.27,6.27,1.65,.21,.04,.43,.05,.64,.08,2.11,.33,4.29,.5,6.52,.53,.33,0,.65,.03,.99,.03h.05c1.37-.01,2.76-.09,4.16-.22,.29-.03,.58-.02,.88-.05,1.7-.18,3.42-.44,5.15-.78,.5-.1,1.01-.24,1.51-.35,1.24-.27,2.48-.56,3.72-.92,.65-.18,1.3-.41,1.95-.61,1.11-.35,2.21-.72,3.32-1.13,.7-.26,1.39-.54,2.08-.83,1.07-.44,2.14-.9,3.21-1.4,.7-.32,1.4-.66,2.09-1.01,1.08-.54,2.15-1.12,3.22-1.72,.66-.37,1.33-.73,1.98-1.13,1.15-.69,2.29-1.43,3.42-2.19,.56-.37,1.12-.72,1.67-1.1,1.67-1.17,3.33-2.41,4.95-3.73-20.1,23.66-23.77,53.7-7.48,69.74,1.54,1.52,3.26,2.8,5.04,3.97,.4,.26,.8,.53,1.21,.77,1.79,1.07,3.67,2.01,5.65,2.75,.27,.1,.57,.17,.84,.27,1.83,.64,3.73,1.12,5.68,1.49,.44,.08,.88,.18,1.33,.25,2.16,.34,4.38,.52,6.65,.54,.05,0,.1,0,.15,0,.55,0,1.1-.03,1.65-.04,1.27-.03,2.54-.1,3.83-.23,.7-.07,1.41-.15,2.12-.25,1.29-.18,2.59-.41,3.9-.67,.67-.14,1.34-.26,2.02-.42,1.56-.37,3.12-.82,4.69-1.32,.41-.13,.83-.23,1.24-.37,1.97-.67,3.95-1.45,5.91-2.31,.53-.24,1.06-.52,1.59-.77,1.44-.68,2.88-1.39,4.31-2.17,.69-.38,1.38-.79,2.06-1.19,1.28-.75,2.55-1.54,3.8-2.37,.7-.46,1.39-.93,2.08-1.41,1.29-.91,2.57-1.89,3.83-2.89,.59-.47,1.19-.91,1.77-1.4,1.82-1.52,3.61-3.11,5.34-4.82,1.65-1.62,3.19-3.29,4.67-4.98,.48-.55,.91-1.12,1.37-1.68,.96-1.16,1.91-2.32,2.79-3.51,.5-.67,.95-1.35,1.42-2.02,.77-1.11,1.53-2.22,2.24-3.35,.44-.71,.85-1.42,1.27-2.13,.65-1.12,1.28-2.25,1.87-3.39,.37-.71,.72-1.42,1.06-2.13,.28-.58,.51-1.15,.77-1.73h0c.26-.59,.54-1.17,.78-1.76,.28-.68,.57-1.37,.82-2.05,.46-1.23,.87-2.46,1.25-3.69,.19-.62,.4-1.24,.57-1.86,.38-1.37,.69-2.73,.97-4.09,.1-.47,.22-.95,.31-1.42,.31-1.74,.7-5.44,.69-5.45,.91-11.79-2.3-22.62-10.06-30.26Z"/>
          <path class="cls-1" d="M1391.32,1094.25l-.08-.06c-.06-.05-.1-.09-.15-.13l-.03-.02,1.79-2.17s.07,.06,.1,.09l.11,.1-1.74,2.21Z"/>
          <path class="cls-3" d="M1599.51,1296.46c-.4-1.52-.88-3.06-1.44-4.61-1.11-3.09-2.53-6.22-4.24-9.34-.68-1.24-1.44-2.48-2.21-3.72-6.98-5.2-15.74-12.33-27.66-22.7-4.5-3.92-9.25-8.12-14.2-12.56-4.89-4.39-9.97-9.01-15.19-13.8-5.19-4.76-10.51-9.68-15.91-14.72-5.38-5.02-10.84-10.15-16.32-15.32-5.47-5.17-10.96-10.38-16.43-15.6-5.45-5.2-10.87-10.4-16.21-15.53-5.33-5.13-10.57-10.19-15.67-15.13-14.73-14.27-28.19-27.44-39.42-38.48l-11.32-11.15-.66-.65-2.34-2.3-.59-.58-4.53-4.47c-.38-.38-.89-.78-1.32-1.16-3.22-2.8-8.52-5.94-19.45-5.38-7.67,.39-12.64,2.97-14.94,3.82-.16,.06-.33,.15-.49,.23l-.49,.24-.66,.32c-.71,.36-1.35,.69-1.98,1.03l-.91,.48-1.94,1.05-.78,.42-3.02,1.62c-2.05,1.08-4.46,2.34-7.15,3.73l-4.12,2.11-9.17,4.66-4.95,2.51-10.41,5.26c-7.49,3.78-10.51,5.37-14.34,7.39-2.43,1.28-5.16,2.72-9.38,4.9-1.9,.99-3.91,2-5.96,3l-1.63,.78-.38,.18c-1.53,.73-3.07,1.46-4.64,2.17-.74,.34-1.51,.67-2.27,.99l-.58,.25c-1.5,.65-2.99,1.29-4.52,1.92-.89,.36-1.79,.71-2.69,1.05l-.61,.23c-1.56,.6-3.12,1.19-4.72,1.75-1.04,.37-2.09,.71-3.15,1.05l-.51,.17c-1.65,.54-3.3,1.06-4.97,1.54-1.35,.39-2.7,.74-4.03,1.09-1.76,.45-3.52,.87-5.29,1.25-1.46,.31-2.91,.59-4.38,.86-.14,.02-.27,.04-.4,.06-1.75,.31-3.49,.58-5.22,.8-1.56,.2-3.12,.38-4.71,.52-1.81,.16-3.6,.26-5.42,.32-1.27,.09-2.53,.14-3.79,.14-.99,0-1.97-.03-2.97-.1-1.23-.04-2.46-.11-3.69-.2-2.06-.14-4.11-.34-6.16-.62-1.63-.22-3.26-.49-4.85-.8-2.12-.4-4.21-.89-6.3-1.46-1.66-.45-3.3-.93-4.96-1.49-2.57-.86-4.73-1.76-6.4-2.47-1.48-.63-2.94-1.3-4.37-2.01-.14-.07-.28-.12-.41-.19-2.5-1.26-4.52-2.5-6.54-3.74-1.41-.86-2.8-1.75-4.17-2.72-2.49-1.77-4.44-3.44-6.14-4.89-1.25-1.04-2.48-2.1-3.68-3.25-2.34-2.25-4.21-4.4-5.63-6.06-1.04-1.13-2.05-2.28-3.03-3.54-2.7-3.44-5.19-7.08-7.41-10.82-11.72-19.71-15.24-40.23-10.85-59.62,2.9-12.77,9.2-25.06,18.97-36.28,3.52-4.04,7.58-8.05,12.05-11.91,1.94-1.67,3.93-3.29,5.94-4.86,3.35-2.6,6.98-5.23,11.09-8.01,2.03-1.38,3.93-2.6,5.86-3.85,.99-.64,2.05-1.36,3-1.97l.38-.25c1.25-.8,2.89-1.83,4.91-3.05,1.74-1.05,3.8-2.27,6.13-3.64,2.99-1.75,6.46-3.75,10.35-5.98,4.01-2.29,6.74-3.97,9.51-5.67,4.84-2.97,10.33-6.33,21.24-12.3,5.6-3.06,11.4-6.22,17.32-9.42,13.96-7.54,27.43-14.69,40.27-21.4-6.08-5.55-38.08-32.2-93.13-32.2-61.44,0-188.22,87.37-204.8,88.33-.23,.01-.47,.02-.72,.02-.48,0-1.2-.11-1.77-.16-.66-.05-1.25-.07-2.03-.18-.86-.12-1.88-.32-2.88-.51-.89-.17-1.72-.3-2.71-.52-1.11-.24-2.36-.55-3.58-.85-1.09-.27-2.12-.5-3.29-.81-1.31-.34-2.74-.76-4.15-1.15-1.26-.35-2.47-.68-3.79-1.07-1.5-.44-3.1-.94-4.67-1.42-1.37-.42-2.69-.82-4.11-1.26-1.63-.52-3.33-1.08-5.02-1.63-1.48-.48-2.93-.95-4.44-1.46-1.72-.57-3.48-1.18-5.23-1.78-1.54-.53-3.05-1.04-4.61-1.58-1.79-.62-3.59-1.27-5.39-1.91-1.58-.56-3.14-1.11-4.73-1.69-1.83-.66-3.64-1.34-5.46-2.01-1.53-.56-3.06-1.12-4.57-1.69-1.89-.71-3.74-1.42-5.6-2.13-1.43-.55-2.88-1.09-4.28-1.64-1.82-.71-3.56-1.4-5.34-2.1-1.37-.54-2.77-1.09-4.11-1.62-1.75-.7-3.37-1.37-5.04-2.06-1.25-.51-2.56-1.04-3.77-1.54-1.63-.68-3.11-1.32-4.64-1.97-1.1-.47-2.28-.96-3.31-1.41-1.44-.63-2.68-1.2-3.99-1.79-.96-.43-2.01-.89-2.9-1.3-1.32-.61-2.4-1.15-3.54-1.71-.66-.32-1.45-.69-2.05-.99-1.62-.83-4.96-2.4-6.05-3.05v311.53s15.32,6.51,36.44,15.14c.07,.03,.13,.06,.2,.08,1.59,.65,3.21,1.31,4.85,1.98,.28,.12,.57,.23,.85,.35,.56,.23,1.13,.46,1.7,.69,.12-.28,.21-.54,.34-.82l.3-.69,.33-.68c1.35-2.79,2.89-5.66,4.63-8.63l.42-.71c1.42-2.37,2.98-4.76,4.88-7.46,.33-.48,.66-.95,.94-1.34,1.47-2.03,3.06-4.07,4.93-6.31,.5-.63,1.01-1.25,1.52-1.84,2.33-2.7,4.63-5.16,7.02-7.52,2.35-2.32,4.88-4.6,7.73-6.98,.75-.63,1.52-1.23,2.57-2.05,1.85-1.46,3.71-2.88,5.59-4.21,1.02-.72,2.06-1.42,3.09-2.1,1.86-1.23,3.74-2.4,5.94-3.69,.93-.55,1.87-1.09,2.8-1.6,2.16-1.18,4.32-2.26,6.41-3.24,.85-.42,1.71-.83,2.56-1.2,3.07-1.35,6.16-2.56,9.16-3.58,.8-.27,1.6-.52,2.45-.76,2.49-.78,4.82-1.43,7.08-1.97,1.02-.24,2.03-.46,3.38-.72,2.18-.45,4.36-.82,6.51-1.12,1.22-.17,2.43-.31,3.63-.43,2.26-.22,4.5-.35,6.98-.42,.82-.03,1.64-.05,2.45-.05h.35s.2,0,.2,0c4.2,.04,8.39,.38,12.45,1.02,.91,.14,1.81,.31,2.6,.47,3.69,.69,7.28,1.63,10.66,2.76,.87,.27,1.72,.56,2.53,.86,4.09,1.53,8.17,3.51,12.14,5.87,.91,.54,1.8,1.11,2.67,1.69,4.23,2.78,7.86,5.68,11.09,8.85,3.62,3.56,6.88,7.63,10.02,12.53,.75,1.18,1.48,2.37,2.11,3.51,2.46,4.37,4.36,8.66,5.89,13.34,.45,1.41,.83,2.86,1.18,4.41,.63,2.45,1.16,5.01,1.58,7.73,2.48,.37,5,.87,7.38,1.46,2.68,.65,5.32,1.46,8.53,2.62,3.38,1.25,6.24,2.51,8.74,3.83,1.64,.85,3.25,1.75,5.04,2.85,4.91,3.07,8.88,6.15,12.47,9.7,2.34,2.3,4.54,4.79,6.57,7.43,1.37,1.78,2.67,3.68,3.94,5.74l.5,.72,.9,1.58c3.71,6.48,6.19,12.72,7.59,19.1,.52,2.34,.97,5.33,1.28,8.77,16.18,2.45,30.75,9.53,41.92,20.53,11.41,11.23,18.57,25.85,20.95,42.03,16.25,2.45,30.89,9.55,42.11,20.6,15.73,15.48,23.4,37.05,21.62,60.75-.19,3.86-.77,7.14-1.19,9.46-.15,.84-.33,1.69-.54,2.62-.01,.05-.03,.1-.04,.16,1.01,1.61,1.84,2.93,2.25,3.53,1.94,2.88,3.14,4.84,4.72,7.04,.28,.4,.57,.8,.85,1.19,1.52,2.06,3.05,3.97,4.58,5.74,.29,.34,.59,.66,.88,.99,1.58,1.77,3.17,3.45,4.75,4.94,.02,.02,.05,.04,.07,.06,1.59,1.49,3.17,2.81,4.75,4.03,.28,.21,.55,.44,.83,.65,1.53,1.15,3.06,2.18,4.57,3.1,.29,.18,.58,.34,.87,.51,1.55,.9,3.1,1.73,4.63,2.41,.05,.02,.1,.04,.16,.06,1.51,.67,3,1.22,4.48,1.69,.26,.08,.52,.18,.78,.25,1.45,.44,2.88,.78,4.29,1.05,.28,.05,.55,.1,.83,.14,1.43,.24,2.85,.43,4.24,.52,.08,0,.15,0,.22,0,1.06,.06,2.08,.04,3.11,.03,2.1-.04,4.15-.2,6.09-.52,.31-.05,.59-.12,.9-.18,1.77-.33,3.47-.76,5.08-1.27,.29-.09,.59-.17,.87-.26,1.7-.58,3.28-1.24,4.75-1.94,.32-.15,.63-.31,.94-.47,1.43-.73,2.78-1.48,3.93-2.25,2.44-1.62,5.05-3.79,7.49-6.43,2.45-2.64,4.73-5.75,6.51-9.24,1.78-3.49,3.07-7.37,3.52-11.55,.15-1.39,.21-2.82,.16-4.28-.28-8.75-4.35-18.59-14.88-28.87-3.24-3.17-6.7-6.59-10.26-10.16-10.7-10.72-22.38-22.79-32.2-33.31-7.55-8.09-9.29-14.43-7.08-16.46,.78-.71,1.54-1.2,2.3-1.57,.25-.12,.5-.16,.74-.24,.52-.18,1.04-.31,1.56-.34,.11,0,.22-.07,.33-.07,.15,0,.3,.09,.45,.1,.69,.05,1.4,.21,2.12,.49,.2,.08,.4,.12,.61,.22,.91,.42,1.85,.99,2.84,1.7,.24,.17,.5,.39,.74,.58,.82,.63,1.67,1.34,2.57,2.13,.32,.28,.65,.57,.98,.87,1.11,1.01,2.26,2.09,3.51,3.29,2.67,2.55,5.71,5.63,9.21,9.22,5.25,5.39,11.51,11.94,19.06,19.66,2.51,2.57,5.17,5.28,7.98,8.11,5.61,5.67,11.83,11.85,18.74,18.55,1.56,1.51,3.09,2.9,4.6,4.18,.51,.43,1,.78,1.5,1.18,1,.8,2,1.62,2.98,2.32,.59,.43,1.17,.78,1.75,1.17,.87,.58,1.74,1.19,2.6,1.69,.61,.37,1.21,.66,1.82,.99,.81,.44,1.61,.89,2.41,1.26,.62,.29,1.22,.52,1.83,.77,.76,.32,1.53,.64,2.28,.9,.61,.21,1.21,.37,1.82,.55,.73,.21,1.45,.43,2.17,.59,.6,.13,1.19,.22,1.78,.32,.7,.12,1.39,.23,2.08,.3,.59,.06,1.17,.08,1.75,.11,.65,.03,1.31,.05,1.95,.03,.7-.02,1.39-.07,2.07-.13,.58-.05,1.15-.1,1.72-.18,.68-.1,1.35-.25,2.02-.39,.55-.12,1.1-.23,1.64-.38,.67-.18,1.33-.41,1.99-.64,.52-.18,1.04-.34,1.55-.55,.66-.26,1.31-.57,1.95-.88,.49-.23,.98-.44,1.46-.69,.65-.34,1.29-.73,1.93-1.11,.45-.27,.91-.52,1.35-.8,.67-.43,1.32-.91,1.98-1.37,.39-.28,.8-.54,1.19-.84,.72-.55,1.43-1.14,2.13-1.73,.3-.25,.62-.49,.92-.75,1-.87,1.97-1.78,2.93-2.72,13.63-13.42,19.75-36.24-3.25-56.65-12.41-11.01-35-31.49-50.14-46.56-5.64-5.61-10.39-10.56-12.3-14.36-.76-1.52-1.07-2.85-.81-3.97,.13-.56,.41-1.07,.85-1.51,.5-.51,1.07-.89,1.69-1.2,.18-.09,.38-.15,.58-.22,.48-.18,1-.28,1.56-.32,.15-.01,.26-.09,.41-.09,.09,0,.2,.05,.29,.05,.78,.03,1.62,.16,2.57,.48,.04,.01,.07,.01,.1,.02,.98,.34,2.08,.89,3.25,1.57,.34,.2,.71,.45,1.07,.68,.92,.59,1.91,1.29,2.96,2.09,.42,.32,.84,.63,1.28,1,1.48,1.2,3.03,2.55,4.76,4.19,0,0,.02,.01,.03,.02,2.16,2.05,4.49,4.25,6.97,6.58,4.95,4.66,10.49,9.83,16.36,15.28,2.94,2.72,5.96,5.51,9.04,8.35,6.16,5.66,12.55,11.49,18.93,17.24,6.38,5.75,12.76,11.43,18.9,16.81,1.74,1.53,3.51,2.79,5.29,3.94,.36,.23,.72,.47,1.09,.69,1.73,1.03,3.46,1.92,5.2,2.62,.31,.13,.62,.22,.93,.34,1.63,.61,3.26,1.08,4.89,1.42,.22,.05,.45,.12,.67,.16,1.75,.32,3.48,.46,5.2,.49,.44,0,.88,0,1.32,0,.86-.02,1.72-.08,2.57-.17,.48-.05,.95-.09,1.42-.16,.94-.14,1.86-.34,2.77-.56,.36-.09,.73-.15,1.09-.25,1.27-.35,2.51-.76,3.74-1.25,.2-.08,.39-.18,.59-.27,1.02-.43,2.02-.89,3-1.41,.4-.21,.78-.45,1.17-.67,.77-.44,1.53-.9,2.27-1.39,.42-.28,.82-.57,1.23-.86,.7-.51,1.38-1.03,2.05-1.59,.38-.31,.76-.63,1.14-.95,.7-.61,1.37-1.26,2.03-1.92,.3-.3,.62-.59,.91-.91,.93-.99,1.83-2.01,2.67-3.09,2.29-2.92,4.22-6.07,5.72-9.38,3-6.62,4.28-13.86,3.23-21.13-.35-2.42-.96-4.85-1.85-7.25-2.23-6.01-6.21-11.89-12.3-17.29-3.05-2.7-6.18-5.44-9.35-8.18-3.17-2.75-6.38-5.5-9.57-8.22-3.19-2.73-6.37-5.43-9.49-8.07-6.24-5.29-12.23-10.34-17.58-14.92-1.34-1.14-2.63-2.25-3.89-3.33-2.5-2.16-4.82-4.18-6.9-6.02-3.12-2.77-5.72-5.17-7.62-7.07-1.52-1.52-2.83-2.91-3.87-4.21-1.04-1.29-1.82-2.49-2.27-3.64-.23-.57-.37-1.13-.43-1.68-.08-.77,.07-1.51,.35-2.26,.16-.44,.37-.87,.67-1.31,.28-.41,.57-.82,.97-1.23,0,0,0,0,0,0,.52-.53,1.05-.89,1.59-1.18,.17-.09,.34-.14,.51-.2,.4-.15,.82-.25,1.26-.28,.11,0,.21-.07,.32-.07,.08,0,.17,.04,.25,.05,.59,.03,1.2,.14,1.86,.36,.05,.02,.09,.02,.14,.04,.72,.26,1.52,.67,2.36,1.15,.24,.14,.51,.31,.77,.47,.66,.41,1.36,.87,2.11,1.4,.29,.2,.58,.41,.89,.63,1.02,.75,2.1,1.56,3.3,2.49,12.68,9.9,41.21,35.36,70.22,60.48,1.27,1.1,2.55,2.1,3.83,3.03,.42,.3,.84,.56,1.26,.85,.87,.59,1.73,1.16,2.6,1.67,.49,.29,.98,.55,1.46,.82,.81,.44,1.61,.85,2.42,1.23,.5,.23,.99,.45,1.49,.66,.81,.34,1.63,.65,2.44,.93,.47,.16,.93,.33,1.4,.48,.9,.28,1.8,.5,2.7,.71,.36,.08,.72,.19,1.08,.26,1.25,.25,2.5,.43,3.74,.55,.18,.02,.35,.01,.53,.02,1.03,.08,2.06,.12,3.08,.11,1.19-.01,2.36-.09,3.52-.22,.21-.02,.43-.02,.64-.05,1.37-.17,2.71-.42,4.04-.74,.41-.1,.8-.23,1.2-.34,.91-.25,1.82-.51,2.71-.83,.49-.17,.96-.37,1.44-.56,.78-.31,1.56-.63,2.32-.99,.49-.23,.97-.48,1.45-.72,.73-.38,1.45-.77,2.15-1.19,.46-.27,.92-.55,1.37-.84,.7-.45,1.39-.93,2.06-1.42,.41-.3,.83-.59,1.23-.9,.71-.55,1.4-1.14,2.07-1.73,.33-.29,.67-.56,.99-.85,.97-.9,1.91-1.83,2.8-2.8,.91-1,1.73-2.05,2.47-3.14,.94-1.4,1.69-2.91,2.36-4.46,.79-1.85,1.4-3.79,1.81-5.82,.31-1.58,.55-3.19,.63-4.86,.21-4.2-.31-8.65-1.52-13.23Z"/>
          <path class="cls-1" d="M1391.97,1092.97c.06,.04,.09,.08,.14,.13l.03,.02-.17-.15Z"/>
          <path class="cls-1" d="M1391.32,1094.25l-.08-.06c-.06-.05-.1-.09-.15-.13l-.03-.02,1.79-2.17s.07,.06,.1,.09l.11,.1-1.74,2.21Z"/>
          <path class="cls-1" d="M1377.11,1048.64c1.17-.02,2.35-.02,3.54,.02-.71-.03-1.41-.04-2.11-.04-.48,0-.95,0-1.42,.01Z"/>
          <path class="cls-1" d="M1380.6,1050.07c-.18,0-.36-.01-.54-.02-.93-.02-1.93-.02-2.91,0,0,0,0,0,0,0h0l-.06-2.81c1.07-.02,2.07-.02,3.05,0,.19,0,.38,.01,.56,.02l-.1,2.81Z"/>
          <path class="cls-3" d="M1758.3,979.4c-.93,.24-2.3,.59-4.05,1.03-3.5,.89-8.53,2.17-14.63,3.7-3.05,.77-6.38,1.6-9.91,2.49-7.08,1.77-15.01,3.74-23.35,5.8-.37,.09-.77,.19-1.14,.28-5.91,1.45-11.99,2.94-18.14,4.43-6.53,1.58-13.1,3.15-19.53,4.67-8.57,2.02-16.88,3.94-24.48,5.63-5.7,1.27-11.01,2.42-15.73,3.38-4.72,.97-8.85,1.76-12.21,2.32-2.24,.37-4.13,.65-5.63,.8-1.31,.14-2.6,.19-3.88,.19-.1,0-.21,0-.31,0-.57,0-1.12-.06-1.68-.09-.84-.04-1.69-.08-2.52-.18-.59-.07-1.16-.19-1.75-.29-.78-.13-1.57-.26-2.34-.44-.6-.14-1.19-.32-1.78-.48-.75-.21-1.49-.41-2.23-.66-.6-.2-1.19-.43-1.78-.66-.72-.28-1.45-.56-2.17-.87-.59-.26-1.18-.54-1.77-.83-.71-.34-1.42-.69-2.12-1.07-.59-.31-1.18-.65-1.76-.99-.7-.4-1.4-.81-2.09-1.25-.58-.36-1.17-.74-1.75-1.12-.12-.08-.25-.17-.37-.25-.58-.38-1.16-.77-1.73-1.17-.57-.4-1.15-.81-1.72-1.23-.71-.52-1.41-1.05-2.12-1.59-.57-.44-1.15-.88-1.72-1.33-.71-.56-1.43-1.14-2.15-1.73-.57-.47-1.14-.93-1.71-1.41-.73-.61-1.46-1.24-2.2-1.87-.57-.49-1.13-.97-1.71-1.47-.75-.66-1.51-1.34-2.28-2.02-.56-.5-1.12-.99-1.68-1.5-.81-.73-1.62-1.47-2.44-2.21-.56-.51-1.12-1.02-1.69-1.54-1.21-1.1-2.42-2.21-3.66-3.34-.94-.86-1.9-1.73-2.86-2.6-.5-.46-.99-.91-1.5-1.36-1.43-1.29-2.87-2.59-4.34-3.89-1.67-1.48-3.57-3.18-5.6-4.99-1.45-1.29-2.94-2.62-4.55-4.05-.72-.64-1.49-1.32-2.24-1.98-1.31-1.16-2.62-2.32-4.01-3.54-.86-.76-1.77-1.54-2.66-2.32-1.36-1.18-2.71-2.35-4.13-3.57-.99-.85-2.02-1.71-3.04-2.58-1.39-1.18-2.79-2.35-4.23-3.55-1.11-.92-2.23-1.84-3.36-2.76-1.43-1.17-2.86-2.34-4.33-3.51-1.17-.94-2.35-1.87-3.55-2.8-1.49-1.17-2.98-2.33-4.5-3.48-1.21-.93-2.43-1.84-3.66-2.75-1.53-1.14-3.05-2.25-4.6-3.36-1.26-.91-2.51-1.8-3.78-2.68-1.54-1.08-3.08-2.12-4.63-3.15-1.27-.85-2.54-1.69-3.81-2.51-1.57-1.01-3.13-1.96-4.7-2.92-1.26-.77-2.52-1.53-3.77-2.26-1.58-.91-3.15-1.75-4.72-2.6-1.23-.66-2.46-1.34-3.68-1.95-1.61-.81-3.18-1.51-4.77-2.22-1.16-.52-2.32-1.08-3.46-1.55-1.66-.68-3.29-1.23-4.92-1.79-1.02-.35-2.06-.77-3.07-1.07-1.86-.56-3.67-.94-5.47-1.32-.72-.15-1.48-.39-2.19-.51-2.45-.41-4.84-.64-7.14-.64-.03,0-.05,0-.08,0-2.37,0-4.64,.25-6.82,.74-.06,.01-.12,0-.18,.02-1.65,.38-3.59,.94-5.79,1.68-2.2,.73-4.66,1.63-7.36,2.69-3.59,1.4-7.6,3.07-11.95,4.98-13.05,5.7-29.2,13.47-46.63,22.23-5.81,2.92-11.76,5.95-17.79,9.05-18.08,9.3-36.83,19.24-54.41,28.74-5.86,3.17-11.6,6.28-17.13,9.31-16.61,9.09-18.85,11.18-30.1,17.61-3.75,2.14-7.1,4.08-9.98,5.76-2.16,1.27-4.06,2.39-5.67,3.36-1.61,.97-2.92,1.79-3.92,2.43-2.66,1.71-5.54,3.56-8.49,5.56-2.95,2-5.99,4.15-8.96,6.46-1.48,1.16-2.96,2.35-4.39,3.59-2.87,2.48-5.61,5.13-8.08,7.96-11.11,12.74-16.69,29.19-3.98,50.57,1.46,2.45,2.99,4.66,4.59,6.7,.53,.68,1.11,1.24,1.66,1.88,1.09,1.26,2.17,2.53,3.31,3.62,.69,.66,1.41,1.22,2.12,1.82,1.05,.9,2.1,1.8,3.19,2.58,.78,.55,1.57,1.02,2.37,1.51,1.07,.66,2.13,1.31,3.22,1.86,.83,.42,1.68,.78,2.53,1.15,1.09,.47,2.19,.91,3.3,1.29,.87,.29,1.75,.54,2.63,.78,1.13,.3,2.25,.57,3.39,.79,.89,.17,1.78,.32,2.68,.44,1.16,.16,2.32,.27,3.49,.35,.89,.06,1.79,.12,2.68,.14,.41,0,.82,.06,1.23,.06,.64,0,1.28-.09,1.92-.1,1.25-.04,2.5-.1,3.76-.21,1.01-.09,2.01-.2,3.01-.33,1.25-.16,2.5-.35,3.74-.57,1-.18,1.99-.37,2.98-.58,1.25-.27,2.48-.56,3.72-.88,.97-.25,1.94-.5,2.91-.78,1.24-.36,2.46-.74,3.67-1.14,.93-.3,1.86-.6,2.78-.92,1.23-.43,2.43-.89,3.63-1.35,.87-.33,1.75-.66,2.6-1,1.23-.5,2.42-1.02,3.62-1.54,.77-.34,1.56-.66,2.31-1,1.33-.6,2.6-1.2,3.87-1.81,.56-.27,1.14-.53,1.68-.8,1.79-.87,3.51-1.75,5.15-2.59,11.05-5.72,11.66-6.2,24.09-12.48,3.55-1.79,7.04-3.55,10.39-5.25,1.68-.85,3.32-1.68,4.92-2.49,3.2-1.62,6.24-3.17,9.04-4.6,1.4-.72,2.74-1.4,4.01-2.06,2.55-1.31,4.82-2.5,6.76-3.52,.97-.51,1.85-.98,2.64-1.41,.83-.45,1.8-.98,2.86-1.55,.34-.18,.76-.4,1.12-.59,.84-.45,1.71-.9,2.67-1.39,.5-.25,1.05-.52,1.59-.78,.93-.46,1.89-.91,2.91-1.38,.61-.28,1.24-.56,1.89-.84,1.07-.47,2.18-.92,3.33-1.38,.66-.26,1.31-.53,2-.79,1.38-.52,2.82-1,4.3-1.47,.52-.17,1-.35,1.53-.5,2.01-.6,4.1-1.15,6.26-1.62,.49-.11,1-.17,1.5-.27,1.68-.33,3.39-.63,5.14-.84,.8-.1,1.62-.15,2.43-.22,1.51-.14,3.04-.23,4.59-.26,.47,0,.95-.01,1.42-.01,.7,0,1.41,.01,2.11,.04,.71,.02,1.41,.04,2.13,.09,1.57,.11,3.16,.3,4.75,.54,.5,.07,.98,.11,1.48,.2,2.09,.37,4.19,.86,6.31,1.48,.5,.15,1.01,.36,1.51,.52,1.62,.52,3.24,1.11,4.87,1.8,.74,.31,1.48,.68,2.22,1.03,1.43,.67,2.86,1.41,4.29,2.23,.78,.44,1.55,.9,2.33,1.38,1.48,.93,2.95,1.96,4.42,3.05,.69,.51,1.37,.97,2.05,1.52,2.13,1.7,4.26,3.54,6.37,5.63,1.35,1.33,2.89,2.85,4.52,4.46,.19,.19,.38,.38,.58,.57,.96,.95,1.95,1.93,3,2.96,3.35,3.31,7.12,7.01,11.27,11.09,.07,.07,.14,.13,.2,.2,10.97,10.78,24.36,23.88,39.01,38.08,5.07,4.91,10.28,9.94,15.57,15.04,5.3,5.1,10.68,10.25,16.09,15.42,5.41,5.17,10.86,10.34,16.28,15.46,5.42,5.12,10.82,10.19,16.14,15.15,5.32,4.96,10.56,9.81,15.67,14.5,5.11,4.69,10.08,9.21,14.87,13.5,4.79,4.3,9.39,8.37,13.74,12.16,12.66,11.02,23.23,19.62,30.45,24.48,2.71,1.83,4.99,3.17,6.67,3.85,1.07,.43,2.35,.79,3.73,1.11,.31,.07,.62,.15,.95,.21,1.41,.29,2.92,.55,4.57,.74,.22,.03,.46,.04,.67,.07,1.55,.17,3.2,.29,4.94,.39,.4,.02,.78,.05,1.19,.06,1.92,.08,3.93,.13,6.04,.13,.4,0,.82,0,1.23,0,2.04,0,4.15-.05,6.33-.12,.32-.01,.63-.02,.95-.03,2.38-.09,4.84-.22,7.34-.37,.56-.03,1.13-.07,1.7-.11,2.52-.17,5.08-.35,7.69-.57,.23-.02,.47-.04,.71-.06,2.5-.22,5.02-.46,7.57-.71,.53-.05,1.06-.11,1.59-.16,2.64-.27,5.29-.57,7.94-.87,.54-.06,1.08-.13,1.61-.19,2.5-.3,5-.6,7.47-.92,.28-.03,.55-.07,.83-.1,2.66-.34,5.29-.7,7.89-1.06,.57-.08,1.15-.16,1.72-.24,2.57-.36,5.1-.72,7.56-1.09,.25-.04,.5-.08,.75-.11,2.33-.35,4.59-.69,6.79-1.03,.43-.07,.88-.14,1.31-.2,2.24-.35,4.39-.69,6.46-1.03,.52-.08,1.02-.17,1.53-.25,1.96-.32,3.87-.64,5.64-.94,.08-.01,.17-.03,.25-.04,1.88-.32,3.61-.62,5.23-.9,.39-.07,.78-.13,1.15-.2,1.48-.26,2.87-.5,4.08-.72,.25-.04,.47-.08,.71-.13,1.09-.2,2.1-.38,2.91-.53,.09-.02,.19-.03,.27-.05,.9-.17,1.62-.3,2.12-.39,.08-.01,.15-.03,.22-.04,.35-.07,.65-.12,.65-.12v-265.44s-.49,.13-1.42,.36Z"/>
        </g>
        <path class="cls-1" d="M1605.62,1014.12c1.28,0,2.57-.06,3.88-.19-1.42,.15-2.81,.2-4.19,.19,.1,0,.21,0,.31,0Z"/>
      </g>
    </g>
  </g>
  <g>
    <path class="cls-2" d="M554.85,4034.79c0,7.7-3.79,11.54-11.38,11.54h-114.94c-3.06,0-5.75-1.16-8.07-3.48-2.32-2.32-3.48-5.01-3.48-8.07v-206.79c0-3.06,1.16-5.74,3.48-8.07,2.32-2.32,5.01-3.48,8.07-3.48h114.94c7.59,0,11.38,3.85,11.38,11.54s-3.8,11.38-11.4,11.38h-103.54v80.63h80.46c7.71,0,11.56,3.79,11.56,11.39s-3.85,11.54-11.56,11.54h-80.46v80.48h103.54c7.6,0,11.4,3.79,11.4,11.38Z"/>
    <path class="cls-2" d="M662.21,3965.86c0,7.69-3.85,11.54-11.54,11.54h-68.93c-7.69,0-11.54-3.85-11.54-11.54s3.85-11.38,11.54-11.38h68.93c7.69,0,11.54,3.79,11.54,11.38Z"/>
    <path class="cls-2" d="M877.07,4004.75c0,2.53-1.21,5.17-3.63,7.91-8.86,10.33-21.19,18.66-37,24.98-14.86,5.79-29.56,8.69-44.11,8.69-31.73,0-58.82-11.23-81.27-33.7-22.45-22.47-33.68-49.57-33.68-81.33s11.25-58.69,33.75-81.16c22.51-22.47,49.57-33.7,81.19-33.7,14.54,0,29.25,2.91,44.11,8.72,15.81,6.34,28.14,14.65,37,24.9,2.42,2.86,3.63,5.55,3.63,8.09,0,3.17-1.18,5.95-3.56,8.33-2.37,2.38-5.15,3.57-8.31,3.57-2.43,0-5.06-1.22-7.91-3.66-2.32-2.12-5.91-5.19-10.76-9.21-15.51-11.87-33.6-17.8-54.28-17.8-25.32,0-46.97,9-64.96,26.98-17.99,17.99-26.98,39.64-26.98,64.96s9,47.13,26.98,65.12c17.99,17.99,39.64,26.98,64.96,26.98,20.67,0,38.77-5.9,54.28-17.71,2.32-2.11,5.91-5.16,10.76-9.17,2.85-2.43,5.49-3.64,7.91-3.64,3.16,0,5.93,1.18,8.31,3.56,2.37,2.37,3.56,5.13,3.56,8.3Z"/>
    <path class="cls-2" d="M1053.37,3965.78c0,22.27-7.88,41.25-23.64,56.98-15.76,15.72-34.71,23.58-56.84,23.58s-41.09-7.86-56.84-23.58c-15.76-15.72-23.64-34.71-23.64-56.98s7.88-41.09,23.64-56.81c15.75-15.72,34.7-23.59,56.84-23.59s41.08,7.86,56.84,23.59c15.75,15.72,23.64,34.66,23.64,56.81Zm-22.93,0c0-15.73-5.63-29.23-16.89-40.53-11.26-11.29-24.81-16.94-40.67-16.94s-29.41,5.65-40.67,16.94c-11.26,11.3-16.89,24.8-16.89,40.53s5.63,29.4,16.89,40.69c11.25,11.3,24.81,16.94,40.67,16.94s29.41-5.64,40.67-16.94c11.25-11.29,16.89-24.85,16.89-40.69Z"/>
    <path class="cls-2" d="M1290.68,4034.78c0,7.71-3.84,11.56-11.54,11.56s-11.39-3.85-11.39-11.56v-91.97c0-9.5-3.37-17.62-10.11-24.37-6.75-6.76-14.86-10.14-24.35-10.14s-17.61,3.38-24.35,10.14c-6.74,6.75-10.12,14.87-10.12,24.37v91.97c0,7.71-3.85,11.56-11.54,11.56s-11.39-3.85-11.39-11.56v-91.97c0-9.5-3.41-17.62-10.22-24.37-6.82-6.76-14.92-10.14-24.32-10.14s-17.65,3.38-24.41,10.14c-6.76,6.75-10.14,14.87-10.14,24.37v91.97c0,7.71-3.82,11.56-11.47,11.56s-11.46-3.85-11.46-11.56v-138c0-7.6,3.84-11.4,11.54-11.4s11.54,3.85,11.54,11.54c10.12-7.69,21.61-11.54,34.47-11.54,19.08,0,34.36,7.7,45.85,23.09,11.49-15.39,26.82-23.09,46.01-23.09,15.81,0,29.33,5.62,40.55,16.86s16.84,24.77,16.84,40.59v91.95Z"/>
    <path class="cls-2" d="M1535.75,4034.78c0,7.71-3.84,11.56-11.54,11.56s-11.39-3.85-11.39-11.56v-91.97c0-9.5-3.37-17.62-10.11-24.37-6.75-6.76-14.86-10.14-24.35-10.14s-17.61,3.38-24.35,10.14c-6.74,6.75-10.12,14.87-10.12,24.37v91.97c0,7.71-3.85,11.56-11.54,11.56s-11.39-3.85-11.39-11.56v-91.97c0-9.5-3.41-17.62-10.22-24.37-6.82-6.76-14.92-10.14-24.32-10.14s-17.65,3.38-24.41,10.14c-6.76,6.75-10.14,14.87-10.14,24.37v91.97c0,7.71-3.82,11.56-11.47,11.56s-11.46-3.85-11.46-11.56v-138c0-7.6,3.84-11.4,11.54-11.4s11.54,3.85,11.54,11.54c10.12-7.69,21.61-11.54,34.47-11.54,19.08,0,34.36,7.7,45.85,23.09,11.49-15.39,26.82-23.09,46.01-23.09,15.81,0,29.33,5.62,40.55,16.86,11.23,11.24,16.84,24.77,16.84,40.59v91.95Z"/>
    <path class="cls-2" d="M1710.46,4000.16c0,1.79-.53,3.8-1.58,6.01-6.43,12.12-16.15,21.84-29.17,29.17-13.02,7.33-26.54,10.99-40.55,10.99-22.13,0-41.09-7.86-56.84-23.58-15.76-15.72-23.64-34.71-23.64-56.98s7.88-41.09,23.64-56.81c15.75-15.72,34.7-23.59,56.84-23.59,7.91,0,16.18,1.48,24.83,4.44,9.8,3.37,19.39,8.76,28.77,16.15,11.7,9.18,17.55,17.84,17.55,25.97,0,4.11-1.89,7.23-5.69,9.34l-108.47,62.69c11.39,12.97,25.72,19.45,43.01,19.45s32.57-6.59,43.32-19.76c1.37-2,3.56-4.98,6.56-8.93,3.01-3.95,6.14-5.93,9.41-5.93s5.96,1.11,8.38,3.32c2.43,2.22,3.64,4.91,3.64,8.06Zm-28.33-72.31c-11.5-13.03-25.85-19.55-43.06-19.55-15.84,0-29.37,5.65-40.61,16.95-11.24,11.3-16.86,24.81-16.86,40.54,0,6.33,.99,12.45,2.98,18.37l97.54-56.31Z"/>
    <path class="cls-2" d="M1828.72,3914.58c0,3.07-1.24,5.72-3.73,7.94-2.48,2.22-5.26,3.33-8.32,3.33s-7.08-2.92-12.05-8.77c-4.96-5.85-10.83-8.78-17.59-8.78-6.34,0-11.76,2.27-16.25,6.81-4.49,4.54-6.73,9.92-6.73,16.15v103.52c0,7.71-3.82,11.56-11.47,11.56s-11.46-3.85-11.46-11.56v-138c0-7.6,3.84-11.4,11.54-11.4,5.16,0,8.69,2.27,10.59,6.8,7.28-4.53,15.23-6.8,23.88-6.8,7.91,0,15.63,2.12,23.17,6.35,7.53,4.24,13.09,9.78,16.68,16.66,1.16,2.33,1.74,4.39,1.74,6.19Z"/>
    <path class="cls-2" d="M1984.77,3916.96c0,3.17-1.18,5.95-3.56,8.33-2.38,2.38-5.15,3.57-8.31,3.57-.95,0-6.62-3.43-17.02-10.28-10.39-6.85-20.93-10.28-31.59-10.28-15.83,0-29.37,5.65-40.6,16.94-11.24,11.3-16.86,24.8-16.86,40.53s5.62,29.4,16.86,40.69c11.24,11.3,24.78,16.94,40.6,16.94,10.55,0,21.03-3.4,31.43-10.2,10.39-6.8,16.12-10.2,17.18-10.2,3.06,0,5.78,1.21,8.15,3.64s3.56,5.16,3.56,8.22c0,2.53-1.16,5.22-3.48,8.06-6.11,7.17-14.76,12.91-25.93,17.23-10.44,4.11-20.71,6.17-30.83,6.17-22.13,0-41.09-7.86-56.84-23.58-15.76-15.72-23.64-34.71-23.64-56.98s7.88-41.09,23.64-56.81c15.75-15.72,34.7-23.59,56.84-23.59,10.12,0,20.39,2.07,30.83,6.19,11.17,4.44,19.81,10.26,25.93,17.46,2.43,2.75,3.64,5.4,3.64,7.93Z"/>
    <path class="cls-2" d="M2151.89,4000.16c0,1.79-.53,3.8-1.58,6.01-6.43,12.12-16.15,21.84-29.17,29.17-13.02,7.33-26.54,10.99-40.55,10.99-22.13,0-41.09-7.86-56.84-23.58-15.76-15.72-23.64-34.71-23.64-56.98s7.88-41.09,23.64-56.81c15.75-15.72,34.7-23.59,56.84-23.59,7.91,0,16.18,1.48,24.83,4.44,9.8,3.37,19.39,8.76,28.77,16.15,11.7,9.18,17.55,17.84,17.55,25.97,0,4.11-1.89,7.23-5.69,9.34l-108.47,62.69c11.39,12.97,25.72,19.45,43.01,19.45s32.57-6.59,43.32-19.76c1.37-2,3.56-4.98,6.56-8.93,3.01-3.95,6.14-5.93,9.41-5.93s5.96,1.11,8.38,3.32c2.43,2.22,3.64,4.91,3.64,8.06Zm-28.33-72.31c-11.5-13.03-25.85-19.55-43.06-19.55-15.84,0-29.37,5.65-40.61,16.95-11.24,11.3-16.86,24.81-16.86,40.54,0,6.33,.99,12.45,2.98,18.37l97.54-56.31Z"/>
  </g>
</svg>