<svg xmlns="http://www.w3.org/2000/svg" xmlns:xlink="http://www.w3.org/1999/xlink" width="20" height="20" viewBox="0 0 20 20">
  <defs>
    <clipPath id="clip-Artboard_1">
      <rect width="20" height="20"/>
    </clipPath>
  </defs>
  <g id="Artboard_1" data-name="Artboard – 1" clip-path="url(#clip-Artboard_1)">
    <g id="Iconly_Bulk_Show" data-name="Iconly/Bulk/Show" transform="translate(-2 -2)">
      <g id="Show" transform="translate(2 4)">
        <path id="Fill-1" d="M10,0a9.265,9.265,0,0,1,5.737,2.046,14.164,14.164,0,0,1,4.2,5.663.729.729,0,0,1,0,.572C17.854,13.11,14.137,16,10,16H9.99C5.863,16,2.146,13.11.059,8.281a.728.728,0,0,1,0-.572C2.146,2.879,5.863,0,9.99,0h0Zm0,4.121A3.874,3.874,0,1,0,13.893,8,3.89,3.89,0,0,0,10,4.121Z" fill="#0b0b0b" opacity="0.4"/>
        <path id="Fill-4" d="M12.431,8A2.434,2.434,0,0,1,7.563,8a2.522,2.522,0,0,1,.049-.474H7.66a2,2,0,0,0,2-1.921A2.043,2.043,0,0,1,10,5.573,2.43,2.43,0,0,1,12.431,8" fill="#0b0b0b"/>
      </g>
    </g>
  </g>
</svg>
