<svg xmlns="http://www.w3.org/2000/svg" width="227.131" height="181.756" viewBox="0 0 227.131 181.756">
  <g id="undraw_online_wishes_dlmr" transform="translate(0 8.871)">
    <g id="Group_3325" data-name="Group 3325" transform="translate(160.586 -8.871)">
      <path id="Path_7021" data-name="Path 7021" d="M100.506,304.11c0,9.528-7.724,24.736-17.253,24.736S66,313.638,66,304.11a17.253,17.253,0,0,1,34.506,0Z" transform="translate(-66 -286.857)" fill="#9c0"/>
      <path id="Path_7022" data-name="Path 7022" d="M141.425,491.809c-2.168.747-2.687,3.7-1.941,5.872s2.325,3.967,3.12,6.118a18.333,18.333,0,0,1,.778,3.334,27.906,27.906,0,0,1,.559,8.158,23.193,23.193,0,0,1-2.538,7.322,68.5,68.5,0,0,1-8.174,12.616" transform="translate(-123.532 -449.207)" fill="none" stroke="#464646" stroke-linecap="round" stroke-width="2"/>
      <path id="Path_7023" data-name="Path 7023" d="M144.326,484.183a2.858,2.858,0,0,0-3.326,0v-3.326h3.326Z" transform="translate(-125.41 -440.531)" fill="#9c0"/>
      <path id="Path_7024" data-name="Path 7024" d="M140.929,488.466a3.658,3.658,0,0,0,3.332-.014" transform="translate(-125.33 -446.548)" fill="none" stroke="#9c0" stroke-linecap="round" stroke-width="2"/>
      <ellipse id="Ellipse_121" data-name="Ellipse 121" cx="3.638" cy="4.365" rx="3.638" ry="4.365" transform="translate(20.787 5.613)" fill="#fff" opacity="0.4"/>
    </g>
    <path id="Path_7016" data-name="Path 7016" d="M343.615,98.454c-9.337-36.714-41.6-63.216-79.465-64.279-20.019-.562-41.085,6.078-56.422,29.311-27.417,41.533,1.685,70.234,21.974,83.872a126.955,126.955,0,0,1,26.241,23.585c13.7,16.263,40.07,36.472,71.469,4.808C350.17,152.8,349.833,122.908,343.615,98.454Z" transform="translate(-169.406 -34.143)" fill="#9c0"/>
    <g id="Group_3323" data-name="Group 3323">
      <path id="Path_7021-2" data-name="Path 7021" d="M66,304.11c0,9.528,7.724,24.736,17.253,24.736s17.253-15.207,17.253-24.736a17.253,17.253,0,1,0-34.506,0Z" transform="translate(-66 -234.326)" fill="#464646"/>
      <path id="Path_7022-2" data-name="Path 7022" d="M135.867,491.809c2.168.747,2.687,3.7,1.941,5.872s-2.325,3.967-3.12,6.118a18.335,18.335,0,0,0-.778,3.334,27.906,27.906,0,0,0-.559,8.158,23.193,23.193,0,0,0,2.538,7.322,68.494,68.494,0,0,0,8.174,12.616" transform="translate(-119.254 -396.676)" fill="none" stroke="#0b0b0b" stroke-linecap="round" stroke-width="2"/>
      <path id="Path_7023-2" data-name="Path 7023" d="M141,484.183a2.858,2.858,0,0,1,3.326,0v-3.326H141Z" transform="translate(-125.41 -388)" fill="#464646"/>
      <path id="Path_7024-2" data-name="Path 7024" d="M144.261,488.466a3.658,3.658,0,0,1-3.332-.014" transform="translate(-125.354 -394.017)" fill="none" stroke="#464646" stroke-linecap="round" stroke-width="2"/>
      <ellipse id="Ellipse_121-2" data-name="Ellipse 121" cx="3.638" cy="4.365" rx="3.638" ry="4.365" transform="translate(6.443 58.144)" fill="#fff" opacity="0.4"/>
    </g>
    <g id="Group_3324" data-name="Group 3324" transform="translate(192.625 52.531)">
      <path id="Path_7021-3" data-name="Path 7021" d="M100.506,304.11c0,9.528-7.724,24.736-17.253,24.736S66,313.638,66,304.11a17.253,17.253,0,0,1,34.506,0Z" transform="translate(-66 -286.857)" fill="#464646"/>
      <path id="Path_7022-3" data-name="Path 7022" d="M141.425,491.809c-2.168.747-2.687,3.7-1.941,5.872s2.325,3.967,3.12,6.118a18.333,18.333,0,0,1,.778,3.334,27.906,27.906,0,0,1,.559,8.158,23.193,23.193,0,0,1-2.538,7.322,68.5,68.5,0,0,1-8.174,12.616" transform="translate(-123.532 -449.207)" fill="none" stroke="#0b0b0b" stroke-linecap="round" stroke-width="2"/>
      <path id="Path_7023-3" data-name="Path 7023" d="M144.326,484.183a2.858,2.858,0,0,0-3.326,0v-3.326h3.326Z" transform="translate(-125.41 -440.531)" fill="#464646"/>
      <path id="Path_7024-3" data-name="Path 7024" d="M140.929,488.466a3.658,3.658,0,0,0,3.332-.014" transform="translate(-125.33 -446.548)" fill="none" stroke="#464646" stroke-linecap="round" stroke-width="2"/>
      <ellipse id="Ellipse_121-3" data-name="Ellipse 121" cx="3.638" cy="4.365" rx="3.638" ry="4.365" transform="translate(20.787 5.613)" fill="#fff" opacity="0.4"/>
    </g>
    <path id="Path_7025" data-name="Path 7025" d="M308.8,656.159c0,9.815-46.16,27.23-103.1,27.23S108,648.1,108,638.282s40.756,9.562,97.7,9.562S308.8,646.343,308.8,656.159Z" transform="translate(-99.27 -510.504)" fill="#0b0b0b"/>
    <path id="Path_7027" data-name="Path 7027" d="M308.8,650.005c0,9.815-46.16,17.772-103.1,17.772S108,642.048,108,632.233s40.756,0,97.7,0S308.8,640.19,308.8,650.005Z" transform="translate(-99.27 -504.455)" fill="#464646"/>
    <path id="Path_7028" data-name="Path 7028" d="M472.79,598.228,470.7,611.559s-10.279,5.461-3.052,5.621,41.277,0,41.277,0,6.585,0-3.855-5.782l-2.088-13.973Z" transform="translate(-382.121 -480.339)" fill="#0b0b0b"/>
    <path id="Path_7029" data-name="Path 7029" d="M466.2,617.035a28.426,28.426,0,0,1,4.506-2.982l2.088-13.331,30.195.028,2.088,13.142a27.413,27.413,0,0,1,4.825,3.175c1.341-.306,2.806-1.443-4.825-5.669l-2.088-13.973-30.195.8-2.088,13.331S462.072,616.148,466.2,617.035Z" transform="translate(-382.129 -480.338)" opacity="0.1"/>
    <rect id="Rectangle_701" data-name="Rectangle 701" width="136.037" height="94.76" rx="10" transform="translate(37.587 24.977)" fill="#0b0b0b"/>
    <rect id="Rectangle_702" data-name="Rectangle 702" width="126.882" height="70.99" rx="5" transform="translate(42.164 30.036)" fill="#464646"/>
    <circle id="Ellipse_122" data-name="Ellipse 122" cx="0.803" cy="0.803" r="0.803" transform="translate(104.803 26.984)" fill="#f2f2f2"/>
    <path id="Path_7030" data-name="Path 7030" d="M382.861,547.2v8.307a4.782,4.782,0,0,1-4.784,4.783H251.607a4.783,4.783,0,0,1-4.783-4.784V547.2Z" transform="translate(-209.237 -440.555)" fill="#0b0b0b"/>
    <path id="Path_7031" data-name="Path 7031" d="M349.522,678.01v1.606H263.113v-1.285l.119-.321,2.13-5.782h82.393Z" transform="translate(-208.421 -532.495)" fill="#0b0b0b"/>
    <path id="Path_7032" data-name="Path 7032" d="M812.336,705.548c-.157.673-.752,1.383-2.094,2.054-4.818,2.409-14.616-.642-14.616-.642s-7.549-1.285-7.549-4.658a6.028,6.028,0,0,1,.662-.393c2.026-1.072,8.742-3.716,20.652.112a4.967,4.967,0,0,1,2.264,1.484A2.369,2.369,0,0,1,812.336,705.548Z" transform="translate(-637.983 -561.606)" fill="#0b0b0b"/>
    <path id="Path_7033" data-name="Path 7033" d="M814.858,705.548c-5.9,2.26-11.154,2.428-16.549-1.319a11.847,11.847,0,0,0-7.048-2.321c2.026-1.072,8.742-3.716,20.652.112a4.968,4.968,0,0,1,2.264,1.483A2.369,2.369,0,0,1,814.858,705.548Z" transform="translate(-640.504 -561.606)" fill="#fff"/>
    <ellipse id="Ellipse_123" data-name="Ellipse 123" cx="2.088" cy="0.642" rx="2.088" ry="0.642" transform="translate(164.871 141.339)" fill="#464646"/>
    <circle id="Ellipse_124" data-name="Ellipse 124" cx="3.052" cy="3.052" r="3.052" transform="translate(102.554 110.181)" fill="#f2f2f2"/>
    <path id="Path_7034" data-name="Path 7034" d="M349.522,700.044v1.606H263.113v-1.285l.119-.321Z" transform="translate(-208.421 -554.529)" opacity="0.1"/>
    <path id="Path_7039" data-name="Path 7039" d="M475.679,288.552v17.99l-4.756,9.595h0l-.151.3-12.59-.831-4.84-.32-11.233-.742V293.028l11.233.317,5.023.142,12.708.359Z" transform="translate(-350.21 -228.572)" fill="#9c0"/>
    <path id="Path_7040" data-name="Path 7040" d="M585.484,293.658v16.929l-1.162,2.344h0l-1.191,2.4h0l-2.4,4.847.269-17.99.054-3.629,2.284-2.527h0l1-1.1Z" transform="translate(-460.015 -232.617)" opacity="0.1"/>
    <path id="Path_7041" data-name="Path 7041" d="M472.552,260.649v6.284l-.646,1.029-1.153,1.838-1.022,1.628-2.258,3.6-.054,0-30.073-1.547v-6.2l.076-.082,3.59-3.886,1.3-1.406,2.351-2.544Z" transform="translate(-346.438 -205.446)" fill="#9c0"/>
    <path id="Path_7042" data-name="Path 7042" d="M467.474,298.693v6.2l-30.127-1.549v-6.2l.076-.082Z" transform="translate(-346.438 -235.313)" opacity="0.1"/>
    <path id="Path_7043" data-name="Path 7043" d="M587.36,265.57v6.284l-5.079,8.091v-6.2Z" transform="translate(-461.245 -210.367)" opacity="0.15"/>
    <path id="Path_7044" data-name="Path 7044" d="M484.728,273.237l0,4.222V279.5l-.008,15.961h0l-1.191,2.4.178-16.737.027-2.562h0l.041-3.781-28.786-1.774,1.3-1.406Z" transform="translate(-360.409 -215.143)" fill="#fff"/>
    <path id="Path_7045" data-name="Path 7045" d="M503.207,280.477l-2.017,4.38-.018,2.233-.183,22.122-4.84-.32V284.566l2.582-4.089Z" transform="translate(-393.017 -222.176)" fill="#fff"/>
    <path id="Path_7046" data-name="Path 7046" d="M545.183,287.019a6.4,6.4,0,0,1-3.607.127,1.449,1.449,0,0,1-.633-.293,1.638,1.638,0,0,1-.391-.775,6.128,6.128,0,0,1-.346-1.856,2.072,2.072,0,0,1,.772-1.657,1.825,1.825,0,0,0,.293-.22,1.217,1.217,0,0,0,.227-.461c.353-1.052,1.036-2.163,2.133-2.331a3.65,3.65,0,0,1,2.712,1.215l1.711,1.456a2.7,2.7,0,0,1,5.034-.069,9.574,9.574,0,0,1,3.806-2.612,1.171,1.171,0,0,1,1-.039,1.148,1.148,0,0,1,.4.534,8.223,8.223,0,0,1,.742,3.244.568.568,0,0,1,.66.228,1.5,1.5,0,0,1,.22.715,10.118,10.118,0,0,1,.068,1.178,1.778,1.778,0,0,1-.309,1.178,1.958,1.958,0,0,1-1.49.463.6.6,0,0,1-.154.885,1.726,1.726,0,0,1-1,.194,6.964,6.964,0,0,1-3.854-.79c-.437-.292-.8-.68-1.242-.97a6.036,6.036,0,0,0-3.667-.686C547.143,285.728,546.252,286.661,545.183,287.019Z" transform="translate(-441.635 -228.423)" fill="#fff"/>
    <path id="Path_7047" data-name="Path 7047" d="M514.758,314.62s-11.1,1.549-12.653,8.263l2.324-.344,1.635,2.927s1.722-6.542,6.8-8.091a55.6,55.6,0,0,1,6.886-1.808s3.529.861,6.714,11.1l1.808-2.5,3.185.689s-2.324-8.005-8.608-10.243Z" transform="translate(-411.454 -256.319)" fill="#fff"/>
  </g>
</svg>
