<svg xmlns="http://www.w3.org/2000/svg" xmlns:xlink="http://www.w3.org/1999/xlink" width="17" height="16" viewBox="0 0 17 16">
  <defs>
    <clipPath id="clip-Artboard_4">
      <rect width="17" height="16"/>
    </clipPath>
  </defs>
  <g id="Artboard_4" data-name="Artboard – 4" clip-path="url(#clip-Artboard_4)">
    <g id="Group_876" data-name="Group 876" transform="translate(0.119 0.048)">
      <g id="Iconly_Light-Outline_Star" data-name="Iconly/Light-Outline/Star">
        <path id="Star" d="M10.381,4.289a.405.405,0,0,0-.373.226L8.439,7.654a1.7,1.7,0,0,1-1.281.92L3.644,9.08a.4.4,0,0,0-.335.278.381.381,0,0,0,.1.4L5.953,12.2a1.678,1.678,0,0,1,.493,1.5l-.6,3.447a.384.384,0,0,0,.158.384.407.407,0,0,0,.444.034l3.142-1.629a1.722,1.722,0,0,1,1.578,0l3.141,1.628a.416.416,0,0,0,.446-.033.384.384,0,0,0,.158-.384l-.6-3.447a1.678,1.678,0,0,1,.493-1.5L17.35,9.758a.377.377,0,0,0,.1-.4.4.4,0,0,0-.334-.278l-3.514-.506a1.7,1.7,0,0,1-1.28-.921L10.754,4.516a.4.4,0,0,0-.372-.226M6.253,18.9a1.709,1.709,0,0,1-1.009-.332,1.672,1.672,0,0,1-.665-1.646l.6-3.447a.391.391,0,0,0-.116-.349L2.519,10.688a1.667,1.667,0,0,1-.438-1.724A1.685,1.685,0,0,1,3.46,7.8L6.974,7.3a.409.409,0,0,0,.311-.221L8.856,3.938A1.7,1.7,0,0,1,10.381,3h0a1.7,1.7,0,0,1,1.526.938l1.571,3.139a.409.409,0,0,0,.31.222L17.3,7.8a1.685,1.685,0,0,1,1.378,1.159,1.667,1.667,0,0,1-.438,1.724L15.7,13.129a.389.389,0,0,0-.115.348l.6,3.448a1.672,1.672,0,0,1-.667,1.646,1.7,1.7,0,0,1-1.8.136l-3.14-1.627a.428.428,0,0,0-.393,0l-3.14,1.628a1.711,1.711,0,0,1-.792.2" transform="translate(-2 -3)" fill="#f60" fill-rule="evenodd"/>
      </g>
    </g>
  </g>
</svg>
