<svg xmlns="http://www.w3.org/2000/svg" xmlns:xlink="http://www.w3.org/1999/xlink" width="24" height="24" viewBox="0 0 24 24">
  <defs>
    <clipPath id="clip-Sign_In_Forget_Password_Verification_code_8">
      <rect width="24" height="24"/>
    </clipPath>
  </defs>
  <g id="Sign_In_Forget_Password_Verification_code_8" data-name="Sign In – Forget Password – Verification code – 8" clip-path="url(#clip-Sign_In_Forget_Password_Verification_code_8)">
    <g id="Group_3281" data-name="Group 3281" transform="translate(-8350 -5258)">
      <path id="Path_585" data-name="Path 585" d="M32.076,18.028q-.034.3-.068.6a12.69,12.69,0,0,1-1,3.637c-.049.112-.072.261-.157.323s-.244.02-.369.02c-.975,0-1.949,0-2.923,0-.095,0-.124-.008-.1-.119a20.628,20.628,0,0,0,.5-3.022c.045-.477.08-.955.116-1.432,0-.068.025-.087.092-.087q1.921,0,3.841,0a.588.588,0,0,1,.061.006Z" transform="translate(8341.901 5252.745)" fill="#0b0b0b"/>
      <path id="Path_586" data-name="Path 586" d="M32.076,14.07c-.04,0-.081.006-.121.006-1.247,0-2.494,0-3.742,0-.1,0-.127-.02-.133-.123-.063-.926-.139-1.852-.284-2.77a16.309,16.309,0,0,0-.33-1.658c-.024-.09-.013-.11.08-.11q1.6,0,3.2,0a.13.13,0,0,1,.135.09,11.836,11.836,0,0,1,1.1,3.717c.032.241.037.485.093.723Z" transform="translate(8341.901 5255.253)" fill="#0b0b0b"/>
      <path id="Path_587" data-name="Path 587" d="M20.988,17.948c.959,0,1.917,0,2.875,0,.106,0,.122.021.11.128-.037.346-.057.693-.082,1.041a18.7,18.7,0,0,1-.438,2.81c-.045.2-.093.4-.137.6a.09.09,0,0,1-.1.085q-2.563,0-5.125,0c-.073,0-.1-.016-.1-.094q0-2.238,0-4.474c0-.1.049-.091.112-.09Z" transform="translate(8344.686 5252.746)" fill="#0b0b0b"/>
      <path id="Path_588" data-name="Path 588" d="M20.985,14.076c-.958,0-1.916,0-2.875,0-.093,0-.121-.021-.121-.12q.005-2.211,0-4.424c0-.1.034-.117.124-.117q2.532,0,5.064,0c.093,0,.122.032.143.115a21.073,21.073,0,0,1,.531,2.892c.047.465.072.93.107,1.4,0,.017,0,.033,0,.049.016.207.016.207-.2.207Z" transform="translate(8344.686 5255.253)" fill="#0b0b0b"/>
      <path id="Path_589" data-name="Path 589" d="M10.675,17.948c.938,0,1.875,0,2.812,0,.1,0,.137.013.137.129q-.007,2.2,0,4.41c0,.094-.019.122-.118.122q-2.489-.005-4.976,0c-.087,0-.123-.02-.147-.111a20.506,20.506,0,0,1-.562-3.221c-.04-.4-.064-.8-.1-1.2-.011-.12.03-.129.13-.129C8.792,17.95,9.733,17.948,10.675,17.948Z" transform="translate(8347.705 5252.746)" fill="#0b0b0b"/>
      <path id="Path_590" data-name="Path 590" d="M10.666,14.076c-.942,0-1.883,0-2.825,0-.1,0-.126-.023-.119-.126a24.776,24.776,0,0,1,.616-4.268c.065-.265.068-.265.335-.265q2.409,0,4.818,0c.105,0,.134.022.133.132q-.006,2.2,0,4.4c0,.111-.028.133-.133.132C12.548,14.074,11.607,14.076,10.666,14.076Z" transform="translate(8347.704 5255.253)" fill="#0b0b0b"/>
      <path id="Path_591" data-name="Path 591" d="M2.11,17.95c.648,0,1.3,0,1.944,0,.084,0,.119.009.118.109a16.953,16.953,0,0,0,.258,2.8,15.8,15.8,0,0,0,.333,1.62c.023.087-.013.1-.079.1a7.513,7.513,0,0,1-.855.026c-.82,0-1.639,0-2.458,0a.135.135,0,0,1-.148-.088,12.291,12.291,0,0,1-1.056-3.4c-.056-.359-.081-.724-.127-1.085-.013-.1.048-.08.1-.08Z" transform="translate(8349.963 5252.744)" fill="#0b0b0b"/>
      <path id="Path_592" data-name="Path 592" d="M2.11,14.076c-.64,0-1.28,0-1.92,0-.12,0-.138-.04-.133-.143a9.944,9.944,0,0,1,.189-1.385,12.013,12.013,0,0,1,.971-3.022.16.16,0,0,1,.17-.112c.983.006,1.965,0,2.948.008.118,0,.236.014.354.02.073,0,.1.029.077.109a22.539,22.539,0,0,0-.582,3.841,5.624,5.624,0,0,0-.008.577c0,.088-.025.107-.109.106C3.416,14.074,2.763,14.076,2.11,14.076Z" transform="translate(8349.957 5255.253)" fill="#0b0b0b"/>
      <path id="Path_593" data-name="Path 593" d="M17.991,29.122c0-.844,0-1.687,0-2.53,0-.088.014-.119.111-.119q2.262.012,4.524.016c.222,0,.222,0,.14.205a11.869,11.869,0,0,1-1.6,2.893,6.033,6.033,0,0,1-2.2,1.869,3.774,3.774,0,0,1-.861.3c-.111.021-.117-.012-.117-.1C17.993,30.808,17.991,29.965,17.991,29.122Z" transform="translate(8344.685 5250.238)" fill="#0b0b0b"/>
      <path id="Path_594" data-name="Path 594" d="M17.991,2.625c0-.839,0-1.679,0-2.519,0-.1.021-.121.122-.1A4.775,4.775,0,0,1,20.172,1.1,8.96,8.96,0,0,1,22.1,3.635c.265.493.485,1.006.7,1.521.042.1.016.116-.078.116-.563,0-1.125.011-1.688.012-.97,0-1.941,0-2.911,0-.1,0-.136-.017-.136-.131C17.994,4.313,17.991,3.469,17.991,2.625Z" transform="translate(8344.686 5258.022)" fill="#0b0b0b"/>
      <path id="Path_595" data-name="Path 595" d="M14.1,29.118c0,.839,0,1.68-.016,2.519,0,.109-.025.124-.128.1A5.206,5.206,0,0,1,11.534,30.2a9.4,9.4,0,0,1-1.608-2.388c-.186-.376-.376-.751-.525-1.144-.057-.15-.056-.15.1-.156,1.5-.052,3.008-.019,4.513-.032.1,0,.091.045.09.112Q14.1,27.853,14.1,29.118Z" transform="translate(8347.221 5250.238)" fill="#0b0b0b"/>
      <path id="Path_596" data-name="Path 596" d="M14.108,2.454c0,1.047,0,1.882,0,2.717,0,.094-.02.122-.119.122-1.308-.007-2.616-.008-3.925-.013-.2,0-.391-.018-.587-.018-.1,0-.124-.028-.085-.125a14.786,14.786,0,0,1,.653-1.423,9.239,9.239,0,0,1,1.794-2.448,5.05,5.05,0,0,1,2.1-1.223c.136-.039.136-.042.139.1C14.1.987,14.112,1.826,14.108,2.454Z" transform="translate(8347.217 5258.016)" fill="#0b0b0b"/>
      <path id="Path_597" data-name="Path 597" d="M8.538,1.067a.3.3,0,0,1-.078.124A13.711,13.711,0,0,0,6.12,5.38c-.08.219-.08.22-.308.219L3.171,5.587a.731.731,0,0,1-.246-.03A12.225,12.225,0,0,1,8.538,1.067Z" transform="translate(8349.114 5257.708)" fill="#0b0b0b"/>
      <path id="Path_598" data-name="Path 598" d="M8.534,31a11.963,11.963,0,0,1-3.086-1.754A14.083,14.083,0,0,1,2.9,26.513a9.7,9.7,0,0,1,1-.032c.673,0,1.346,0,2.018,0a.136.136,0,0,1,.152.112,14.859,14.859,0,0,0,1.806,3.557c.177.256.381.49.572.735C8.477,30.919,8.505,30.958,8.534,31Z" transform="translate(8349.12 5250.238)" fill="#0b0b0b"/>
      <path id="Path_599" data-name="Path 599" d="M23.482,30.907a1.347,1.347,0,0,1,.2-.309A13.592,13.592,0,0,0,25.8,26.633a.173.173,0,0,1,.166-.132,7.878,7.878,0,0,1,.806-.02c.579,0,1.158,0,1.737.008.081,0,.162.014.244.016s.114.023.052.108A14.728,14.728,0,0,1,27.8,27.878a12.285,12.285,0,0,1-4.174,2.991C23.58,30.887,23.541,30.922,23.482,30.907Z" transform="translate(8343.07 5250.237)" fill="#0b0b0b"/>
      <path id="Path_600" data-name="Path 600" d="M28.881,5.64h-2.54c-.061,0-.122,0-.184,0-.294-.006-.3-.006-.4-.286A13.8,13.8,0,0,0,23.97,1.92c-.122-.169-.25-.333-.375-.5a.363.363,0,0,1-.08-.15,10.517,10.517,0,0,1,3,1.773A11.807,11.807,0,0,1,28.881,5.64Z" transform="translate(8343.061 5257.649)" fill="#0b0b0b"/>
    </g>
  </g>
</svg>
