<svg xmlns="http://www.w3.org/2000/svg" xmlns:xlink="http://www.w3.org/1999/xlink" width="24" height="24" viewBox="0 0 24 24">
  <defs>
    <clipPath id="clip-Sign_In_Forget_Password_Verification_code_4">
      <rect width="24" height="24"/>
    </clipPath>
  </defs>
  <g id="Sign_In_Forget_Password_Verification_code_4" data-name="Sign In – Forget Password – Verification code – 4" clip-path="url(#clip-Sign_In_Forget_Password_Verification_code_4)">
    <g id="Chat" transform="translate(0 0)">
      <path id="Fill-1" d="M12.024,0A12,12,0,0,0,0,12a12.672,12.672,0,0,0,1.62,5.988,1.255,1.255,0,0,1,.084,1.08L.9,21.756a.749.749,0,0,0,.984.936l2.424-.72A2.045,2.045,0,0,1,6.1,22.4,11.984,11.984,0,1,0,12.024,0" opacity="0.4"/>
      <path id="Combined-Shape" d="M5.626,8.73a1.531,1.531,0,0,1,1.536,1.536,1.536,1.536,0,0,1-3.072,0A1.531,1.531,0,0,1,5.626,8.73Zm5.532,0a1.536,1.536,0,1,1,0,3.072,1.549,1.549,0,0,1-1.536-1.548A1.529,1.529,0,0,1,11.159,8.73Zm5.532,0a1.536,1.536,0,1,1-1.536,1.536A1.531,1.531,0,0,1,16.69,8.73Z" transform="translate(0.818 1.746)"/>
    </g>
  </g>
</svg>
