<svg xmlns="http://www.w3.org/2000/svg" xmlns:xlink="http://www.w3.org/1999/xlink" width="24" height="24" viewBox="0 0 24 24">
  <g id="Notification" transform="translate(0 0)">
    <path id="Combined-Shape" d="M8.176,21.328a2.816,2.816,0,0,0,2.091,1h0a2.826,2.826,0,0,0,2.1-1,.837.837,0,0,1,1.245,1.121A4.483,4.483,0,0,1,10.268,24h0a4.469,4.469,0,0,1-3.334-1.554.837.837,0,0,1,1.245-1.119ZM10.322,0c4.962,0,8.3,3.865,8.3,7.474a5.711,5.711,0,0,0,.973,3.478,6.061,6.061,0,0,1,1.057,3.527c-.39,4.518-5.106,4.886-10.326,4.886S.385,19,0,14.551a6.113,6.113,0,0,1,1.054-3.6l.175-.295a5.6,5.6,0,0,0,.8-3.184C2.027,3.865,5.36,0,10.322,0Zm0,1.674c-3.9,0-6.621,3.056-6.621,5.8a7.278,7.278,0,0,1-1.213,4.34,4.413,4.413,0,0,0-.817,2.666c.186,2.105,1.576,3.212,8.651,3.212,7.036,0,8.469-1.155,8.655-3.284a4.369,4.369,0,0,0-.82-2.593,7.278,7.278,0,0,1-1.213-4.34C16.943,4.731,14.224,1.674,10.322,1.674Z" transform="translate(0)" fill="#000" fill-rule="evenodd"/>
  </g>
</svg>
