<svg xmlns="http://www.w3.org/2000/svg" xmlns:xlink="http://www.w3.org/1999/xlink" width="24" height="24" viewBox="0 0 24 24">
  <defs>
    <clipPath id="clip-Refer_a_friend">
      <rect width="24" height="24"/>
    </clipPath>
  </defs>
  <g id="Refer_a_friend" data-name="Refer a friend" clip-path="url(#clip-Refer_a_friend)">
    <g id="Group_3314" data-name="Group 3314" transform="translate(-23 -676)">
      <g id="_3-User" data-name="3-User" transform="translate(23 680)">
        <path id="Fill-1" d="M10.616,10.54c-3.27,0-6.028.534-6.028,2.6s2.777,2.578,6.028,2.578c3.27,0,6.028-.534,6.028-2.6s-2.777-2.578-6.028-2.578" transform="translate(-0.24 -0.551)"/>
        <path id="Fill-3" d="M10.729,8.024a3.987,3.987,0,0,0,3.989-4.012,3.989,3.989,0,1,0-7.978,0,3.987,3.987,0,0,0,3.989,4.012" transform="translate(-0.352 0)" opacity="0.4"/>
        <path id="Fill-11" d="M5.822.776A3.33,3.33,0,0,0,5.15.707,3.386,3.386,0,0,0,1.906,4.984a3.328,3.328,0,0,0,3.34,2.485A3.218,3.218,0,0,0,5.7,7.424a.15.15,0,0,0,.1-.231A5.536,5.536,0,0,1,5.885.927.1.1,0,0,0,5.9.823.123.123,0,0,0,5.822.776" transform="translate(-0.094 -0.037)" opacity="0.4"/>
        <path id="Fill-13" d="M2.2,9.5A2.609,2.609,0,0,0,.181,10.734a1.818,1.818,0,0,0,0,1.583c.436.946,1.842,1.25,2.389,1.328a.171.171,0,0,0,.191-.195A4.217,4.217,0,0,1,5.278,9.3.045.045,0,0,0,5.3,9.253a.032.032,0,0,0-.03-.023A14.705,14.705,0,0,0,2.2,9.5" transform="translate(0 -0.483)"/>
      </g>
      <path id="Fill-1-2" data-name="Fill-1" d="M20.458,7.643H18.935V6.154a1.138,1.138,0,1,0-2.276,0V7.643H15.138a1.154,1.154,0,0,0,0,2.308h1.521v1.491a1.138,1.138,0,1,0,2.276,0V9.952h1.523a1.154,1.154,0,0,0,0-2.308" transform="translate(25.404 677.114)"/>
    </g>
  </g>
</svg>
