<svg xmlns="http://www.w3.org/2000/svg" xmlns:xlink="http://www.w3.org/1999/xlink" width="24" height="24" viewBox="0 0 24 24">
  <defs>
    <clipPath id="clip-Artboard">
      <rect width="24" height="24"/>
    </clipPath>
  </defs>
  <g id="Artboard" clip-path="url(#clip-Artboard)">
    <g id="Group_3314" data-name="Group 3314" transform="translate(-27.348 -677.992)">
      <g id="_3-User" data-name="3-User" transform="translate(27.348 680)">
        <path id="Fill-1" d="M12.533,10.54c-4.309,0-7.945.7-7.945,3.422s3.659,3.4,7.945,3.4c4.309,0,7.945-.7,7.945-3.422s-3.659-3.4-7.945-3.4" transform="translate(-4.588 2.625)"/>
        <path id="Fill-3" d="M12,10.576a5.255,5.255,0,0,0,5.258-5.288,5.258,5.258,0,1,0-10.515,0A5.255,5.255,0,0,0,12,10.576" transform="translate(-4.052 0)" opacity="0.4"/>
      </g>
      <path id="Path_7071" data-name="Path 7071" d="M0,.514A4.51,4.51,0,0,1,.251-1.16a3.433,3.433,0,0,1,.933-1.227,4.771,4.771,0,0,0,.9-.983,1.544,1.544,0,0,0,.225-.8q0-1.269-1.169-1.269A1.185,1.185,0,0,0,.254-5.1a1.343,1.343,0,0,0-.349.943H-2.268A2.891,2.891,0,0,1-1.342-6.4a3.6,3.6,0,0,1,2.485-.81,3.619,3.619,0,0,1,2.466.769,2.736,2.736,0,0,1,.877,2.172,2.644,2.644,0,0,1-.285,1.2A4.961,4.961,0,0,1,3.2-1.8L2.6-1.227A2.058,2.058,0,0,0,1.945.056l-.03.458Zm-.217,2.3a1.091,1.091,0,0,1,.341-.826,1.214,1.214,0,0,1,.873-.325,1.214,1.214,0,0,1,.873.325,1.091,1.091,0,0,1,.341.826,1.082,1.082,0,0,1-.334.814,1.216,1.216,0,0,1-.881.321,1.216,1.216,0,0,1-.881-.321A1.082,1.082,0,0,1-.222,2.811Z" transform="translate(46.862 689.746)"/>
    </g>
  </g>
</svg>
